<svg xmlns="http://www.w3.org/2000/svg" width="599.184" height="161.872" viewBox="0 0 599.184 161.872"><linearGradient id="a" gradientUnits="userSpaceOnUse" x1="204.043" y1="27.48" x2="204.043" y2="64.548"><stop offset="0" stop-color="#ffd444"/><stop offset=".111" stop-color="#fed141"/><stop offset=".224" stop-color="#f8c739"/><stop offset=".338" stop-color="#f0b52b"/><stop offset=".452" stop-color="#e49d1a"/><stop offset=".511" stop-color="#dd8e0f"/><stop offset=".534" stop-color="#df9112"/><stop offset=".987" stop-color="#ffd444"/></linearGradient><path fill="url(#a)" d="M190.114 63.262v-2.516l3.847-.62V31.54l-3.75-.62V28.4h6.37c.72 0 1.38-.017 1.98-.057l1.74-.115c.56-.037 1.11-.078 1.65-.112a25.12 25.12 0 0 1 1.71-.06c2.123 0 3.93.172 5.43.52 1.5.34 2.716.848 3.666 1.52.946.672 1.636 1.496 2.073 2.475.434.98.65 2.11.65 3.37 0 1.1-.146 2.14-.447 3.09a8.357 8.357 0 0 1-1.307 2.59 7.926 7.926 0 0 1-2.13 1.96c-.847.55-1.826.93-2.923 1.16 1.405-.03 2.68.14 3.824.518 1.144.374 2.122.92 2.934 1.63a7.186 7.186 0 0 1 1.878 2.566c.44.998.666 2.113.666 3.353a12.16 12.16 0 0 1-.674 4.01c-.45 1.3-1.22 2.443-2.314 3.437-1.09.986-2.55 1.79-4.363 2.39-1.82.603-4.094.904-6.826.904a26.72 26.72 0 0 1-1.63-.043c-.5-.03-1.034-.063-1.587-.09-.56-.03-1.174-.064-1.843-.095a52.48 52.48 0 0 0-2.386-.05h-6.23zm9.074-32.23v12.625c.285.03.63.056 1.028.068.397.013.8.022 1.214.022h2.243c2.293 0 3.96-.55 5.006-1.66 1.04-1.106 1.56-2.795 1.56-5.073 0-1.053-.12-1.97-.356-2.748a4.343 4.343 0 0 0-1.177-1.95c-.55-.52-1.29-.903-2.2-1.166-.92-.26-2.058-.39-3.414-.39-1.116 0-1.97.04-2.565.114-.593.08-1.045.13-1.35.158m0 15.673v13.697c.165.108.42.19.757.238.33.056.704.093 1.116.118.42.025.85.037 1.3.044.45.01.87.015 1.25.015 1.584 0 2.936-.167 4.04-.492 1.11-.332 2.012-.8 2.715-1.413a5.22 5.22 0 0 0 1.527-2.243c.31-.89.466-1.89.466-3 0-1.24-.15-2.3-.446-3.19s-.776-1.61-1.433-2.18c-.657-.57-1.493-.98-2.517-1.25-1.026-.267-2.272-.4-3.734-.4h-2.68a59.453 59.453 0 0 0-2.355.05"/><linearGradient id="b" gradientUnits="userSpaceOnUse" x1="227.681" y1="24.78" x2="227.681" y2="64.343"><stop offset="0" stop-color="#ffd444"/><stop offset=".111" stop-color="#fed141"/><stop offset=".224" stop-color="#f8c739"/><stop offset=".338" stop-color="#f0b52b"/><stop offset=".452" stop-color="#e49d1a"/><stop offset=".511" stop-color="#dd8e0f"/><stop offset=".534" stop-color="#df9112"/><stop offset=".987" stop-color="#ffd444"/></linearGradient><path fill="url(#b)" d="M221.383 63.268v-2.522l3.78-.39v-19.06l-3.204-1.01V37.54l6.98-.935h.11l1.21.914v22.86l3.71.36v2.52h-12.59zm5.59-31c-.446 0-.85-.075-1.215-.236a2.848 2.848 0 0 1-.94-.663 2.94 2.94 0 0 1-.596-1.01 3.76 3.76 0 0 1-.206-1.25c0-.49.076-.96.22-1.4.147-.45.356-.84.642-1.18a3.1 3.1 0 0 1 1.062-.83c.427-.21.926-.31 1.49-.31h.025c.5 0 .942.09 1.327.28.377.18.703.42.96.72.26.3.458.633.595 1.02.14.38.21.78.21 1.19 0 .52-.074 1-.22 1.44-.146.445-.365.83-.663 1.16a3.17 3.17 0 0 1-1.116.78c-.437.185-.957.28-1.555.28h-.02z"/><linearGradient id="c" gradientUnits="userSpaceOnUse" x1="248.552" y1="36.77" x2="248.552" y2="64.008"><stop offset="0" stop-color="#ffd444"/><stop offset=".111" stop-color="#fed141"/><stop offset=".224" stop-color="#f8c739"/><stop offset=".338" stop-color="#f0b52b"/><stop offset=".452" stop-color="#e49d1a"/><stop offset=".511" stop-color="#dd8e0f"/><stop offset=".534" stop-color="#df9112"/><stop offset=".987" stop-color="#ffd444"/></linearGradient><path fill="url(#c)" d="M237.21 61.11l13.45-18.188 2.838-2.91-10.124.348-.85 4.282h-3.277v-7.448h19.384l.97 2.113-13.27 18.323-2.89 2.84 11.69-.55 1.698-4.763 3.07.365-.69 7.746h-20.96z"/><linearGradient id="d" gradientUnits="userSpaceOnUse" x1="275.1" y1="36.232" x2="275.1" y2="64.561"><stop offset="0" stop-color="#ffd444"/><stop offset=".111" stop-color="#fed141"/><stop offset=".224" stop-color="#f8c739"/><stop offset=".338" stop-color="#f0b52b"/><stop offset=".452" stop-color="#e49d1a"/><stop offset=".511" stop-color="#dd8e0f"/><stop offset=".534" stop-color="#df9112"/><stop offset=".987" stop-color="#ffd444"/></linearGradient><path fill="url(#d)" d="M263.623 56.396c0-1.102.208-2.082.62-2.942a7.307 7.307 0 0 1 1.697-2.28 9.92 9.92 0 0 1 2.527-1.674c.973-.458 2.02-.83 3.142-1.124a25.535 25.535 0 0 1 3.5-.638 40.693 40.693 0 0 1 3.61-.257v-1.21c0-1.07-.08-1.97-.23-2.71-.16-.74-.42-1.34-.8-1.81-.372-.462-.873-.8-1.5-1-.625-.208-1.42-.31-2.38-.31-.823 0-1.65.075-2.48.23-.82.153-1.61.34-2.37.557a23.16 23.16 0 0 0-2.082.713 19.87 19.87 0 0 0-1.593.7h-.025l-1.03-2.2c.293-.28.807-.628 1.538-1.055a19.27 19.27 0 0 1 2.596-1.24 25.68 25.68 0 0 1 3.234-1.03c1.15-.29 2.3-.43 3.444-.43 1.608 0 2.96.16 4.065.49 1.11.328 2.01.853 2.693 1.58.687.724 1.176 1.666 1.48 2.815.3 1.153.44 2.57.44 4.227v14.94h2.843v2.22l-1.048.265a25.196 25.196 0 0 1-2.62.493 9.57 9.57 0 0 1-1.303.09 9.76 9.76 0 0 1-1.115-.05c-.31-.045-.566-.145-.768-.306-.2-.16-.347-.4-.444-.72-.103-.32-.15-.76-.15-1.31v-.846c-.2.183-.526.456-.975.812-.453.362-1.005.722-1.66 1.078s-1.41.672-2.25.94-1.734.398-2.695.398a10.68 10.68 0 0 1-3.018-.42 7.066 7.066 0 0 1-2.52-1.317c-.726-.595-1.303-1.363-1.736-2.305-.44-.936-.653-2.06-.653-3.353m9.896 3.895a6.23 6.23 0 0 0 1.145-.13 11.78 11.78 0 0 0 1.373-.36 9.46 9.46 0 0 0 1.41-.57 8.74 8.74 0 0 0 1.273-.752v-8.44c-1.834 0-3.37.162-4.6.478-1.225.323-2.207.744-2.94 1.277-.733.52-1.253 1.122-1.556 1.793a5.032 5.032 0 0 0-.46 2.107c0 .84.113 1.552.336 2.13.216.58.523 1.055.913 1.42a3.34 3.34 0 0 0 1.383.79 5.92 5.92 0 0 0 1.717.245"/><linearGradient id="e" gradientUnits="userSpaceOnUse" x1="301.349" y1="36.767" x2="301.349" y2="64.384"><stop offset="0" stop-color="#ffd444"/><stop offset=".111" stop-color="#fed141"/><stop offset=".224" stop-color="#f8c739"/><stop offset=".338" stop-color="#f0b52b"/><stop offset=".452" stop-color="#e49d1a"/><stop offset=".511" stop-color="#dd8e0f"/><stop offset=".534" stop-color="#df9112"/><stop offset=".987" stop-color="#ffd444"/></linearGradient><path fill="url(#e)" d="M299.36 63.633l-9.256-23.323-2.225-.64v-2.473h11.59v2.472l-3.65.64 4.33 12.67 2.156 6.43 1.76-6.165 4.307-12.944-3.204-.64v-2.47h9.64v2.472l-2.286.64-8.94 23.323z"/><linearGradient id="f" gradientUnits="userSpaceOnUse" x1="202.243" y1="78.25" x2="202.243" y2="115.632"><stop offset="0" stop-color="#ffd444"/><stop offset=".111" stop-color="#fed141"/><stop offset=".224" stop-color="#f8c739"/><stop offset=".338" stop-color="#f0b52b"/><stop offset=".452" stop-color="#e49d1a"/><stop offset=".511" stop-color="#dd8e0f"/><stop offset=".534" stop-color="#df9112"/><stop offset=".987" stop-color="#ffd444"/></linearGradient><path fill="url(#f)" d="M201.36 114.616c-1.354 0-2.605-.105-3.746-.31a32.794 32.794 0 0 1-3.058-.697 40.462 40.462 0 0 1-2.323-.74c-.647-.23-1.156-.36-1.523-.39l.39-8.456h3.16l.964 5.682c.26.29.604.566 1.028.823.43.26.92.49 1.47.675.55.192 1.143.337 1.784.446.645.106 1.308.155 1.996.155 2.304 0 4.006-.5 5.096-1.517 1.09-1.014 1.64-2.405 1.64-4.18 0-.934-.18-1.75-.54-2.45-.36-.705-.876-1.346-1.56-1.93-.677-.577-1.498-1.122-2.462-1.636-.96-.51-2.038-1.04-3.228-1.594a40.686 40.686 0 0 1-3.036-1.536 14.79 14.79 0 0 1-2.986-2.184 11.622 11.622 0 0 1-2.296-3.014c-.61-1.143-.913-2.48-.913-4.01 0-1.306.27-2.514.81-3.604a8.487 8.487 0 0 1 2.294-2.832c.99-.793 2.17-1.406 3.56-1.84 1.38-.437 2.92-.657 4.617-.657 1.053 0 2.054.083 3 .237a35.7 35.7 0 0 1 2.6.51 34.78 34.78 0 0 1 2.075.575c.59.19 1.068.315 1.42.38l-.296 7.76h-3.05L207.12 82.9c-.133-.15-.363-.302-.676-.463a6.428 6.428 0 0 0-1.1-.43 13.33 13.33 0 0 0-1.41-.307 10.168 10.168 0 0 0-1.602-.126c-2.09 0-3.623.406-4.59 1.215-.972.81-1.456 2.04-1.456 3.685 0 .884.173 1.66.513 2.325.345.663.842 1.273 1.5 1.83.655.56 1.473 1.105 2.45 1.64a105.7 105.7 0 0 0 3.346 1.745 76.22 76.22 0 0 1 3.42 1.82 17.29 17.29 0 0 1 3.12 2.21 10.78 10.78 0 0 1 2.27 2.83c.586 1.06.88 2.29.88 3.7 0 1.207-.27 2.406-.8 3.61-.534 1.2-1.32 2.27-2.358 3.224-1.038.952-2.333 1.73-3.886 2.315-1.55.586-3.345.88-5.377.88"/><linearGradient id="g" gradientUnits="userSpaceOnUse" x1="229.023" y1="87.407" x2="229.023" y2="126.847"><stop offset="0" stop-color="#ffd444"/><stop offset=".111" stop-color="#fed141"/><stop offset=".224" stop-color="#f8c739"/><stop offset=".338" stop-color="#f0b52b"/><stop offset=".452" stop-color="#e49d1a"/><stop offset=".511" stop-color="#dd8e0f"/><stop offset=".534" stop-color="#df9112"/><stop offset=".987" stop-color="#ffd444"/></linearGradient><path fill="url(#g)" d="M221.706 125.775c-.233 0-.478-.012-.734-.024a10.47 10.47 0 0 1-.76-.06 10.99 10.99 0 0 1-.663-.103 1.66 1.66 0 0 1-.44-.124v-4.24c.09.05.24.095.43.138a11 11 0 0 0 .68.128c.25.04.514.065.786.08.277.013.54.02.78.02.49 0 1.03-.06 1.616-.19.593-.13 1.202-.446 1.847-.942.64-.495 1.296-1.245 1.97-2.245.67-1 1.334-2.37 1.99-4.11h-2.883l-8.566-22.95-2.2-.643v-2.48h11.545V90.5l-3.663.644 4.67 14.06 2.066 6.76 1.83-6.76 3.98-14.06-3.09-.642v-2.48h9.574v2.474l-2.36.644a1942.23 1942.23 0 0 0-3.08 9.827c-.86 2.776-1.596 5.13-2.2 7.058-.6 1.92-1.09 3.445-1.456 4.567-.366 1.122-.645 1.914-.846 2.373-.734 1.828-1.453 3.42-2.166 4.77-.71 1.358-1.488 2.48-2.324 3.372-.84.892-1.764 1.56-2.784 2-1.015.447-2.204.67-3.56.67"/><linearGradient id="h" gradientUnits="userSpaceOnUse" x1="255.227" y1="87.028" x2="255.227" y2="115.387"><stop offset="0" stop-color="#ffd444"/><stop offset=".111" stop-color="#fed141"/><stop offset=".224" stop-color="#f8c739"/><stop offset=".338" stop-color="#f0b52b"/><stop offset=".452" stop-color="#e49d1a"/><stop offset=".511" stop-color="#dd8e0f"/><stop offset=".534" stop-color="#df9112"/><stop offset=".987" stop-color="#ffd444"/></linearGradient><path fill="url(#h)" d="M245.803 112.626v-6.004h3.253l.935 3.39c.15.247.38.486.72.722.337.238.73.45 1.195.64.46.193.97.345 1.533.457a8.798 8.798 0 0 0 1.76.18c.954 0 1.73-.1 2.34-.31.61-.21 1.09-.47 1.445-.81.348-.34.59-.73.72-1.18a5 5 0 0 0 .2-1.387 3.22 3.22 0 0 0-.408-1.61c-.266-.484-.67-.94-1.224-1.376-.544-.434-1.25-.86-2.115-1.282a38.766 38.766 0 0 0-3.08-1.32c-1.24-.47-2.307-.98-3.21-1.51-.9-.533-1.65-1.134-2.244-1.8a6.404 6.404 0 0 1-1.314-2.22c-.283-.822-.425-1.746-.425-2.79 0-1.05.24-2 .724-2.85.48-.846 1.147-1.572 1.993-2.185.85-.61 1.85-1.078 3-1.41 1.15-.325 2.4-.493 3.747-.493.944 0 1.816.06 2.61.17.795.12 1.514.258 2.155.42.64.158 1.205.324 1.69.49.475.168.865.298 1.154.39v5.727l-3.047-.023-1.01-2.96c-.198-.393-.633-.764-1.295-1.11-.665-.34-1.516-.512-2.55-.512-.796-.016-1.478.06-2.04.228-.565.17-1.024.397-1.374.69a2.65 2.65 0 0 0-.78 1.02c-.166.385-.25.8-.25 1.247 0 .825.176 1.5.53 2.015.346.52.812.96 1.382 1.33a10.61 10.61 0 0 0 1.96.963c.73.273 1.483.584 2.246.915a43.45 43.45 0 0 1 3.01 1.448 12.66 12.66 0 0 1 2.528 1.73 7.47 7.47 0 0 1 1.75 2.268c.438.86.65 1.884.65 3.06 0 1.16-.22 2.214-.67 3.156a6.65 6.65 0 0 1-1.955 2.42c-.86.666-1.903 1.17-3.134 1.536-1.228.357-2.614.537-4.153.537-.824 0-1.68-.07-2.57-.206a29.095 29.095 0 0 1-2.55-.503 21.487 21.487 0 0 1-2.226-.654 19.813 19.813 0 0 1-1.587-.625"/><linearGradient id="i" gradientUnits="userSpaceOnUse" x1="276.991" y1="81.166" x2="276.991" y2="115.551"><stop offset="0" stop-color="#ffd444"/><stop offset=".111" stop-color="#fed141"/><stop offset=".224" stop-color="#f8c739"/><stop offset=".338" stop-color="#f0b52b"/><stop offset=".452" stop-color="#e49d1a"/><stop offset=".511" stop-color="#dd8e0f"/><stop offset=".534" stop-color="#df9112"/><stop offset=".987" stop-color="#ffd444"/></linearGradient><path fill="url(#i)" d="M271.895 109.21V91.342h-3.32v-2.15c.47-.155.94-.316 1.405-.487.465-.164.806-.32 1.02-.456.505-.36.933-.93 1.283-1.72.12-.28.275-.64.46-1.09.18-.458.36-.92.54-1.39.173-.47.335-.92.477-1.35.146-.43.248-.767.31-1.008h2.934v6.32h7.672v3.32h-7.672v13.7c0 1.36.016 2.418.056 3.183.04.766.146 1.33.323 1.695.172.37.436.594.79.675.353.085.83.125 1.44.125h.022c.446 0 .91-.026 1.386-.09.49-.06.96-.13 1.41-.214.47-.085.88-.175 1.27-.274.38-.1.69-.197.918-.287h.02l.78 2.244c-.364.27-.873.554-1.512.85a17.51 17.51 0 0 1-2.093.81 21.01 21.01 0 0 1-2.346.61c-.81.16-1.573.24-2.292.24h-.043c-.81 0-1.534-.09-2.176-.27a3.958 3.958 0 0 1-1.64-.905c-.447-.422-.794-.98-1.04-1.673-.24-.695-.364-1.548-.364-2.558"/><linearGradient id="j" gradientUnits="userSpaceOnUse" x1="298.848" y1="86.889" x2="298.848" y2="115.39"><stop offset="0" stop-color="#ffd444"/><stop offset=".111" stop-color="#fed141"/><stop offset=".224" stop-color="#f8c739"/><stop offset=".338" stop-color="#f0b52b"/><stop offset=".452" stop-color="#e49d1a"/><stop offset=".511" stop-color="#dd8e0f"/><stop offset=".534" stop-color="#df9112"/><stop offset=".987" stop-color="#ffd444"/></linearGradient><path fill="url(#j)" d="M299.75 114.616c-1.944 0-3.642-.334-5.1-1.007a10.03 10.03 0 0 1-3.654-2.82c-.98-1.21-1.71-2.65-2.2-4.32-.488-1.67-.73-3.51-.73-5.51 0-2.03.304-3.888.917-5.56s1.462-3.11 2.553-4.305a11.357 11.357 0 0 1 3.885-2.785c1.5-.657 3.13-.985 4.91-.985 2.89 0 5.126.784 6.71 2.35 1.59 1.567 2.456 3.88 2.59 6.95a39.96 39.96 0 0 1-.022 2.604 10.91 10.91 0 0 1-.23 1.96h-15.85v.133c.063 1.74.31 3.23.757 4.464.445 1.23 1.02 2.25 1.73 3.034.71.79 1.523 1.36 2.44 1.718.916.36 1.87.54 2.86.54a11.3 11.3 0 0 0 1.996-.185 15.24 15.24 0 0 0 1.933-.483 11.09 11.09 0 0 0 1.698-.69 7.9 7.9 0 0 0 1.27-.777l.96 2.243c-.443.445-1.002.873-1.683 1.285a13.76 13.76 0 0 1-2.27 1.086c-.83.31-1.71.567-2.644.756-.93.19-1.873.284-2.815.284m-.574-24.53a5.58 5.58 0 0 0-2.13.397c-.656.265-1.232.723-1.73 1.367-.494.64-.897 1.494-1.213 2.56-.313 1.07-.51 2.416-.58 4.033h10.627c.03-.305.058-.627.064-.96.008-.335.014-.65.014-.94a10.5 10.5 0 0 0-.28-2.45c-.187-.784-.47-1.47-.868-2.064a4.35 4.35 0 0 0-1.55-1.42c-.63-.35-1.42-.526-2.35-.526"/><linearGradient id="k" gradientUnits="userSpaceOnUse" x1="335.668" y1="86.992" x2="335.668" y2="114.846"><stop offset="0" stop-color="#ffd444"/><stop offset=".111" stop-color="#fed141"/><stop offset=".224" stop-color="#f8c739"/><stop offset=".338" stop-color="#f0b52b"/><stop offset=".452" stop-color="#e49d1a"/><stop offset=".511" stop-color="#dd8e0f"/><stop offset=".534" stop-color="#df9112"/><stop offset=".987" stop-color="#ffd444"/></linearGradient><path fill="url(#k)" d="M314.25 114.09v-2.473l2.888-.415v-19.08l-3.21-1.01v-2.75l6.53-.936h.112l1.104.914v1.788l-.025.985c.5-.458 1.12-.904 1.86-1.338a18.03 18.03 0 0 1 2.38-1.168 17.6 17.6 0 0 1 2.59-.836 10.65 10.65 0 0 1 2.503-.32c1.697 0 3.055.28 4.07.83 1.017.55 1.785 1.416 2.324 2.59.446-.365 1.02-.75 1.754-1.156.72-.406 1.51-.77 2.367-1.112a19.88 19.88 0 0 1 2.61-.82c.893-.213 1.704-.325 2.453-.325 1.5 0 2.734.206 3.7.61a4.884 4.884 0 0 1 2.293 1.92c.557.867.945 1.99 1.17 3.364.22 1.37.33 3.017.33 4.944v12.92l3.345.414v2.473h-11.27v-2.472l2.82-.414V98.42c0-1.25-.063-2.343-.188-3.276-.118-.932-.367-1.707-.732-2.323a3.515 3.515 0 0 0-1.52-1.39c-.65-.31-1.5-.47-2.553-.47a7.1 7.1 0 0 0-1.514.17c-.54.12-1.07.26-1.603.45a12.09 12.09 0 0 0-1.537.64c-.49.247-.913.5-1.28.754.294 1.437.44 3.227.44 5.365v12.87l3.316.414v2.47h-11.52v-2.474l3.093-.416V98.31a26.76 26.76 0 0 0-.17-3.21c-.12-.917-.34-1.673-.67-2.286a3.172 3.172 0 0 0-1.406-1.37c-.613-.304-1.425-.46-2.43-.46-1.103 0-2.23.2-3.388.605-1.167.404-2.177.93-3.05 1.57v18.05l3.14.413v2.47h-11.13z"/><linearGradient id="l" gradientUnits="userSpaceOnUse" x1="371.096" y1="87.028" x2="371.096" y2="115.387"><stop offset="0" stop-color="#ffd444"/><stop offset=".111" stop-color="#fed141"/><stop offset=".224" stop-color="#f8c739"/><stop offset=".338" stop-color="#f0b52b"/><stop offset=".452" stop-color="#e49d1a"/><stop offset=".511" stop-color="#dd8e0f"/><stop offset=".534" stop-color="#df9112"/><stop offset=".987" stop-color="#ffd444"/></linearGradient><path fill="url(#l)" d="M361.672 112.626v-6.004h3.25l.938 3.39c.137.247.377.486.712.722.335.238.73.45 1.19.64s.965.345 1.536.457a8.798 8.798 0 0 0 1.76.18c.947 0 1.73-.1 2.343-.31.61-.21 1.1-.47 1.45-.81.35-.34.59-.73.72-1.18.13-.452.19-.913.19-1.387 0-.59-.13-1.134-.394-1.61-.27-.484-.682-.94-1.226-1.376-.55-.434-1.258-.86-2.12-1.282a38.507 38.507 0 0 0-3.086-1.32c-1.233-.47-2.304-.98-3.202-1.51-.904-.533-1.647-1.134-2.242-1.8a6.552 6.552 0 0 1-1.32-2.215c-.284-.824-.42-1.748-.42-2.79 0-1.05.234-2 .718-2.85.485-.848 1.148-1.574 1.995-2.187.853-.61 1.85-1.077 3.003-1.41a13.74 13.74 0 0 1 3.74-.492c.954 0 1.82.06 2.615.17.797.12 1.516.26 2.15.42a18.73 18.73 0 0 1 1.69.49c.48.168.865.298 1.156.39v5.727l-3.05-.02-1.01-2.96c-.19-.393-.625-.764-1.29-1.11-.66-.34-1.52-.512-2.552-.512-.798-.015-1.473.06-2.036.23-.57.17-1.03.395-1.375.687a2.627 2.627 0 0 0-.785 1.02c-.167.385-.252.8-.252 1.247 0 .822.173 1.5.527 2.012.352.52.818.96 1.387 1.33.57.368 1.23.684 1.96.962.73.272 1.48.583 2.245.914a43.84 43.84 0 0 1 3.017 1.445 12.81 12.81 0 0 1 2.528 1.73 7.52 7.52 0 0 1 1.754 2.268c.435.86.65 1.88.65 3.057 0 1.162-.223 2.215-.674 3.157a6.633 6.633 0 0 1-1.96 2.423c-.853.663-1.895 1.174-3.12 1.533-1.23.355-2.614.535-4.163.535-.822 0-1.68-.067-2.562-.204a29.02 29.02 0 0 1-2.554-.505 21.99 21.99 0 0 1-2.223-.654 19.738 19.738 0 0 1-1.583-.62"/><path fill="#FFD444" d="M199.98 155.01a97.91 97.91 0 0 1-1.307-3.61 63.688 63.688 0 0 1-1.264-4.226 63.148 63.148 0 0 1-1.25 4.226 79.795 79.795 0 0 1-1.3 3.61h-1.78c-.675-1.51-1.332-3.227-1.977-5.163a88.853 88.853 0 0 1-1.82-6.246h2.19c.15.69.324 1.44.53 2.24a86.9 86.9 0 0 0 .648 2.41c.227.81.46 1.58.714 2.33.25.75.483 1.4.703 1.96.25-.688.493-1.416.734-2.187.244-.77.47-1.54.69-2.323.224-.78.434-1.55.63-2.306a64.82 64.82 0 0 0 .514-2.112h1.69c.134.658.296 1.36.485 2.114a80.247 80.247 0 0 0 1.307 4.63c.244.77.488 1.5.735 2.186.22-.557.45-1.208.692-1.955.24-.746.48-1.52.71-2.326.235-.804.46-1.603.66-2.41.204-.805.38-1.55.527-2.236h2.105a92.23 92.23 0 0 1-1.82 6.25c-.647 1.933-1.3 3.65-1.973 5.16h-1.778zm18.522 0a96.222 96.222 0 0 1-1.307-3.61 59.767 59.767 0 0 1-1.258-4.226 66.194 66.194 0 0 1-1.26 4.226 87.388 87.388 0 0 1-1.287 3.61h-1.778c-.676-1.51-1.333-3.227-1.978-5.16a89.927 89.927 0 0 1-1.82-6.25h2.195a71.09 71.09 0 0 0 1.17 4.647c.22.807.46 1.582.71 2.328a42.7 42.7 0 0 0 .7 1.955 60.41 60.41 0 0 0 .74-2.187c.24-.77.462-1.54.682-2.323.222-.78.426-1.552.625-2.306.2-.752.37-1.456.513-2.113h1.69c.13.66.294 1.36.485 2.12a77.64 77.64 0 0 0 1.306 4.63c.24.77.485 1.5.73 2.19a29.75 29.75 0 0 0 .697-1.955 85.805 85.805 0 0 0 1.372-4.737c.2-.806.375-1.552.52-2.237h2.107a88.84 88.84 0 0 1-1.82 6.25c-.645 1.933-1.302 3.65-1.974 5.16h-1.77zm18.518 0a93.014 93.014 0 0 1-1.305-3.61 58.216 58.216 0 0 1-1.264-4.226 61.41 61.41 0 0 1-1.25 4.226 83.91 83.91 0 0 1-1.29 3.61h-1.77c-.673-1.51-1.33-3.227-1.978-5.16a91.655 91.655 0 0 1-1.82-6.25h2.194c.15.686.324 1.432.528 2.238.204.806.42 1.605.65 2.41.227.806.462 1.58.71 2.327.25.747.483 1.397.706 1.955a55.2 55.2 0 0 0 .735-2.187c.243-.77.47-1.54.69-2.323.215-.78.426-1.552.624-2.306.2-.752.37-1.456.513-2.113h1.69c.133.66.294 1.36.486 2.12.186.756.394 1.527.61 2.31.22.783.447 1.555.69 2.323.24.77.49 1.5.736 2.187.222-.557.45-1.208.69-1.955.24-.747.48-1.52.715-2.327.23-.806.45-1.605.658-2.41.205-.807.38-1.553.526-2.238h2.107a89.91 89.91 0 0 1-1.82 6.25c-.645 1.933-1.3 3.65-1.976 5.16h-1.774zm10.53-1.184c0 .39-.13.737-.39 1.03-.268.296-.627.44-1.08.44-.452 0-.81-.144-1.072-.44a1.483 1.483 0 0 1-.396-1.03c0-.396.13-.738.396-1.035.26-.29.62-.44 1.073-.44.46 0 .82.15 1.08.44.26.3.39.64.39 1.04m6.13-9.72c.25-.16.626-.33 1.13-.5.5-.176 1.088-.266 1.747-.266.814 0 1.54.148 2.183.44a4.55 4.55 0 0 1 1.61 1.23 5.44 5.44 0 0 1 1 1.88c.22.733.34 1.54.34 2.416 0 .922-.14 1.753-.406 2.49-.276.737-.653 1.363-1.155 1.874a5.055 5.055 0 0 1-1.796 1.187c-.703.28-1.494.42-2.37.42-.95 0-1.794-.065-2.525-.2a20.304 20.304 0 0 1-1.797-.392v-16.35l2.04-.35v6.125zm0 9.128c.2.063.49.113.867.17.37.05.838.073 1.393.073 1.097 0 1.973-.36 2.633-1.084.657-.725.985-1.753.985-3.086a7.3 7.3 0 0 0-.172-1.644c-.118-.514-.306-.96-.57-1.325a2.72 2.72 0 0 0-1.022-.88c-.414-.214-.916-.315-1.5-.315a4.15 4.15 0 0 0-1.535.28c-.47.193-.83.39-1.077.596v7.217zm51.19-9.627a57.247 57.247 0 0 1-2.01 6.14 96.023 96.023 0 0 1-2.23 5.268h-1.84a95.086 95.086 0 0 1-2.224-5.266 57.48 57.48 0 0 1-2.014-6.14h2.2c.17.71.383 1.478.62 2.29.245.815.5 1.614.77 2.41.267.8.54 1.57.82 2.316a50.7 50.7 0 0 0 .79 1.997c.246-.586.507-1.25.785-2a75.54 75.54 0 0 0 1.594-4.72c.24-.816.45-1.58.624-2.294h2.108zm12.746 13.535c.168.08.373.14.627.21.26.07.507.1.76.1.8 0 1.43-.18 1.884-.54.455-.36.87-.936 1.23-1.74a64.736 64.736 0 0 1-2.577-5.59 48.93 48.93 0 0 1-1.98-5.973h2.19a41.5 41.5 0 0 0 .584 2.126 52.6 52.6 0 0 0 .756 2.35c.277.805.574 1.607.897 2.41.32.805.663 1.58 1.01 2.33a57.315 57.315 0 0 0 1.45-4.568c.408-1.504.8-3.053 1.165-4.646h2.106a86.942 86.942 0 0 1-1.76 6.198 64.732 64.732 0 0 1-2.08 5.56 12.91 12.91 0 0 1-.912 1.703 5.218 5.218 0 0 1-1.04 1.175 3.8 3.8 0 0 1-1.29.68c-.47.147-1.01.222-1.61.222a4.22 4.22 0 0 1-.5-.038 5.484 5.484 0 0 1-.52-.083 6.955 6.955 0 0 1-.46-.124 2.105 2.105 0 0 1-.29-.108l.363-1.648zm33.287-7.81c0-1.01.15-1.892.44-2.645.298-.75.68-1.38 1.164-1.875a4.72 4.72 0 0 1 1.667-1.12 5.114 5.114 0 0 1 1.934-.374c1.534 0 2.71.48 3.53 1.44.82.96 1.226 2.418 1.226 4.38v.34c0 .136-.008.266-.02.38h-7.815c.086 1.186.433 2.084 1.035 2.698.596.613 1.53.923 2.808.923.712 0 1.318-.06 1.81-.182a6.736 6.736 0 0 0 1.108-.365l.285 1.718c-.257.13-.69.267-1.308.416a9.48 9.48 0 0 1-2.12.22c-.99 0-1.852-.147-2.577-.452a4.633 4.633 0 0 1-1.785-1.24 5.048 5.048 0 0 1-1.045-1.873 8 8 0 0 1-.342-2.375m7.84-1.12c.014-.924-.217-1.68-.693-2.27-.48-.594-1.13-.89-1.966-.89-.466 0-.88.09-1.24.277-.36.18-.665.42-.913.71a3.37 3.37 0 0 0-.58 1.01 4.94 4.94 0 0 0-.272 1.16h5.66zm6.17-4.285a27.45 27.45 0 0 1 1.85-.374 16.57 16.57 0 0 1 2.67-.2c.73 0 1.34.1 1.84.3.5.195.922.483 1.257.865.1-.076.26-.175.482-.31a4.69 4.69 0 0 1 .807-.38 9.03 9.03 0 0 1 1.076-.333 5.522 5.522 0 0 1 1.274-.145c.873 0 1.59.13 2.15.39.55.256.99.616 1.3 1.08.316.47.527 1.03.64 1.67.11.647.16 1.348.16 2.11v6.407h-2.04v-5.97a12.9 12.9 0 0 0-.097-1.73c-.062-.483-.187-.886-.373-1.208a1.737 1.737 0 0 0-.745-.71c-.317-.156-.726-.23-1.224-.23-.687 0-1.257.09-1.696.273-.446.185-.75.346-.917.495.12.384.21.793.262 1.25.063.455.088.93.088 1.427v6.41h-2.04v-5.974c0-.665-.034-1.245-.11-1.73-.07-.48-.195-.884-.383-1.206a1.748 1.748 0 0 0-.744-.713c-.315-.153-.713-.23-1.196-.23-.204 0-.42.01-.656.025a31.32 31.32 0 0 0-.67.054c-.21.02-.4.05-.58.078-.18.03-.29.054-.352.067v9.633h-2.04v-11.09zm33.285 9.9c0 .39-.136.737-.396 1.03-.26.296-.62.44-1.075.44-.46 0-.818-.144-1.078-.44a1.478 1.478 0 0 1-.397-1.03c0-.396.13-.738.4-1.035.26-.29.62-.44 1.078-.44.454 0 .813.15 1.073.44.26.3.394.64.394 1.037m-131.52-12.29a1.29 1.29 0 0 1-.933-.365c-.25-.24-.38-.567-.38-.978 0-.408.13-.737.382-.975a1.31 1.31 0 0 1 .933-.366c.363 0 .68.124.93.365.26.238.387.567.387.973 0 .41-.126.736-.387.977a1.3 1.3 0 0 1-.933.364m1.03 13.475h-2.035V143.6h2.037v11.41zm12.18-9.875c-.303.34-.712.81-1.215 1.43a74.45 74.45 0 0 0-3.358 4.386 34.26 34.26 0 0 0-1.525 2.35h6.277v1.71h-8.714v-1.364c.35-.64.78-1.35 1.29-2.13.516-.77 1.05-1.544 1.61-2.31a75.737 75.737 0 0 1 1.65-2.173c.534-.68 1-1.257 1.39-1.724h-5.64v-1.707h8.23v1.533zm7.55-1.82c.82 0 1.514.108 2.078.32.56.21 1.01.507 1.36.897.34.395.59.85.735 1.39a6.8 6.8 0 0 1 .217 1.763v7.13c-.174.033-.422.07-.737.123-.315.054-.67.104-1.06.144-.397.046-.824.086-1.288.12a16.6 16.6 0 0 1-1.363.054 7.65 7.65 0 0 1-1.788-.195 3.9 3.9 0 0 1-1.4-.625 2.866 2.866 0 0 1-.925-1.126c-.216-.47-.33-1.03-.33-1.69 0-.63.126-1.17.385-1.624a3.102 3.102 0 0 1 1.043-1.1c.44-.276.953-.48 1.536-.617a8.65 8.65 0 0 1 1.84-.196c.202 0 .42.01.636.03.22.02.43.05.627.09.2.035.374.066.517.097.15.03.25.057.31.07v-.57c0-.34-.035-.673-.11-.998a2.223 2.223 0 0 0-.396-.878 1.972 1.972 0 0 0-.775-.616c-.333-.158-.76-.23-1.288-.23-.67 0-1.26.05-1.76.14-.51.094-.885.192-1.133.292l-.245-1.686c.26-.116.704-.234 1.31-.336a10.843 10.843 0 0 1 2-.167m.175 10.222c.482 0 .91-.01 1.28-.03.37-.024.684-.07.937-.127V150c-.15-.07-.387-.137-.714-.187a7.714 7.714 0 0 0-1.194-.078c-.31 0-.64.02-.98.063a3.026 3.026 0 0 0-.94.272 2.13 2.13 0 0 0-.71.574c-.193.24-.285.56-.285.954 0 .73.228 1.237.7 1.528.46.286 1.1.425 1.907.425m23.126 0c.838 0 1.457-.103 1.86-.323.396-.22.6-.57.6-1.057 0-.5-.197-.89-.594-1.19-.39-.293-1.04-.62-1.95-.986a29.45 29.45 0 0 1-1.265-.54 4.494 4.494 0 0 1-1.033-.644 2.87 2.87 0 0 1-.707-.9c-.17-.35-.26-.787-.26-1.298 0-1.012.372-1.812 1.116-2.4.75-.595 1.765-.89 3.053-.89.315 0 .64.016.96.053.32.038.625.083.896.13.286.052.528.11.74.167.21.057.377.113.494.156l-.37 1.752c-.225-.115-.564-.236-1.035-.36-.465-.124-1.03-.19-1.687-.19-.57 0-1.07.117-1.493.34-.427.23-.64.584-.64 1.065 0 .25.05.47.145.664.1.182.24.36.44.51s.44.295.73.43a15.5 15.5 0 0 0 1.06.42 20.7 20.7 0 0 1 1.443.6c.43.2.79.43 1.087.693a2.6 2.6 0 0 1 .692.954c.16.37.24.83.24 1.37 0 1.053-.396 1.85-1.17 2.392-.788.54-1.903.81-3.353.81-1.006 0-1.8-.082-2.37-.253-.57-.166-.96-.293-1.163-.38l.377-1.76c.23.087.608.223 1.115.397.516.18 1.2.263 2.042.263m22.886-.004c.836 0 1.45-.108 1.853-.328.406-.22.61-.57.61-1.056 0-.5-.196-.89-.594-1.188-.398-.294-1.05-.62-1.954-.987a23.31 23.31 0 0 1-1.262-.54 4.41 4.41 0 0 1-1.04-.643 2.817 2.817 0 0 1-.7-.9c-.183-.35-.27-.785-.27-1.296 0-1.015.37-1.815 1.12-2.4.745-.598 1.76-.89 3.05-.89.323 0 .645.013.967.05.32.04.62.083.9.13.275.052.52.11.73.167.214.056.376.112.493.155l-.37 1.752c-.22-.115-.566-.236-1.03-.36-.47-.124-1.035-.188-1.69-.188-.57 0-1.07.115-1.495.337-.42.23-.64.585-.64 1.066 0 .25.05.47.15.665.092.187.24.36.433.515.196.154.445.293.735.426s.645.27 1.054.42c.544.205 1.02.406 1.45.604.42.2.786.43 1.083.692.298.263.527.582.694.954.154.37.234.83.234 1.37 0 1.055-.39 1.85-1.17 2.394-.78.54-1.893.81-3.344.81-1.01 0-1.797-.083-2.372-.254-.57-.166-.953-.293-1.16-.38l.373-1.76c.235.087.608.223 1.12.397.512.18 1.194.263 2.042.263m10.14-9.938h4.322v1.706h-4.325v5.267c0 .57.042 1.045.135 1.417.09.37.22.67.392.88.174.21.397.36.657.445.264.083.57.133.92.133.614 0 1.11-.076 1.48-.21.373-.144.633-.24.78-.3l.39 1.69c-.2.104-.555.23-1.07.38-.514.16-1.096.234-1.76.234-.767 0-1.41-.1-1.914-.3a2.78 2.78 0 0 1-1.22-.89c-.305-.394-.52-.88-.646-1.456a9.608 9.608 0 0 1-.187-2.005v-10.18l2.04-.354v3.534zm43.792 9.933c.836 0 1.455-.107 1.854-.327.407-.22.606-.57.606-1.057 0-.5-.2-.89-.595-1.186-.39-.293-1.04-.62-1.952-.986a22.16 22.16 0 0 1-1.264-.54 4.566 4.566 0 0 1-1.044-.643 2.903 2.903 0 0 1-.7-.9c-.17-.35-.267-.784-.267-1.295 0-1.01.38-1.81 1.12-2.4.747-.595 1.77-.89 3.056-.89.318 0 .64.016.962.053.32.036.62.08.896.13.28.05.528.11.74.165.212.058.377.114.49.157l-.37 1.753c-.217-.115-.557-.236-1.027-.36s-1.03-.188-1.69-.188c-.574 0-1.07.115-1.497.337-.423.23-.63.584-.63 1.065 0 .247.04.47.14.662.094.185.24.36.434.513.2.156.446.295.738.428.297.133.645.27 1.05.418a20.79 20.79 0 0 1 1.454.605c.42.2.784.43 1.09.692a2.7 2.7 0 0 1 .686.954c.16.37.242.83.242 1.373 0 1.053-.39 1.85-1.178 2.392-.783.54-1.897.81-3.347.81-1.006 0-1.8-.083-2.367-.254-.57-.167-.963-.294-1.167-.38l.37-1.76c.236.086.607.222 1.12.396.51.18 1.19.262 2.04.262m18.94-10.186c.175 0 .374.01.603.036.222.02.445.05.67.09.215.037.42.07.6.106.186.043.322.074.41.105l-.355 1.773a6.822 6.822 0 0 0-.8-.21c-.38-.08-.858-.12-1.44-.12-.385 0-.76.04-1.136.12-.37.08-.615.13-.73.16v9.594h-2.04V144.08a15.463 15.463 0 0 1 1.796-.494 11.79 11.79 0 0 1 2.415-.23m14.44 11.33a26.38 26.38 0 0 1-1.86.372c-.765.13-1.65.198-2.66.198-.883 0-1.62-.123-2.22-.38-.6-.255-1.086-.62-1.445-1.088a4.35 4.35 0 0 1-.79-1.653 8.588 8.588 0 0 1-.245-2.12v-6.405h2.036v5.964c0 1.386.226 2.387.665 2.982.44.6 1.18.906 2.22.906.217 0 .44-.014.676-.026.235-.015.45-.03.655-.055l.56-.06c.17-.022.29-.05.366-.08v-9.63h2.045v11.08z"/><linearGradient id="m" gradientUnits="userSpaceOnUse" x1="82.831" y1="26.782" x2="82.831" y2="151.269"><stop offset="0" stop-color="#ffd444"/><stop offset=".511" stop-color="#dd8e0f"/><stop offset=".618" stop-color="#df9112"/><stop offset=".722" stop-color="#e39b19"/><stop offset=".824" stop-color="#ebac24"/><stop offset=".923" stop-color="#f6c235"/><stop offset=".987" stop-color="#ffd444"/></linearGradient><path fill="url(#m)" d="M126.08 102.86c-1.823-3.742-4.147-7.06-6.98-9.95a44 44 0 0 0-9.39-7.296c-3.425-1.98-6.793-3.56-10.11-4.735a68.38 68.38 0 0 0 6.338-5.46 38.482 38.482 0 0 0 5.218-6.26 29.477 29.477 0 0 0 3.526-7.38c.858-2.68 1.286-5.67 1.286-8.99 0-2.14-.428-4.6-1.286-7.38-.855-2.78-2.51-5.4-4.973-7.87-2.47-2.46-5.91-4.54-10.35-6.255-4.45-1.714-10.3-2.57-17.58-2.57-2.786 0-5.75.08-8.91.24-3.154.16-6.715.24-10.672.24-.855 0-2.06-.022-3.606-.08-1.556-.054-3.32-.103-5.3-.16-1.98-.055-4.09-.104-6.34-.16-2.243-.05-4.44-.08-6.578-.08-2.353 0-3.53.484-3.53 1.445 0 .968.91 1.448 2.727 1.448 1.18 0 2.357.026 3.535.08 1.174.052 2.082.186 2.727.4 2.67.535 4.44 1.5 5.297 2.887.86 1.396 1.39 3.48 1.605 6.26a92.93 92.93 0 0 1 .24 4.09c.05 1.447.08 3.4.08 5.86v52.32c0 7.38-.03 14.066-.082 20.054-.05 6-.293 10.703-.72 14.125-.264 1.95-.623 3.64-1.076 5.074 1.22-1.51 2.384-3.605 3.92-8.936.273-.298 1.738-5.206 2.21-7.23 1.06-4.52 2.25-8.994 4.26-13.25-.943.054-1.928.305-2.598-.66 3.204-2.134 4.82-3.87 5.082-5.492-.75.013-1.497.08-2.23.02-.726-.06-1.433-.248-2.15-.378.802-.577 1.592-.958 2.33-1.423.74-.46 1.43-1.006 2.144-1.515-3.044.07-4.476-.495-5.02-1.316 3.352-.966 4.89-1.846 7.337-4.2.688-.66 1.4-1.293 2.058-1.986 3.274-3.454 7.206-5.815 11.857-6.77 5.6-1.15 11.22-1.066 16.78.435 2.15.582 3.92 1.704 5.034 3.68.32.57.747.813 1.32.993 3.14.984 6.28 1.99 9.414 3.004 2.458.794 4.5 2.083 5.553 4.593a9.655 9.655 0 0 1 .71 5.04c-.25 2.078-.993 3.98-2.012 5.945-.062-.37-.118-.597-.136-.82-.14-1.83-1.004-3.135-2.7-3.903-4.266-1.932-2.35-.97-.538-.237-.352.1-6.057 1.304-6.28 1.38-2.56.89-5.132 1.752-7.67 2.7-.876.332-1.76.812-2.072 1.83-.25.84-.55 1.684-.672 2.552-.465 3.33.242 6.57.96 9.784.66 2.964 2.073 5.656 3.325 8.398 1.405 3.08 2.583 6.217 2.794 9.645.063 1.07.035 2.133-.21 3.248.39-.133.77-.27 1.156-.412 5.4-2.03 9.843-4.704 13.32-8.022 3.476-3.314 6.07-7.06 7.783-11.234 1.71-4.17 2.565-8.397 2.565-12.674 0-4.714-.91-8.938-2.73-12.684m-33.54-25.68a11.365 11.365 0 0 1-4.81 2.41c-1.82.426-4.07.64-6.74.64-3.64 0-6.154-.16-7.542-.483a1.98 1.98 0 0 1-.805-.477c-.218-.218-.32-.645-.32-1.286V38.35c0-1.5.476-2.407 1.443-2.727a9.766 9.766 0 0 1 2.404-.322h2.89c3.42 0 6.39.81 8.902 2.41a21.774 21.774 0 0 1 6.26 6.018c1.66 2.41 2.89 5.085 3.695 8.025.8 2.945 1.202 5.753 1.202 8.427 0 7.81-2.197 13.48-6.58 17.01"/><linearGradient id="n" gradientUnits="userSpaceOnUse" y1="81.702" x2="161.872" y2="81.702"><stop offset="0" stop-color="#dd8e0f"/><stop offset=".545" stop-color="#ffd444"/><stop offset=".987" stop-color="#dd9110"/></linearGradient><path fill="url(#n)" d="M80.938 162.638c-21.62 0-41.944-8.42-57.23-23.7C8.423 123.648 0 103.318 0 81.702 0 60.082 8.422 39.76 23.708 24.47 38.994 9.186 59.318.767 80.938.767c21.62 0 41.944 8.42 57.23 23.705 15.29 15.29 23.705 35.614 23.705 57.233 0 21.616-8.416 41.944-23.705 57.233-15.287 15.283-35.61 23.702-57.23 23.702m0-155.136c-19.82 0-38.455 7.716-52.467 21.734C14.46 43.25 6.74 61.884 6.74 81.703s7.72 38.452 21.734 52.467c14.013 14.013 32.65 21.734 52.468 21.734 19.82 0 38.455-7.722 52.467-21.734 14.01-14.015 21.73-32.647 21.73-52.467s-7.72-38.454-21.737-52.467c-14.01-14.018-32.65-21.734-52.466-21.734"/><linearGradient id="o" gradientUnits="userSpaceOnUse" x1="275.1" y1="36.232" x2="275.1" y2="64.561"><stop offset="0" stop-color="#ffd444"/><stop offset=".111" stop-color="#fed141"/><stop offset=".224" stop-color="#f8c739"/><stop offset=".338" stop-color="#f0b52b"/><stop offset=".452" stop-color="#e49d1a"/><stop offset=".511" stop-color="#dd8e0f"/><stop offset=".534" stop-color="#df9112"/><stop offset=".987" stop-color="#ffd444"/></linearGradient><path fill="url(#o)" d="M263.623 56.396c0-1.102.208-2.082.62-2.942a7.307 7.307 0 0 1 1.697-2.28 9.92 9.92 0 0 1 2.527-1.674c.973-.458 2.02-.83 3.142-1.124a25.535 25.535 0 0 1 3.5-.638 40.693 40.693 0 0 1 3.61-.257v-1.21c0-1.07-.08-1.97-.23-2.71-.16-.74-.42-1.34-.8-1.81-.372-.462-.873-.8-1.5-1-.625-.208-1.42-.31-2.38-.31-.823 0-1.65.075-2.48.23-.82.153-1.61.34-2.37.557a23.16 23.16 0 0 0-2.082.713 19.87 19.87 0 0 0-1.593.7h-.025l-1.03-2.2c.293-.28.807-.628 1.538-1.055a19.27 19.27 0 0 1 2.596-1.24 25.68 25.68 0 0 1 3.234-1.03c1.15-.29 2.3-.43 3.444-.43 1.608 0 2.96.16 4.065.49 1.11.328 2.01.853 2.693 1.58.687.724 1.176 1.666 1.48 2.815.3 1.153.44 2.57.44 4.227v14.94h2.843v2.22l-1.048.265a25.196 25.196 0 0 1-2.62.493 9.57 9.57 0 0 1-1.303.09 9.76 9.76 0 0 1-1.115-.05c-.31-.045-.566-.145-.768-.306-.2-.16-.347-.4-.444-.72-.103-.32-.15-.76-.15-1.31v-.846c-.2.183-.526.456-.975.812-.453.362-1.005.722-1.66 1.078s-1.41.672-2.25.94-1.734.398-2.695.398a10.68 10.68 0 0 1-3.018-.42 7.066 7.066 0 0 1-2.52-1.317c-.726-.595-1.303-1.363-1.736-2.305-.44-.936-.653-2.06-.653-3.353m9.896 3.895a6.23 6.23 0 0 0 1.145-.13 11.78 11.78 0 0 0 1.373-.36 9.46 9.46 0 0 0 1.41-.57 8.74 8.74 0 0 0 1.273-.752v-8.44c-1.834 0-3.37.162-4.6.478-1.225.323-2.207.744-2.94 1.277-.733.52-1.253 1.122-1.556 1.793a5.032 5.032 0 0 0-.46 2.107c0 .84.113 1.552.336 2.13.216.58.523 1.055.913 1.42a3.34 3.34 0 0 0 1.383.79 5.92 5.92 0 0 0 1.717.245"/><linearGradient id="p" gradientUnits="userSpaceOnUse" x1="298.848" y1="86.889" x2="298.848" y2="115.39"><stop offset="0" stop-color="#ffd444"/><stop offset=".111" stop-color="#fed141"/><stop offset=".224" stop-color="#f8c739"/><stop offset=".338" stop-color="#f0b52b"/><stop offset=".452" stop-color="#e49d1a"/><stop offset=".511" stop-color="#dd8e0f"/><stop offset=".534" stop-color="#df9112"/><stop offset=".987" stop-color="#ffd444"/></linearGradient><path fill="url(#p)" d="M299.75 114.616c-1.944 0-3.642-.334-5.1-1.007a10.03 10.03 0 0 1-3.654-2.82c-.98-1.21-1.71-2.65-2.2-4.32-.488-1.67-.73-3.51-.73-5.51 0-2.03.304-3.888.917-5.56s1.462-3.11 2.553-4.305a11.357 11.357 0 0 1 3.885-2.785c1.5-.657 3.13-.985 4.91-.985 2.89 0 5.126.784 6.71 2.35 1.59 1.567 2.456 3.88 2.59 6.95a39.96 39.96 0 0 1-.022 2.604 10.91 10.91 0 0 1-.23 1.96h-15.85v.133c.063 1.74.31 3.23.757 4.464.445 1.23 1.02 2.25 1.73 3.034.71.79 1.523 1.36 2.44 1.718.916.36 1.87.54 2.86.54a11.3 11.3 0 0 0 1.996-.185 15.24 15.24 0 0 0 1.933-.483 11.09 11.09 0 0 0 1.698-.69 7.9 7.9 0 0 0 1.27-.777l.96 2.243c-.443.445-1.002.873-1.683 1.285a13.76 13.76 0 0 1-2.27 1.086c-.83.31-1.71.567-2.644.756-.93.19-1.873.284-2.815.284m-.574-24.53a5.58 5.58 0 0 0-2.13.397c-.656.265-1.232.723-1.73 1.367-.494.64-.897 1.494-1.213 2.56-.313 1.07-.51 2.416-.58 4.033h10.627c.03-.305.058-.627.064-.96.008-.335.014-.65.014-.94a10.5 10.5 0 0 0-.28-2.45c-.187-.784-.47-1.47-.868-2.064a4.35 4.35 0 0 0-1.55-1.42c-.63-.35-1.42-.526-2.35-.526"/><path fill="#DD9110" d="M299.592 53.773c0-.69.05-1.367.147-2.022l-1.42-4.13c-.94 1.77-1.49 3.885-1.49 6.16 0 4.265 1.912 7.97 4.727 9.86h2.027l.166-.43c-2.502-1.984-4.167-5.457-4.167-9.427z"/><path fill="#FFD444" d="M47.874 10.227S8.598 34.512 1.86 68.703c0 0 3.868-34.867 33.066-52.963l12.948-5.513zm25.11 22.64s25.864-.85 29.87 4.027 1.4 0 1.4 0-1.393-4.325-25.143-5.413-6.12 1.39-6.12 1.39z"/><path fill="#FFF" d="M6.062 57.38c4.824-17.593 23.575-45.82 45.655-45.987 0 0-14.11 4.648-26.397 18.76C13.96 43.203 6.062 57.38 6.062 57.38zm48.312 41.67l-2.657-61.26s4.98-2.656 5.147 19.59 1.826 34.864-2.574 42.335M52.88 31.48h28.39s-7.306 1.66-15.44 1.993-12.95-1.992-12.95-1.992zm39.678 8.136c6.973 1.66 13.78 10.092 8.3 25.134 0 0 .12-7.37-1.472-14.84-1.192-5.593-6.828-10.294-6.828-10.294z"/><path fill="#6A3C0F" d="M147.843 43.102s11.62 21.25 11.123 31.876-4.482 21.084-4.482 21.084 2.158-9.63 1.328-21.417-5.977-26.728-7.97-31.543zm-44.99-7.305s11.55 8.226 11.12 17.598-11.12 19.424-11.12 19.424 5.99-11.46 5.567-18.52-3.568-15.06-5.566-18.51zM55.09 41.2s4.762-.09 4.596 1.902 0 42.003 0 42.003-.607 5.146-2.38 6.475-1.764-49.222-2.215-50.38zm66.853 62.665s5.48 12.616 3.653 18.428-13.512 19.425-13.512 19.425 7.037-11.122 9.195-18.926.16-13.15.66-18.927z"/><path fill="#FFD444" d="M71.81 79.352v3.956s12.288 1.71 16.643 0 10.647-6.93 10.11-16.905c0 0-4.513 12.05-10.734 13.01s-16.02-.06-16.02-.06zm27.576 5.2l3.47-2.28s23.27 7.93 25.122 29.45c0 0-3.97-20.637-28.592-27.17zm14.6-74.325S153.262 34.512 160 68.703c0 0-3.868-34.867-33.066-52.963l-12.948-5.513zm41.392 78.635s-1.568 22.646-15.08 36.485l2.51 1.88c.002 0 12.966-17.38 12.57-38.365zM6.762 93.102s3.6 33.46 28.432 50.126c7.067 4.743 12 3.333 12 3.333s-30.53-10.75-40.432-53.45z"/><path fill="#FFF" d="M115.303 147.962s9.83-1.57 20.752-11.06 12.95-21.526 12.95-21.526-6.895 10.52-14.61 17.875c-10.625 10.13-19.092 14.72-19.092 14.72z"/><path fill="#FFD444" d="M96.964 119.002s0-3.862 1.26-5.535c1.152-1.53 8.367-3.525 9.307-3.74s6.29-1.378 6.29-1.378 3.45.94 3.376 4.96c0 0-4.182-2.77-7.345-1.31s-8.814 1.43-12.88 6.993z"/><path fill="#FFF" d="M111.152 111.834c-2.77-.557-8.52.295-10.792 3.542-4.295 6.138 5.86 18.87 5.86 18.87s-4.207-10.455-1.71-16.103c1.225-2.767 5.818-6.422 6.642-6.31z"/><path d="M291.998 111.806c.777.72 1.66 1.32 2.665 1.78a10.69 10.69 0 0 0 2.536.783c-1.53-1.75-2.57-4.68-2.7-8.05-.078-.18-.15-.35-.22-.54-.44-1.24-.698-2.72-.76-4.46v-.14h1.523a12.697 12.697 0 0 1 1.07-2.75h-2.595c.077-1.62.272-2.96.582-4.03.082-.278.17-.538.264-.786-3.1 2.355-5.11 6.07-5.11 10.264a12.83 12.83 0 0 0 2.734 7.92zm10.074-20.814c.384.295.733.623 1.007 1.032.39.598.68 1.283.86 2.063.183.774.27 1.593.27 2.448 0 .288 0 .6-.01.938l-.003.037c.69.988 1.26 2.238 1.64 3.672h3.524c.12-.566.196-1.218.23-1.958.03-.74.04-1.605.023-2.597-.064-1.37-.276-2.58-.626-3.65a12.765 12.765 0 0 0-6.833-1.99c-.03 0-.06.005-.09.005zM270.407 59.26c-.39-.364-.694-.835-.917-1.418-.217-.582-.33-1.29-.33-2.132 0-.672.134-1.316.39-1.938-2.32.85-4.313 2.454-5.742 4.544.11.517.26.997.464 1.435.435.95 1.017 1.71 1.742 2.31a7.112 7.112 0 0 0 2.516 1.32c.434.13.882.22 1.336.29.327-1.476.83-2.77 1.457-3.81a3.23 3.23 0 0 1-.916-.59zm12.223 3.483c2.983-28.185-5.352-22.26-5.352-22.26 4.593 3.63 2.133 22.34 2.133 22.34l3.22-.08zm-69.46 38.727c-.086-.198-.17-.397-.272-.585a10.856 10.856 0 0 0-2.27-2.83 17.29 17.29 0 0 0-3.117-2.21 6.753 6.753 0 0 0-.19-.105c.07.103.15.198.21.303 3.72 5.84 2.85 13.04-1.93 16.08-4.49 2.86-10.85 1.02-14.68-4.066l-.2 4.43c.37.032.876.162 1.523.388.648.23 1.425.477 2.323.734.9.25 1.92.49 3.058.69 1.14.202 2.394.31 3.747.31 2.034 0 3.83-.297 5.374-.88 1.55-.59 2.846-1.36 3.884-2.32a10.124 10.124 0 0 0 1.884-2.312c.78-2.34 1.006-4.96.666-7.638zm-21.145-17.308c-.542 1.09-.81 2.298-.81 3.606 0 1.275.223 2.407.645 3.414.098-.068.187-.145.288-.21 1.564-.994 3.354-1.41 5.184-1.33a5.524 5.524 0 0 1-.542-.83c-.34-.666-.514-1.44-.514-2.327 0-1.13.245-2.047.7-2.783a14.084 14.084 0 0 0-4.688-.002c-.09.153-.184.302-.263.462zm60.143 30.248c.774.12 1.517.177 2.242.192-.91-.774-1.656-1.835-2.126-3.09-.13-.045-.265-.086-.387-.137a6.108 6.108 0 0 1-1.193-.64c-.334-.237-.57-.476-.712-.724l-.935-3.38h-.46c-.06.79-.052 1.604.047 2.43a12.144 12.144 0 0 0 1.742 5.005c.585.128 1.166.26 1.782.354zm11.812-4.286c.452-.942.67-1.995.67-3.157 0-1.175-.213-2.197-.65-3.058a7.458 7.458 0 0 0-1.754-2.27 12.636 12.636 0 0 0-2.527-1.73 43.45 43.45 0 0 0-3.02-1.45 54.39 54.39 0 0 0-1.507-.627c-2.038.442-3.763 1.755-4.944 3.6.815.447 1.743.88 2.806 1.283.29.11.566.22.835.33.8-.75 1.777-1.25 2.875-1.38 3.222-.385 6.215 2.494 6.686 6.43a8.467 8.467 0 0 1-.23 3.223c.29-.373.54-.77.747-1.204zm104.368 1.46a6.76 6.76 0 0 1-.587-.21 6.127 6.127 0 0 1-1.18-.64c-.334-.236-.574-.475-.71-.723l-.937-3.38h-.92a12.45 12.45 0 0 0 .434 3.145 12.21 12.21 0 0 0 2.17 4.36c.474.097.934.208 1.43.284.884.137 1.74.205 2.563.205.215 0 .42-.014.63-.02-1.16-.644-2.174-1.69-2.884-3.015zm11.497-1.46c.45-.94.675-1.995.675-3.157 0-1.175-.217-2.197-.65-3.058a7.518 7.518 0 0 0-1.754-2.27 12.81 12.81 0 0 0-2.527-1.73 43.62 43.62 0 0 0-3.02-1.45 46.35 46.35 0 0 0-2.25-.917c-.067-.025-.124-.055-.19-.08-.065.015-.132.022-.197.04-1.92.52-3.463 1.804-4.497 3.53.093.06.18.12.277.175.9.53 1.97 1.04 3.203 1.51l.107.04c.647-.7 1.452-1.22 2.39-1.475 3.133-.844 6.512 1.57 7.545 5.4.484 1.792.36 3.574-.22 5.052a6.565 6.565 0 0 0 1.102-1.62zm-145.367-10.42a14.458 14.458 0 0 0-.54-1.308l-.843 2.98c.085.2.168.407.245.624 1.358 3.85.76 8.775-1.337 11-2.097 2.226-4.898.91-6.256-2.94-1.192-3.382-.875-7.59.64-10.073l-1.356-4.082c-1.49 1.867-2.37 4.733-2.56 7.828l3.87 10.356h2.886a25.812 25.812 0 0 1-1.26 2.85c1.378.51 2.827.25 4.128-.88.15-.36.304-.72.456-1.1.202-.46.48-1.25.847-2.378a445.75 445.75 0 0 0 1.457-4.568l.683-2.18c-.03-2.08-.365-4.205-1.048-6.14zm-37.168-41.23c-3.7-5.816-2.852-12.98 1.88-16.04v-7.282c-1.538.29-3.017.848-4.376 1.713-.3.19-.574.406-.852.62v22.64l-1.77.286a21.976 21.976 0 0 0 2.225 2.85h1.93c.916 0 1.71.02 2.384.05.67.03 1.29.06 1.85.1.558.027 1.09.06 1.59.092.17.01.36.017.54.023-2.066-1.09-3.965-2.8-5.392-5.044zm18.744.587c-1.107-1.93-2.467-3.41-3.774-4.17a8.167 8.167 0 0 1-.39 1.784 5.218 5.218 0 0 1-1.528 2.24c-.61.533-1.382.95-2.3 1.27.16.924.43 1.905.81 2.9a14.97 14.97 0 0 0 1.745-.446c1.815-.6 3.27-1.403 4.364-2.392a8.8 8.8 0 0 0 1.08-1.18zm1.24-2.25c.45-1.294.68-2.633.68-4.01 0-1.24-.228-2.353-.668-3.35a7.178 7.178 0 0 0-1.878-2.566 8.03 8.03 0 0 0-2.305-1.396c.54.605 1.044 1.266 1.5 1.98 2.333 3.67 2.828 7.86 1.71 11.232a7.9 7.9 0 0 0 .96-1.89zM230.27 41.3h-5.107v21.97h5.106v-2.89zm95.115 70.32l-3.142-.414V95.96l-5.105.053V102l.102 9.826 8.145-.085zm21.423-.1l9.044-.093-1.79-.222V98.287c0-.955-.026-1.84-.08-2.656l-5.15.058c.082.81.125 1.72.125 2.74v12.783l-2.15.315zm-8.343-.314V98.33c0-.915-.033-1.754-.087-2.542l-5.117.05c.07.737.1 1.557.1 2.465V111.2l-3.09.416v.074l11.177-.116-2.973-.372zM256.823 55.16l-1.695 4.764-11.687.55 2.89-2.84 12.22-16.876c-.07-.05-.14-.116-.22-.157-3.105-1.54-9.23 4.47-13.684 13.43-1.613 3.246-2.78 6.43-3.47 9.246h12.7a51.088 51.088 0 0 0 2.01-3.657 50.87 50.87 0 0 0 1.91-4.34l-.964-.115zm25.89 57.092a6.84 6.84 0 0 1-3.164.755c-3.21 0-5.81-2.085-5.81-4.658a3.4 3.4 0 0 1 .07-.61h3.23a76.57 76.57 0 0 1-.04-2.7v-13.7h-5.11v17.87c0 1.01.12 1.86.36 2.555.244.692.59 1.25 1.04 1.672.454.42 1 .72 1.64.902.64.183 1.367.272 2.175.272h.046c.72 0 1.483-.08 2.295-.238a21.078 21.078 0 0 0 1.95-.494c.57-.46 1.023-1.01 1.312-1.63z" fill="#DD9110"/></svg>