<svg xmlns="http://www.w3.org/2000/svg" width="599.184" height="161.872" viewBox="0 0 599.184 161.872"><linearGradient id="a" gradientUnits="userSpaceOnUse" x1="202.225" y1="27.595" x2="202.225" y2="64.922"><stop offset="0" stop-color="#ffd444"/><stop offset=".111" stop-color="#fed141"/><stop offset=".224" stop-color="#f8c739"/><stop offset=".338" stop-color="#f0b52b"/><stop offset=".452" stop-color="#e49d1a"/><stop offset=".511" stop-color="#dd8e0f"/><stop offset=".534" stop-color="#df9112"/><stop offset=".987" stop-color="#ffd444"/></linearGradient><path fill="url(#a)" d="M204.764 63.907c-2.578 0-4.87-.434-6.88-1.305-2.007-.87-3.693-2.092-5.068-3.672-1.373-1.58-2.417-3.477-3.136-5.69-.72-2.21-1.075-4.668-1.075-7.37 0-2.594.443-4.97 1.326-7.13.89-2.163 2.1-4.025 3.65-5.597a16.402 16.402 0 0 1 5.415-3.666c2.066-.87 4.285-1.3 6.65-1.3 1.006 0 2.01.055 3.008.17a44.79 44.79 0 0 1 5.21.904c.717.17 1.29.29 1.718.37l-.41 8.08h-3.32l-1.328-5.29c-.397-.44-1.072-.8-2.033-1.07-.97-.27-2.295-.41-3.987-.41-1.42 0-2.727.313-3.917.94s-2.217 1.54-3.08 2.756c-.86 1.214-1.53 2.71-2.016 4.486-.476 1.778-.718 3.827-.718 6.147 0 1.996.19 3.95.57 5.86.383 1.905.98 3.603 1.796 5.09.817 1.49 1.87 2.69 3.16 3.595 1.29.91 2.842 1.36 4.66 1.36.837 0 1.57-.043 2.186-.123a10.19 10.19 0 0 0 1.614-.345 4.394 4.394 0 0 0 2.014-1.296l2.13-4.51 2.952.46-1.124 6.75a7.042 7.042 0 0 0-1.82.333c-.587.19-1.25.397-1.99.62-.742.217-1.6.416-2.576.596-.977.174-2.17.26-3.574.26"/><linearGradient id="b" gradientUnits="userSpaceOnUse" x1="235.004" y1="36.909" x2="235.004" y2="64.121"><stop offset="0" stop-color="#ffd444"/><stop offset=".111" stop-color="#fed141"/><stop offset=".224" stop-color="#f8c739"/><stop offset=".338" stop-color="#f0b52b"/><stop offset=".452" stop-color="#e49d1a"/><stop offset=".511" stop-color="#dd8e0f"/><stop offset=".534" stop-color="#df9112"/><stop offset=".987" stop-color="#ffd444"/></linearGradient><path fill="url(#b)" d="M220.035 63.38v-2.516l3.272-.415V40.44l-3.204-.663V37.33h11.766v2.473l-3.58.663V58l2.5-4.23 11.85-16.437h7.074v2.473l-3.046.663v20l3.297.41v2.49h-11.81v-2.49l3.504-.463V42.71l-2.358 4.165L227.4 63.38z"/><linearGradient id="c" gradientUnits="userSpaceOnUse" x1="264.648" y1="36.202" x2="264.648" y2="64.681"><stop offset="0" stop-color="#ffd444"/><stop offset=".111" stop-color="#fed141"/><stop offset=".224" stop-color="#f8c739"/><stop offset=".338" stop-color="#f0b52b"/><stop offset=".452" stop-color="#e49d1a"/><stop offset=".511" stop-color="#dd8e0f"/><stop offset=".534" stop-color="#df9112"/><stop offset=".987" stop-color="#ffd444"/></linearGradient><path fill="url(#c)" d="M254.393 50.744c0-1.905.298-3.71.893-5.41a13.436 13.436 0 0 1 2.597-4.49c1.14-1.286 2.532-2.31 4.18-3.064s3.51-1.134 5.587-1.134c.762 0 1.494.05 2.194.148.707.1 1.357.22 1.958.365.604.14 1.14.3 1.614.47.474.16.86.31 1.168.45l-.23 6.73h-3.088l-1.032-3.8a3.976 3.976 0 0 0-1.5-1.2c-.6-.286-1.338-.43-2.206-.43-.87 0-1.705.198-2.498.595-.793.396-1.497 1-2.117 1.797-.616.803-1.112 1.804-1.484 3-.38 1.2-.57 2.6-.59 4.202-.02 2.06.18 3.813.6 5.264s.98 2.63 1.684 3.534c.7.91 1.515 1.57 2.45 1.98a7.09 7.09 0 0 0 2.906.615c.72 0 1.396-.057 2.027-.18a11.034 11.034 0 0 0 1.75-.484 10.18 10.18 0 0 0 1.466-.672c.44-.25.83-.5 1.166-.745l1.005 2.2a8.97 8.97 0 0 1-1.535 1.243 12.32 12.32 0 0 1-2.046 1.09c-.757.32-1.557.58-2.397.78a11.36 11.36 0 0 1-2.562.294c-1.968 0-3.7-.338-5.188-1.017-1.487-.684-2.73-1.606-3.73-2.784-.998-1.177-1.754-2.564-2.265-4.176s-.773-3.337-.79-5.187"/><linearGradient id="d" gradientUnits="userSpaceOnUse" x1="290.689" y1="36.909" x2="290.689" y2="64.121"><stop offset="0" stop-color="#ffd444"/><stop offset=".111" stop-color="#fed141"/><stop offset=".224" stop-color="#f8c739"/><stop offset=".338" stop-color="#f0b52b"/><stop offset=".452" stop-color="#e49d1a"/><stop offset=".511" stop-color="#dd8e0f"/><stop offset=".534" stop-color="#df9112"/><stop offset=".987" stop-color="#ffd444"/></linearGradient><path fill="url(#d)" d="M282.23 63.38v-2.516l5.973-.62V39.85l-5.767.594-1.33 6.526h-3.272l.227-9.637h25.26l.23 9.637h-3.273l-1.373-6.526-5.676-.595v20.39l5.99.62v2.51z"/><linearGradient id="e" gradientUnits="userSpaceOnUse" x1="317.91" y1="36.202" x2="317.91" y2="64.681"><stop offset="0" stop-color="#ffd444"/><stop offset=".111" stop-color="#fed141"/><stop offset=".224" stop-color="#f8c739"/><stop offset=".338" stop-color="#f0b52b"/><stop offset=".452" stop-color="#e49d1a"/><stop offset=".511" stop-color="#dd8e0f"/><stop offset=".534" stop-color="#df9112"/><stop offset=".987" stop-color="#ffd444"/></linearGradient><path fill="url(#e)" d="M318.81 63.907c-1.94 0-3.636-.335-5.093-1.007a10.01 10.01 0 0 1-3.653-2.813c-.976-1.206-1.707-2.644-2.193-4.316-.49-1.67-.73-3.5-.73-5.5 0-2.03.31-3.873.92-5.55.61-1.67 1.46-3.1 2.55-4.3a11.294 11.294 0 0 1 3.88-2.78c1.5-.656 3.13-.984 4.9-.984 2.89 0 5.126.78 6.71 2.346 1.59 1.564 2.45 3.88 2.587 6.95a40.6 40.6 0 0 1-.02 2.597 11.34 11.34 0 0 1-.23 1.957h-15.84v.138c.06 1.74.31 3.227.753 4.463.443 1.24 1.02 2.25 1.727 3.03.715.787 1.527 1.357 2.44 1.72a7.79 7.79 0 0 0 2.86.533 10.9 10.9 0 0 0 1.99-.18 15.274 15.274 0 0 0 1.94-.483 11.284 11.284 0 0 0 1.69-.686 7.66 7.66 0 0 0 1.27-.78l.96 2.244c-.44.44-1 .866-1.68 1.28a13.53 13.53 0 0 1-2.265 1.086 17.7 17.7 0 0 1-2.644.753c-.934.19-1.87.284-2.817.284m-.57-24.518c-.763 0-1.47.135-2.13.4s-1.23.72-1.73 1.36c-.493.643-.9 1.498-1.21 2.567-.315 1.063-.508 2.402-.58 4.023h10.614c.036-.307.05-.625.064-.963.007-.335.01-.645.01-.936 0-.853-.09-1.672-.275-2.45a6.218 6.218 0 0 0-.87-2.06 4.41 4.41 0 0 0-1.543-1.42c-.636-.35-1.42-.524-2.35-.524"/><linearGradient id="f" gradientUnits="userSpaceOnUse" x1="351.029" y1="36.904" x2="351.029" y2="64.429"><stop offset="0" stop-color="#ffd444"/><stop offset=".111" stop-color="#fed141"/><stop offset=".224" stop-color="#f8c739"/><stop offset=".338" stop-color="#f0b52b"/><stop offset=".452" stop-color="#e49d1a"/><stop offset=".511" stop-color="#dd8e0f"/><stop offset=".534" stop-color="#df9112"/><stop offset=".987" stop-color="#ffd444"/></linearGradient><path fill="url(#f)" d="M330.942 63.38v-2.516l3.663-.415 3.043-20.01-4.3-.64v-2.47h11.467l5.197 15.45 1.35 4.484 1.122-4.488 4.83-15.45h11.49V39.8l-4.625.638 3.25 20.01 3.68.413v2.52h-12.52v-2.52l3.66-.412-1.85-13.16-.827-7.416-2.244 7.367-5.38 16.44H349l-5.88-16.44-2.61-7.004-.527 7.002-1.81 13.23 4.08.39v2.518z"/><linearGradient id="g" gradientUnits="userSpaceOnUse" x1="391.57" y1="36.901" x2="391.57" y2="64.64"><stop offset="0" stop-color="#ffd444"/><stop offset=".111" stop-color="#fed141"/><stop offset=".224" stop-color="#f8c739"/><stop offset=".338" stop-color="#f0b52b"/><stop offset=".452" stop-color="#e49d1a"/><stop offset=".511" stop-color="#dd8e0f"/><stop offset=".534" stop-color="#df9112"/><stop offset=".987" stop-color="#ffd444"/></linearGradient><path fill="url(#g)" d="M378.532 63.38h-5.357v-2.218l3.938-.688v-20.03l-3.73-.55v-2.562h13.21v2.563l-4.487.55v7.782c.214-.062.505-.117.87-.173.366-.05.774-.1 1.22-.15a38 38 0 0 1 1.402-.11c.477-.03.948-.05 1.406-.05 3.415 0 5.92.688 7.505 2.064 1.58 1.372 2.38 3.334 2.38 5.88 0 1.358-.23 2.555-.69 3.583a6.702 6.702 0 0 1-1.99 2.58c-.875.69-1.94 1.2-3.2 1.53-1.26.34-2.69.51-4.29.51-.426 0-1.015-.03-1.765-.08l-2.323-.17c-.8-.06-1.574-.12-2.324-.17-.748-.05-1.34-.08-1.786-.08m7.054-12.726a15.1 15.1 0 0 0-1.984.127 14.8 14.8 0 0 0-1.496.26v9.71c.215.045.43.09.654.14.22.042.48.085.785.122s.674.068 1.11.094c.434.02.955.03 1.565.03 1.74 0 3.055-.39 3.947-1.177s1.34-2.08 1.34-3.88c0-1.023-.13-1.88-.398-2.576-.266-.695-.656-1.25-1.16-1.67-.5-.42-1.117-.72-1.85-.903-.73-.183-1.57-.276-2.516-.276m12.886 12.72V60.87l3.092-.62V40.47l-3.32-.574v-2.563h11.47v2.563l-3.11.527v19.822l3.364.62v2.516h-11.49z"/><linearGradient id="h" gradientUnits="userSpaceOnUse" x1="202.155" y1="78.756" x2="202.155" y2="115.533"><stop offset="0" stop-color="#ffd444"/><stop offset=".111" stop-color="#fed141"/><stop offset=".224" stop-color="#f8c739"/><stop offset=".338" stop-color="#f0b52b"/><stop offset=".452" stop-color="#e49d1a"/><stop offset=".511" stop-color="#dd8e0f"/><stop offset=".534" stop-color="#df9112"/><stop offset=".987" stop-color="#ffd444"/></linearGradient><path fill="url(#h)" d="M195.977 114.168h-7.604v-2.517l4.856-.56V82.47l-4.81-.617v-2.52h25.52l.48 8.65h-3.39l-1.65-5.68-10.964-.225V93.59c.26-.062.6-.123 1.02-.185.42-.063.88-.118 1.385-.17a36.48 36.48 0 0 1 1.587-.138c.56-.04 1.115-.06 1.66-.06 1.897 0 3.577.236 5.052.7 1.467.466 2.71 1.132 3.717 2.003a8.448 8.448 0 0 1 2.3 3.205c.526 1.268.793 2.702.793 4.3 0 1.866-.306 3.496-.916 4.903-.614 1.4-1.463 2.58-2.553 3.526-1.09.94-2.394 1.66-3.912 2.138-1.516.483-3.186.72-5 .72-.278 0-.736-.02-1.375-.053-.64-.05-1.34-.09-2.096-.13a110.6 110.6 0 0 0-2.253-.13 38.327 38.327 0 0 0-1.856-.06m6.68-18.1c-.85 0-1.653.02-2.4.08-.746.05-1.36.13-1.83.24v15.02c.23.06.47.12.722.17.25.053.536.1.86.134a24.596 24.596 0 0 0 2.744.133c2.503 0 4.418-.69 5.744-2.08 1.33-1.395 1.997-3.43 1.997-6.114 0-1.298-.19-2.423-.564-3.377-.37-.957-.902-1.744-1.59-2.36-.685-.62-1.51-1.08-2.47-1.39-.963-.304-2.03-.453-3.21-.453"/><linearGradient id="i" gradientUnits="userSpaceOnUse" x1="235.051" y1="87.696" x2="235.051" y2="114.908"><stop offset="0" stop-color="#ffd444"/><stop offset=".111" stop-color="#fed141"/><stop offset=".224" stop-color="#f8c739"/><stop offset=".338" stop-color="#f0b52b"/><stop offset=".452" stop-color="#e49d1a"/><stop offset=".511" stop-color="#dd8e0f"/><stop offset=".534" stop-color="#df9112"/><stop offset=".987" stop-color="#ffd444"/></linearGradient><path fill="url(#i)" d="M220.078 114.168v-2.517l3.275-.41V91.23l-3.207-.662V88.12h11.77v2.473l-3.574.663v17.533l2.494-4.24 11.86-16.44h7.074v2.473l-3.043.662v20.01l3.296.41v2.49h-11.815v-2.49l3.505-.46V93.5l-2.358 4.164-11.902 16.504z"/><linearGradient id="j" gradientUnits="userSpaceOnUse" x1="265.462" y1="87.155" x2="265.462" y2="115.298"><stop offset="0" stop-color="#ffd444"/><stop offset=".111" stop-color="#fed141"/><stop offset=".224" stop-color="#f8c739"/><stop offset=".338" stop-color="#f0b52b"/><stop offset=".452" stop-color="#e49d1a"/><stop offset=".511" stop-color="#dd8e0f"/><stop offset=".534" stop-color="#df9112"/><stop offset=".987" stop-color="#ffd444"/></linearGradient><path fill="url(#j)" d="M254.647 112.798l.523-5.403h3.114l.85 3.046c.197.25.485.46.867.63s.81.32 1.28.44c.466.118.95.2 1.457.257.5.05.973.078 1.417.078 1.115 0 2.073-.12 2.87-.365.804-.243 1.464-.575 1.984-.996.52-.42.9-.92 1.14-1.498.25-.58.37-1.215.37-1.9 0-.718-.09-1.394-.262-2.025a3.687 3.687 0 0 0-.95-1.65c-.455-.464-1.08-.83-1.874-1.1-.79-.27-1.81-.4-3.04-.4-.03 0-.17.018-.416.048-.242.03-.51.063-.8.103-.29.04-.563.07-.814.1s-.4.057-.447.07l.045-3.09 1.44-.14c2.046-.24 3.545-.77 4.506-1.587.964-.817 1.445-1.874 1.445-3.172 0-.574-.07-1.1-.225-1.575a2.76 2.76 0 0 0-.8-1.228c-.384-.345-.898-.608-1.546-.8-.65-.19-1.468-.29-2.46-.29-.737 0-1.398.05-1.98.15a9.76 9.76 0 0 0-1.537.378 5.61 5.61 0 0 0-1.074.492c-.286.177-.484.348-.608.515l-.892 3.83h-3.112v-6.85c.793 0 1.527-.065 2.197-.19.67-.13 1.38-.28 2.13-.436a33.17 33.17 0 0 1 2.47-.44c.902-.13 1.977-.19 3.226-.19 3.117 0 5.496.533 7.145 1.61 1.65 1.076 2.473 2.613 2.473 4.61a4.95 4.95 0 0 1-.4 1.95 5.956 5.956 0 0 1-1.157 1.74 8.424 8.424 0 0 1-1.82 1.44c-.707.427-1.506.78-2.392 1.053 1.147.092 2.164.31 3.056.65.893.343 1.655.79 2.28 1.34a5.807 5.807 0 0 1 1.44 1.9c.333.716.513 1.503.526 2.355.02 1.267-.22 2.41-.696 3.433-.482 1.025-1.2 1.896-2.162 2.614-.963.72-2.165 1.27-3.606 1.66-1.443.39-3.117.58-5.025.58a30.75 30.75 0 0 1-6.22-.6c-.86-.18-1.616-.37-2.272-.567s-1.213-.39-1.653-.57"/><linearGradient id="k" gradientUnits="userSpaceOnUse" x1="294.728" y1="87.696" x2="294.728" y2="114.908"><stop offset="0" stop-color="#ffd444"/><stop offset=".111" stop-color="#fed141"/><stop offset=".224" stop-color="#f8c739"/><stop offset=".338" stop-color="#f0b52b"/><stop offset=".452" stop-color="#e49d1a"/><stop offset=".511" stop-color="#dd8e0f"/><stop offset=".534" stop-color="#df9112"/><stop offset=".987" stop-color="#ffd444"/></linearGradient><path fill="url(#k)" d="M280.03 114.168v-2.517l3.274-.38V91.23l-3.23-.637V88.12h11.93v2.473l-3.71.663v7.942h12.842V91.23l-3.706-.637V88.12h11.79v2.473l-3.067.663v19.98l3.273.415v2.52H297.29v-2.51l3.846-.385v-9.157h-12.84v9.158l3.87.387v2.52z"/><linearGradient id="l" gradientUnits="userSpaceOnUse" x1="324.572" y1="86.989" x2="324.572" y2="115.472"><stop offset="0" stop-color="#ffd444"/><stop offset=".111" stop-color="#fed141"/><stop offset=".224" stop-color="#f8c739"/><stop offset=".338" stop-color="#f0b52b"/><stop offset=".452" stop-color="#e49d1a"/><stop offset=".511" stop-color="#dd8e0f"/><stop offset=".534" stop-color="#df9112"/><stop offset=".987" stop-color="#ffd444"/></linearGradient><path fill="url(#l)" d="M325.47 114.698c-1.94 0-3.634-.338-5.094-1.01a10 10 0 0 1-3.65-2.817c-.976-1.2-1.71-2.64-2.193-4.31-.49-1.67-.734-3.5-.734-5.5 0-2.03.3-3.88.91-5.55.604-1.67 1.46-3.104 2.55-4.304a11.35 11.35 0 0 1 3.88-2.78c1.494-.656 3.13-.984 4.893-.984 2.89 0 5.125.78 6.71 2.35 1.59 1.56 2.45 3.88 2.586 6.946.02.99.006 1.857-.02 2.598a12.01 12.01 0 0 1-.23 1.958h-15.84v.14c.06 1.74.315 3.23.755 4.462.445 1.24 1.02 2.248 1.728 3.035.712.783 1.524 1.36 2.438 1.72s1.87.535 2.86.535c.66 0 1.32-.064 1.993-.184a16.97 16.97 0 0 0 1.937-.48c.618-.2 1.18-.43 1.69-.686.51-.26.94-.52 1.274-.78l.96 2.24c-.44.44-1.003.87-1.68 1.285-.678.407-1.437.773-2.267 1.083a17.39 17.39 0 0 1-2.646.754 14 14 0 0 1-2.81.287m-.57-24.516a5.63 5.63 0 0 0-2.13.4c-.655.267-1.23.72-1.73 1.36-.49.642-.898 1.496-1.215 2.565-.31 1.07-.504 2.41-.58 4.027h10.622c.035-.305.05-.624.06-.96.01-.34.01-.65.01-.94 0-.855-.087-1.674-.272-2.448a6.23 6.23 0 0 0-.867-2.064 4.408 4.408 0 0 0-1.545-1.42c-.635-.347-1.415-.523-2.345-.523"/><linearGradient id="m" gradientUnits="userSpaceOnUse" x1="349.461" y1="86.989" x2="349.461" y2="115.472"><stop offset="0" stop-color="#ffd444"/><stop offset=".111" stop-color="#fed141"/><stop offset=".224" stop-color="#f8c739"/><stop offset=".338" stop-color="#f0b52b"/><stop offset=".452" stop-color="#e49d1a"/><stop offset=".511" stop-color="#dd8e0f"/><stop offset=".534" stop-color="#df9112"/><stop offset=".987" stop-color="#ffd444"/></linearGradient><path fill="url(#m)" d="M339.204 101.534c0-1.908.304-3.715.896-5.416.592-1.698 1.46-3.195 2.597-4.484 1.137-1.29 2.53-2.31 4.18-3.067 1.648-.756 3.508-1.134 5.584-1.134.77 0 1.5.05 2.2.148.7.1 1.36.23 1.96.37a16.948 16.948 0 0 1 2.78.93l-.23 6.73h-3.082l-1.033-3.793a3.98 3.98 0 0 0-1.496-1.205c-.605-.282-1.34-.422-2.21-.422-.87 0-1.705.2-2.495.597-.798.392-1.5.992-2.118 1.795-.62.795-1.117 1.8-1.49 3-.377 1.193-.57 2.594-.585 4.196-.016 2.06.186 3.814.607 5.265.417 1.45.98 2.63 1.682 3.537.7.91 1.52 1.568 2.446 1.983a7.11 7.11 0 0 0 2.906.616c.72 0 1.395-.064 2.026-.184a11.496 11.496 0 0 0 1.753-.485 9.49 9.49 0 0 0 1.46-.675c.44-.248.83-.496 1.168-.744l1.01 2.2a8.993 8.993 0 0 1-1.533 1.247 12.56 12.56 0 0 1-2.05 1.087 15.51 15.51 0 0 1-2.39.78 11.42 11.42 0 0 1-2.567.3c-1.97 0-3.694-.343-5.185-1.02-1.485-.683-2.73-1.606-3.73-2.784-1-1.174-1.756-2.565-2.264-4.177-.515-1.61-.774-3.34-.793-5.185"/><linearGradient id="n" gradientUnits="userSpaceOnUse" x1="392.256" y1="78.46" x2="392.256" y2="115.166"><stop offset="0" stop-color="#ffd444"/><stop offset=".111" stop-color="#fed141"/><stop offset=".224" stop-color="#f8c739"/><stop offset=".338" stop-color="#f0b52b"/><stop offset=".452" stop-color="#e49d1a"/><stop offset=".511" stop-color="#dd8e0f"/><stop offset=".534" stop-color="#df9112"/><stop offset=".987" stop-color="#ffd444"/></linearGradient><path fill="url(#n)" d="M375.285 114.168l-.025-2.517 2.953-.63 11.604-31.98h5.2l11.304 32 2.94.62v2.517h-12.41v-2.516l3.73-.637-2.15-6.662H384.79l-2.153 6.664 3.87.64v2.517H375.29zm15.357-27.88l-4.898 15.153h11.722l-4.877-15.15-.97-3.71-.987 3.71z"/><linearGradient id="o" gradientUnits="userSpaceOnUse" x1="423.674" y1="87.267" x2="423.674" y2="115.365"><stop offset="0" stop-color="#ffd444"/><stop offset=".111" stop-color="#fed141"/><stop offset=".224" stop-color="#f8c739"/><stop offset=".338" stop-color="#f0b52b"/><stop offset=".452" stop-color="#e49d1a"/><stop offset=".511" stop-color="#dd8e0f"/><stop offset=".534" stop-color="#df9112"/><stop offset=".987" stop-color="#ffd444"/></linearGradient><path fill="url(#o)" d="M410.926 114.168v-2.517l3.272-.61V91.23l-3.23-.638V88.12h5.107c.47 0 1.017-.024 1.636-.068.62-.05 1.27-.093 1.95-.14.68-.046 1.37-.09 2.07-.133a28.4 28.4 0 0 1 2.02-.08c2.06 0 3.77.14 5.12.42 1.345.285 2.423.685 3.23 1.205.8.515 1.36 1.152 1.69 1.896.33.75.49 1.58.49 2.5a5.51 5.51 0 0 1-.365 1.977 6.56 6.56 0 0 1-1.03 1.766 7.487 7.487 0 0 1-1.604 1.45 9.72 9.72 0 0 1-2.105 1.08c1.115.093 2.12.322 3.01.69.895.364 1.656.822 2.295 1.37a5.932 5.932 0 0 1 1.45 1.85c.333.69.5 1.4.5 2.133 0 1.313-.235 2.5-.72 3.562-.477 1.056-1.227 1.96-2.23 2.695-1.004.742-2.293 1.31-3.854 1.703-1.567.4-3.433.596-5.595.596-.55 0-1.23-.02-2.04-.067a186.7 186.7 0 0 1-2.45-.148c-.82-.05-1.6-.104-2.332-.15a31.12 31.12 0 0 0-1.716-.07h-4.555zm8.193-14.99h4.09c1.16 0 2.11-.14 2.86-.426.743-.282 1.34-.663 1.77-1.144.435-.48.738-1.035.905-1.66a7.618 7.618 0 0 0 .254-1.97 3.93 3.93 0 0 0-.255-1.395c-.167-.44-.47-.824-.905-1.156-.432-.325-1.014-.586-1.745-.777-.74-.19-1.67-.285-2.797-.285-.78 0-1.52.02-2.22.067-.705.047-1.355.068-1.97.068v8.677zm0 11.97c.15.06.43.132.83.218.4.08.84.155 1.31.218.476.06.94.114 1.4.16.45.044.805.07 1.053.07 1.326 0 2.45-.113 3.365-.333.91-.22 1.654-.54 2.22-.96.562-.42.972-.93 1.22-1.54.254-.61.38-1.31.38-2.08 0-1.77-.52-3.073-1.57-3.903-1.04-.83-2.67-1.25-4.882-1.25h-5.338v9.41z"/><linearGradient id="p" gradientUnits="userSpaceOnUse" x1="455.742" y1="87.696" x2="455.742" y2="114.908"><stop offset="0" stop-color="#ffd444"/><stop offset=".111" stop-color="#fed141"/><stop offset=".224" stop-color="#f8c739"/><stop offset=".338" stop-color="#f0b52b"/><stop offset=".452" stop-color="#e49d1a"/><stop offset=".511" stop-color="#dd8e0f"/><stop offset=".534" stop-color="#df9112"/><stop offset=".987" stop-color="#ffd444"/></linearGradient><path fill="url(#p)" d="M440.772 114.168v-2.517l3.28-.41V91.23l-3.21-.662V88.12h11.767v2.473l-3.58.663v17.533l2.5-4.24 11.85-16.44h7.076v2.473l-3.043.662v20.01l3.292.41v2.49H458.9v-2.49l3.5-.46V93.5l-2.36 4.164-11.9 16.504z"/><linearGradient id="q" gradientUnits="userSpaceOnUse" x1="486.51" y1="87.152" x2="486.51" y2="115.468"><stop offset="0" stop-color="#ffd444"/><stop offset=".111" stop-color="#fed141"/><stop offset=".224" stop-color="#f8c739"/><stop offset=".338" stop-color="#f0b52b"/><stop offset=".452" stop-color="#e49d1a"/><stop offset=".511" stop-color="#dd8e0f"/><stop offset=".534" stop-color="#df9112"/><stop offset=".987" stop-color="#ffd444"/></linearGradient><path fill="url(#q)" d="M475.038 107.305c0-1.1.21-2.08.62-2.944.414-.86.978-1.62 1.697-2.27s1.562-1.21 2.528-1.67a17.88 17.88 0 0 1 3.136-1.122 26.228 26.228 0 0 1 3.5-.64 43.61 43.61 0 0 1 3.6-.253v-1.21c0-1.07-.076-1.973-.23-2.713-.156-.743-.417-1.345-.795-1.81-.37-.465-.867-.8-1.493-1.004-.63-.213-1.42-.315-2.386-.315-.824 0-1.643.078-2.467.23-.83.15-1.617.34-2.374.56-.755.225-1.45.457-2.08.714a20.9 20.9 0 0 0-1.593.697h-.02l-1.036-2.2c.294-.274.808-.62 1.54-1.05s1.6-.84 2.596-1.235c.997-.4 2.075-.74 3.228-1.03 1.154-.29 2.3-.436 3.447-.436 1.6 0 2.958.162 4.06.49 1.11.33 2.01.852 2.697 1.58.68.723 1.177 1.665 1.474 2.82.3 1.15.446 2.56.446 4.22v14.924h2.84v2.223c-.292.076-.64.16-1.042.26-.41.1-.83.194-1.27.274-.447.088-.894.16-1.353.218a9.606 9.606 0 0 1-2.415.037c-.31-.04-.57-.14-.762-.3-.205-.16-.354-.406-.446-.726-.107-.32-.157-.754-.157-1.305v-.846c-.196.183-.52.456-.97.813-.448.36-1.006.717-1.656 1.076-.657.36-1.407.67-2.25.94a8.88 8.88 0 0 1-2.696.4 10.57 10.57 0 0 1-3.014-.427 7.128 7.128 0 0 1-2.516-1.32c-.725-.594-1.31-1.36-1.74-2.3-.43-.936-.655-2.05-.655-3.35m9.89 3.89c.324 0 .708-.045 1.148-.125.45-.085.9-.206 1.38-.355a10.16 10.16 0 0 0 1.41-.575 8.88 8.88 0 0 0 1.27-.758v-8.423c-1.834 0-3.364.16-4.59.48s-2.21.744-2.94 1.27c-.73.53-1.25 1.126-1.56 1.8a5.042 5.042 0 0 0-.455 2.103c0 .84.114 1.55.33 2.13.224.58.527 1.05.918 1.42a3.45 3.45 0 0 0 1.38.79c.54.16 1.11.24 1.72.24"/><linearGradient id="r" gradientUnits="userSpaceOnUse" x1="516.682" y1="87.559" x2="516.682" y2="123.598"><stop offset="0" stop-color="#ffd444"/><stop offset=".111" stop-color="#fed141"/><stop offset=".224" stop-color="#f8c739"/><stop offset=".338" stop-color="#f0b52b"/><stop offset=".452" stop-color="#e49d1a"/><stop offset=".511" stop-color="#dd8e0f"/><stop offset=".534" stop-color="#df9112"/><stop offset=".987" stop-color="#ffd444"/></linearGradient><path fill="url(#r)" d="M526.916 122.618c-.02-.2-.043-.542-.08-1.032-.038-.49-.08-1.038-.13-1.648-.044-.61-.1-1.245-.155-1.908-.06-.663-.11-1.277-.17-1.835a44.872 44.872 0 0 0-.15-1.395c-.04-.375-.07-.582-.09-.632h-24.38v-2.47l3.28-.642V91.23l-3.21-.638V88.12h11.744v2.473l-3.545.64v19.917h11.06V91.23l-3.528-.638V88.12h11.608v2.473l-3.068.663v19.894h3.11l.024-.024h2.38c0 .047-.036.356-.104.93-.068.57-.148 1.276-.248 2.113a357 357 0 0 1-.334 2.72c-.118.974-.236 1.88-.33 2.72-.098.84-.19 1.54-.266 2.107-.074.56-.11.86-.11.893h-3.298z"/><linearGradient id="s" gradientUnits="userSpaceOnUse" x1="549.415" y1="87.696" x2="549.415" y2="114.908"><stop offset="0" stop-color="#ffd444"/><stop offset=".111" stop-color="#fed141"/><stop offset=".224" stop-color="#f8c739"/><stop offset=".338" stop-color="#f0b52b"/><stop offset=".452" stop-color="#e49d1a"/><stop offset=".511" stop-color="#dd8e0f"/><stop offset=".534" stop-color="#df9112"/><stop offset=".987" stop-color="#ffd444"/></linearGradient><path fill="url(#s)" d="M534.445 114.168v-2.517l3.273-.41V91.23l-3.204-.662V88.12h11.77v2.473l-3.577.663v17.533l2.497-4.24 11.856-16.43h7.078v2.47l-3.05.662v20.01l3.297.41v2.492h-11.812v-2.49l3.508-.46V93.5l-2.36 4.164-11.9 16.504z"/><linearGradient id="t" gradientUnits="userSpaceOnUse" x1="584.214" y1="87.696" x2="584.214" y2="114.908"><stop offset="0" stop-color="#ffd444"/><stop offset=".111" stop-color="#fed141"/><stop offset=".224" stop-color="#f8c739"/><stop offset=".338" stop-color="#f0b52b"/><stop offset=".452" stop-color="#e49d1a"/><stop offset=".511" stop-color="#dd8e0f"/><stop offset=".534" stop-color="#df9112"/><stop offset=".987" stop-color="#ffd444"/></linearGradient><path fill="url(#t)" d="M569.244 114.168v-2.517l3.273-.41V91.23l-3.204-.662V88.12h11.762v2.473l-3.57.663v17.533l2.498-4.24 11.855-16.44h7.072v2.473l-3.043.662v20.01l3.297.41v2.49H587.37v-2.49l3.503-.46V93.5l-2.355 4.164-11.906 16.504z"/><path fill="#FFD444" d="M199.242 155.06c-.41-1.055-.843-2.257-1.308-3.605a60.212 60.212 0 0 1-1.258-4.223 63.63 63.63 0 0 1-1.252 4.223 83.3 83.3 0 0 1-1.292 3.604h-1.776a56.444 56.444 0 0 1-1.974-5.15 91.372 91.372 0 0 1-1.82-6.26h2.19c.147.69.323 1.432.528 2.24.205.8.42 1.61.648 2.41.23.804.464 1.58.712 2.32.248.75.483 1.4.7 1.953a56.07 56.07 0 0 0 .738-2.185c.242-.765.47-1.537.688-2.324.22-.777.427-1.55.625-2.3.2-.75.37-1.455.52-2.118h1.69c.13.66.298 1.364.48 2.12a86.756 86.756 0 0 0 1.31 4.62 52.5 52.5 0 0 0 .736 2.186c.22-.553.45-1.203.69-1.953.24-.743.478-1.515.713-2.32a68.942 68.942 0 0 0 1.184-4.65h2.105A88.093 88.093 0 0 1 203 149.9c-.644 1.924-1.3 3.64-1.973 5.15h-1.773zm18.506 0c-.41-1.055-.843-2.257-1.308-3.605a61.865 61.865 0 0 1-1.258-4.223 61.318 61.318 0 0 1-1.252 4.223 82.15 82.15 0 0 1-1.29 3.604h-1.778a56.428 56.428 0 0 1-1.97-5.15 89.657 89.657 0 0 1-1.823-6.26h2.19c.14.69.32 1.432.52 2.24.21.8.42 1.61.644 2.41.23.804.465 1.58.713 2.32.25.75.483 1.4.7 1.953a56.07 56.07 0 0 0 .74-2.185c.24-.765.47-1.537.69-2.324.22-.777.425-1.55.623-2.3.2-.75.373-1.455.516-2.118h1.69c.133.66.294 1.364.48 2.12a91.01 91.01 0 0 0 1.31 4.62c.24.77.48 1.497.735 2.185.22-.553.448-1.203.69-1.953a77.988 77.988 0 0 0 1.37-4.73c.206-.807.38-1.554.528-2.24h2.11a90.206 90.206 0 0 1-1.824 6.252c-.645 1.924-1.3 3.64-1.974 5.15h-1.775zm18.505 0a95.454 95.454 0 0 1-1.304-3.605 63.01 63.01 0 0 1-1.27-4.223 63.053 63.053 0 0 1-1.247 4.223 91.87 91.87 0 0 1-1.295 3.604h-1.78a59.2 59.2 0 0 1-1.97-5.15 89.657 89.657 0 0 1-1.82-6.26h2.193c.146.69.32 1.432.526 2.24.203.8.42 1.61.643 2.41.23.804.465 1.58.713 2.32.25.75.485 1.4.7 1.953a52.9 52.9 0 0 0 .74-2.185c.243-.765.47-1.537.69-2.324.22-.777.43-1.55.625-2.3.2-.75.37-1.455.515-2.118h1.69c.13.66.29 1.364.48 2.12.19.75.398 1.52.618 2.296a64.204 64.204 0 0 0 1.42 4.51c.22-.555.45-1.205.693-1.955a77.988 77.988 0 0 0 1.37-4.73c.205-.807.384-1.554.527-2.24h2.106a90.206 90.206 0 0 1-1.82 6.252 57.145 57.145 0 0 1-1.97 5.15h-1.78zm10.527-1.186a1.5 1.5 0 0 1-.395 1.032c-.267.29-.623.437-1.078.437-.453 0-.806-.146-1.072-.437a1.51 1.51 0 0 1-.396-1.032c0-.396.13-.737.39-1.028.263-.29.62-.44 1.07-.44.453 0 .81.15 1.08.44.26.29.39.632.39 1.028m6.12-9.714c.25-.158.623-.325 1.13-.505.503-.174 1.085-.26 1.742-.26.818 0 1.546.142 2.182.44a4.5 4.5 0 0 1 1.61 1.226c.44.53.774 1.16 1 1.89.227.73.34 1.538.34 2.41 0 .93-.137 1.76-.407 2.49s-.654 1.37-1.15 1.88a5.06 5.06 0 0 1-1.797 1.18c-.705.284-1.492.424-2.37.424-.95 0-1.79-.07-2.52-.2a21.067 21.067 0 0 1-1.795-.395V138.4l2.04-.35v6.114zm0 9.122c.205.06.493.115.865.165.376.05.837.077 1.396.077 1.098 0 1.97-.362 2.63-1.088.66-.72.99-1.747.99-3.08a7.29 7.29 0 0 0-.177-1.643 3.722 3.722 0 0 0-.57-1.326 2.834 2.834 0 0 0-1.02-.88c-.417-.207-.92-.315-1.5-.315-.56 0-1.07.093-1.54.285-.466.19-.825.39-1.073.592v7.21zm51.157-9.627a56.9 56.9 0 0 1-2.008 6.142 99.983 99.983 0 0 1-2.227 5.262h-1.84a92.935 92.935 0 0 1-2.227-5.27 56.9 56.9 0 0 1-2.008-6.14h2.192c.172.72.38 1.48.62 2.29.244.812.5 1.617.77 2.41.27.8.543 1.57.822 2.315.28.746.54 1.41.79 1.99a51.23 51.23 0 0 0 .79-1.99c.28-.743.55-1.515.82-2.314.267-.792.52-1.6.766-2.41.24-.812.45-1.573.623-2.292h2.107zm12.735 13.532a4 4 0 0 0 .626.208c.256.065.51.1.755.1.805 0 1.43-.18 1.89-.536.452-.36.86-.95 1.227-1.75-.924-1.76-1.778-3.61-2.578-5.58s-1.457-3.96-1.984-5.98h2.19c.163.653.358 1.37.58 2.13a57.78 57.78 0 0 0 1.656 4.752c.323.806.658 1.58 1.01 2.327a59.16 59.16 0 0 0 1.45-4.56c.408-1.51.798-3.056 1.16-4.65h2.107c-.525 2.15-1.11 4.216-1.753 6.196s-1.337 3.832-2.08 5.56a11.56 11.56 0 0 1-.91 1.696 5.138 5.138 0 0 1-1.04 1.174c-.386.305-.81.53-1.285.68a5.495 5.495 0 0 1-2.116.186 5.368 5.368 0 0 1-.975-.21 2.777 2.777 0 0 1-.296-.11l.37-1.644zm33.268-7.805c0-1.01.145-1.89.44-2.64.29-.757.677-1.383 1.16-1.88a4.818 4.818 0 0 1 1.668-1.12 5.26 5.26 0 0 1 1.93-.372c1.534 0 2.71.48 3.53 1.438.82.958 1.23 2.417 1.23 4.375v.342c0 .136-.01.266-.025.384h-7.806c.09 1.18.432 2.08 1.03 2.69.6.61 1.537.92 2.81.92.714 0 1.32-.067 1.81-.19.49-.12.852-.24 1.1-.36l.294 1.71c-.25.132-.685.27-1.305.414a9.14 9.14 0 0 1-2.113.224c-.997 0-1.853-.155-2.577-.453-.726-.297-1.32-.713-1.785-1.24a4.987 4.987 0 0 1-1.043-1.874c-.228-.724-.34-1.517-.34-2.38m7.828-1.12c.013-.92-.217-1.673-.69-2.27-.475-.59-1.132-.884-1.962-.884-.47 0-.882.092-1.24.27a2.988 2.988 0 0 0-.91.714c-.246.292-.444.63-.58 1.01a5 5 0 0 0-.27 1.163h5.66zm6.158-4.273a27.58 27.58 0 0 1 1.854-.373c.77-.132 1.655-.196 2.665-.196.735 0 1.35.097 1.845.295.5.2.91.49 1.252.87.1-.077.26-.176.48-.31.22-.13.49-.26.81-.38a7.86 7.86 0 0 1 1.074-.33 5.362 5.362 0 0 1 1.272-.145c.877 0 1.593.13 2.15.38.552.26.988.62 1.302 1.09.315.47.526 1.02.638 1.668.112.64.165 1.344.165 2.103v6.403h-2.04v-5.963c0-.676-.03-1.252-.1-1.732s-.186-.886-.373-1.204a1.67 1.67 0 0 0-.743-.714c-.316-.157-.72-.23-1.215-.23-.69 0-1.257.09-1.7.27-.45.18-.75.347-.91.49.114.38.2.798.26 1.25.053.45.084.93.084 1.426v6.403h-2.04v-5.965c0-.673-.036-1.25-.107-1.73s-.204-.886-.384-1.204a1.714 1.714 0 0 0-.75-.713c-.312-.154-.712-.23-1.192-.23-.2 0-.424.01-.66.02-.23.017-.454.03-.67.057-.21.02-.4.05-.58.074-.175.03-.29.06-.35.07v9.625h-2.037v-11.08zm33.26 9.887c0 .396-.13.74-.394 1.033-.26.29-.62.44-1.073.44-.452 0-.812-.145-1.07-.436a1.505 1.505 0 0 1-.398-1.03c0-.396.136-.737.396-1.028.26-.29.62-.44 1.07-.44.454 0 .814.15 1.073.44.265.29.395.632.395 1.028"/><linearGradient id="u" gradientUnits="userSpaceOnUse" x1="82.831" y1="26.016" x2="82.831" y2="150.503"><stop offset="0" stop-color="#ffd444"/><stop offset=".511" stop-color="#dd8e0f"/><stop offset=".618" stop-color="#df9112"/><stop offset=".722" stop-color="#e39b19"/><stop offset=".824" stop-color="#ebac24"/><stop offset=".923" stop-color="#f6c235"/><stop offset=".987" stop-color="#ffd444"/></linearGradient><path fill="url(#u)" d="M126.08 102.096c-1.823-3.743-4.147-7.06-6.98-9.95a44 44 0 0 0-9.39-7.297c-3.425-1.98-6.793-3.57-10.11-4.74a68.38 68.38 0 0 0 6.338-5.46 38.482 38.482 0 0 0 5.218-6.26 29.477 29.477 0 0 0 3.526-7.38c.858-2.677 1.286-5.67 1.286-8.99 0-2.14-.428-4.6-1.286-7.38-.855-2.78-2.51-5.4-4.973-7.867-2.47-2.46-5.91-4.54-10.35-6.253-4.45-1.714-10.3-2.572-17.58-2.572-2.786 0-5.75.08-8.91.242-3.154.16-6.715.24-10.672.24-.855 0-2.06-.024-3.606-.08-1.556-.056-3.32-.105-5.3-.16-1.98-.057-4.09-.106-6.34-.162-2.243-.05-4.44-.08-6.578-.08-2.353 0-3.53.484-3.53 1.445 0 .968.91 1.448 2.727 1.448 1.18 0 2.357.03 3.535.08 1.174.055 2.082.19 2.727.4 2.67.538 4.44 1.5 5.297 2.89.86 1.395 1.39 3.48 1.605 6.26a96.12 96.12 0 0 1 .24 4.09c.05 1.446.08 3.4.08 5.86v52.32c0 7.38-.03 14.066-.082 20.054-.05 6-.293 10.702-.72 14.124-.264 1.95-.623 3.64-1.076 5.074 1.22-1.51 2.384-3.604 3.92-8.935.273-.298 1.738-5.206 2.21-7.23 1.06-4.52 2.25-8.994 4.26-13.25-.943.054-1.928.305-2.598-.66 3.204-2.134 4.82-3.87 5.082-5.492-.75.014-1.497.08-2.23.02-.726-.06-1.433-.25-2.15-.38.802-.574 1.592-.955 2.33-1.42.74-.46 1.43-1.007 2.144-1.516-3.044.07-4.476-.493-5.02-1.314 3.352-.966 4.89-1.846 7.337-4.2.688-.66 1.4-1.293 2.058-1.986 3.274-3.453 7.206-5.814 11.857-6.77 5.6-1.15 11.22-1.065 16.78.436 2.15.583 3.92 1.705 5.034 3.68.32.572.747.814 1.32.994 3.14.985 6.28 1.99 9.414 3.005 2.458.793 4.5 2.082 5.553 4.592a9.655 9.655 0 0 1 .71 5.04c-.25 2.075-.993 3.98-2.012 5.942-.062-.37-.118-.597-.136-.82-.14-1.83-1.004-3.137-2.7-3.905-4.266-1.934-2.35-.97-.538-.24-.352.1-6.057 1.306-6.28 1.38-2.56.893-5.132 1.754-7.67 2.702-.876.33-1.76.81-2.072 1.827-.25.843-.55 1.686-.672 2.554-.465 3.33.242 6.57.96 9.784.66 2.964 2.073 5.656 3.325 8.398 1.405 3.08 2.583 6.218 2.794 9.646.063 1.07.035 2.132-.21 3.247.39-.133.77-.27 1.156-.412 5.4-2.026 9.843-4.7 13.32-8.02 3.476-3.314 6.07-7.06 7.783-11.234 1.71-4.17 2.565-8.396 2.565-12.673 0-4.714-.91-8.937-2.73-12.683M92.54 76.42a11.365 11.365 0 0 1-4.813 2.41c-1.82.425-4.07.64-6.74.64-3.638 0-6.154-.162-7.542-.484a1.98 1.98 0 0 1-.806-.477c-.22-.22-.32-.65-.32-1.29V37.58c0-1.5.47-2.407 1.44-2.727a9.766 9.766 0 0 1 2.403-.32h2.89c3.42 0 6.39.8 8.903 2.402a21.774 21.774 0 0 1 6.26 6.017c1.66 2.41 2.887 5.087 3.693 8.027.8 2.945 1.202 5.753 1.202 8.427 0 7.816-2.195 13.48-6.58 17.01"/><linearGradient id="v" gradientUnits="userSpaceOnUse" y1="80.936" x2="161.872" y2="80.936"><stop offset="0" stop-color="#dd8e0f"/><stop offset=".545" stop-color="#ffd444"/><stop offset=".987" stop-color="#dd9110"/></linearGradient><path fill="url(#v)" d="M80.938 161.872c-21.62 0-41.944-8.42-57.23-23.7C8.423 122.88 0 102.552 0 80.937c0-21.62 8.422-41.943 23.708-57.232C38.994 8.42 59.318 0 80.938 0c21.62 0 41.944 8.42 57.23 23.705 15.29 15.29 23.705 35.613 23.705 57.232 0 21.616-8.416 41.944-23.705 57.233-15.287 15.283-35.61 23.702-57.23 23.702m0-155.136c-19.82 0-38.455 7.716-52.467 21.734C14.46 42.483 6.74 61.118 6.74 80.938s7.72 38.452 21.734 52.467c14.013 14.013 32.65 21.734 52.468 21.734 19.82 0 38.455-7.73 52.467-21.74 14.01-14.02 21.73-32.65 21.73-52.47s-7.72-38.455-21.737-52.468c-14.012-14.016-32.65-21.73-52.467-21.73"/><path fill="#FFD444" d="M265.876 141.595c-.366 0-.675-.12-.933-.36-.257-.24-.38-.566-.38-.976s.123-.74.38-.98.567-.36.933-.36.675.12.93.36c.26.24.384.57.384.98s-.124.73-.384.97c-.254.24-.564.36-.93.36m1.03 13.46h-2.037v-11.4h2.03v11.403zm12.17-9.865c-.306.34-.712.812-1.217 1.425a94.402 94.402 0 0 0-1.63 2.04c-.58.747-1.157 1.53-1.736 2.35a33.53 33.53 0 0 0-1.52 2.343h6.27v1.71h-8.7V153.7c.345-.644.78-1.353 1.29-2.125.51-.777 1.05-1.55 1.61-2.314s1.11-1.49 1.647-2.17c.53-.68.997-1.25 1.39-1.72h-5.636v-1.71h8.226v1.537zm7.544-1.82c.817 0 1.51.106 2.07.32.563.21 1.016.51 1.362.896.34.39.59.847.73 1.383.15.53.224 1.12.224 1.765v7.124c-.177.03-.42.076-.737.125-.32.05-.67.1-1.07.142-.397.04-.82.08-1.28.115a16.8 16.8 0 0 1-1.38.055 7.21 7.21 0 0 1-1.772-.197c-.54-.13-1.01-.34-1.403-.624s-.704-.664-.92-1.13c-.22-.47-.33-1.03-.33-1.688 0-.63.125-1.17.385-1.625a3 3 0 0 1 1.04-1.097c.437-.28.95-.48 1.53-.614a8.508 8.508 0 0 1 1.848-.2c.2 0 .417.014.63.035.226.023.43.054.63.088s.37.073.515.105c.15.025.25.05.31.063v-.57c0-.333-.037-.67-.11-.996-.076-.33-.206-.62-.395-.88s-.45-.46-.78-.61c-.324-.154-.75-.234-1.28-.234a9.78 9.78 0 0 0-1.765.143c-.506.1-.88.193-1.13.295l-.24-1.688c.263-.115.7-.23 1.313-.34.614-.113 1.28-.17 1.996-.17m.172 10.22c.482 0 .91-.01 1.282-.03a5.94 5.94 0 0 0 .935-.12v-3.4c-.147-.074-.382-.136-.71-.186a7.74 7.74 0 0 0-1.196-.076c-.31 0-.63.02-.975.064a3.2 3.2 0 0 0-.943.274 2.11 2.11 0 0 0-.712.57c-.19.24-.285.56-.285.954 0 .73.237 1.24.71 1.523.46.286 1.1.43 1.9.43m23.117-.008c.834 0 1.45-.112 1.856-.33.4-.216.6-.57.6-1.053 0-.496-.192-.89-.59-1.185-.39-.29-1.04-.62-1.952-.985a30.678 30.678 0 0 1-1.255-.54 4.23 4.23 0 0 1-1.04-.646 2.732 2.732 0 0 1-.705-.896c-.178-.354-.265-.78-.265-1.295 0-1.01.37-1.81 1.12-2.394.746-.597 1.763-.894 3.052-.894.317 0 .64.02.96.058s.62.08.9.134c.278.053.523.108.734.165.215.06.38.11.49.153l-.37 1.75c-.22-.113-.562-.234-1.03-.36-.47-.125-1.025-.185-1.683-.185-.575 0-1.074.115-1.5.338-.423.23-.634.585-.634 1.068 0 .25.05.468.147.66.094.19.24.36.44.514.195.153.44.296.73.426s.643.27 1.05.414a22.25 22.25 0 0 1 1.45.603 4.71 4.71 0 0 1 1.087.693c.296.265.528.58.687.956.16.372.245.83.245 1.37 0 1.053-.397 1.847-1.178 2.392-.784.54-1.896.812-3.344.812-1.007 0-1.8-.087-2.367-.255a11.978 11.978 0 0 1-1.162-.384l.372-1.752c.233.088.605.22 1.12.397.51.174 1.19.26 2.04.26m22.87-.003c.83 0 1.45-.113 1.856-.33.403-.217.602-.57.602-1.054 0-.495-.2-.89-.593-1.184-.394-.29-1.045-.62-1.95-.986a29.35 29.35 0 0 1-1.264-.54 4.23 4.23 0 0 1-1.04-.644 2.777 2.777 0 0 1-.7-.897c-.175-.354-.265-.78-.265-1.295 0-1.01.378-1.81 1.12-2.395.745-.595 1.762-.892 3.045-.892.325 0 .647.02.967.06a12.082 12.082 0 0 1 1.634.295c.21.06.375.11.49.157l-.372 1.75c-.217-.112-.562-.233-1.03-.36-.467-.124-1.027-.184-1.69-.184-.564 0-1.066.116-1.487.34-.424.23-.635.584-.635 1.067 0 .25.047.465.143.657.096.19.24.363.437.515.2.152.44.295.74.425.29.13.64.27 1.05.414a22.4 22.4 0 0 1 1.448.602c.428.197.787.433 1.085.693.3.263.528.58.696.954.157.372.238.83.238 1.37 0 1.053-.39 1.847-1.17 2.392-.782.54-1.9.813-3.342.813-1.01 0-1.797-.09-2.37-.257-.566-.167-.957-.297-1.162-.384l.372-1.754c.235.087.607.22 1.122.396.506.175 1.19.26 2.04.26m10.123-9.94h4.32v1.71h-4.32v5.265c0 .577.04 1.045.13 1.417.09.377.22.668.395.88.18.21.4.36.66.45.266.088.57.13.923.13.616 0 1.107-.066 1.484-.206.37-.14.63-.24.774-.3l.396 1.69c-.205.105-.564.23-1.073.384a6.183 6.183 0 0 1-1.752.23c-.773 0-1.415-.1-1.92-.3-.502-.2-.91-.49-1.215-.89-.31-.39-.526-.877-.65-1.456a9.828 9.828 0 0 1-.183-2.006v-10.18l2.04-.352v3.53zm43.764 9.938c.84 0 1.45-.11 1.855-.33s.604-.57.604-1.052c0-.494-.2-.89-.595-1.183-.394-.29-1.046-.62-1.95-.984a28.523 28.523 0 0 1-1.26-.54 4.248 4.248 0 0 1-1.04-.645 2.794 2.794 0 0 1-.706-.896c-.177-.356-.26-.78-.26-1.297 0-1.01.37-1.81 1.115-2.394.747-.598 1.76-.895 3.047-.895.325 0 .648.02.97.058s.62.08.898.132c.276.052.52.107.73.164.22.06.38.11.5.153l-.37 1.75c-.223-.113-.563-.234-1.034-.36-.466-.125-1.03-.185-1.687-.185-.57 0-1.07.113-1.49.336-.428.23-.64.586-.64 1.07 0 .25.048.465.144.657.092.19.24.363.44.515.194.155.44.298.73.428.294.13.645.27 1.053.413.54.208 1.023.41 1.445.605.43.2.788.436 1.09.696.3.262.528.58.69.953.16.37.24.83.24 1.37 0 1.052-.39 1.846-1.17 2.39-.78.54-1.896.814-3.346.814-1.003 0-1.796-.088-2.366-.256-.57-.167-.953-.297-1.16-.384l.375-1.752c.23.09.606.22 1.118.398.517.173 1.195.26 2.04.26m18.925-10.177a8.893 8.893 0 0 1 1.27.12c.218.035.416.075.602.11s.313.07.4.097l-.348 1.78a6.935 6.935 0 0 0-.8-.21c-.37-.08-.856-.12-1.44-.12-.377 0-.755.04-1.127.12-.374.08-.62.138-.74.166v9.58h-2.04v-10.92a13.93 13.93 0 0 1 1.8-.493 11.77 11.77 0 0 1 2.415-.228m14.43 11.313c-.47.117-1.09.24-1.854.37-.77.138-1.66.2-2.67.2-.874 0-1.61-.13-2.213-.385a3.616 3.616 0 0 1-1.442-1.084 4.5 4.5 0 0 1-.79-1.653 8.614 8.614 0 0 1-.245-2.116v-6.406h2.046v5.97c0 1.39.22 2.38.66 2.98.44.603 1.17.9 2.21.9.217 0 .446-.007.68-.025.23-.01.454-.03.66-.056.203-.02.39-.04.56-.06a1.58 1.58 0 0 0 .356-.08v-9.626h2.046v11.074z"/><path fill="#DD9110" d="M288.356 102.108v-2.91h-.06v-7.942l.06-.01v-.015h-5.052v22.94h5.052v-2.89l-.06-.005v-9.157zm17.654 9.157v-9.157h.06v-2.91h-.06v-7.942l.06-.01v-.015h-4.934v7.97h-.118v2.91h.118v9.16l-.118.01v2.898h5.052v-2.896zm204.28 0v-.116h-.27V91.23h-4.72v22.938h5.052v-2.897zm15.694 0v-9.157h.06v-2.91h-.06v-7.942l.06-.01v-.015h-4.933v7.97h-.03v2.91h.04v9.16l-.12.01v2.898h5.054v-2.896zm-131.618-29.75h-4.45l-10.313 32.653h3.676l.77-2.92-1.43-.234 2.152-6.662h1.09l.77-2.91h-.9l4.9-15.153.984-3.71 4.84 15.75 1 3.102h-.048l.892 2.91h.112l2.15 6.663-.208.035.956 3.118h4.632zm54.394 9.715h-4.65v22.938h4.65zm13.768.004h4.47v22.937h-4.47zm80.092-.004h-4.65v22.938h4.65zm13.77.004h4.47v22.937h-4.47zm21.03-.004h-4.65v22.938h4.65zm13.768.004h4.47v22.937h-4.47z"/><path fill="#FFD444" d="M47.874 9.46S8.598 33.747 1.86 67.938c0 0 3.868-34.867 33.066-52.963L47.874 9.46zm25.11 22.642s25.864-.85 29.87 4.026 1.4 0 1.4 0-1.393-4.325-25.143-5.413-6.12 1.387-6.12 1.387z"/><path fill="#FFF" d="M6.062 56.614c4.824-17.593 23.575-45.82 45.655-45.987 0 0-14.11 4.648-26.397 18.76C13.96 42.437 6.062 56.614 6.062 56.614zm48.312 41.67l-2.656-61.26s4.98-2.656 5.147 19.59S58.69 91.48 54.29 98.95m-1.41-68.235h28.39s-7.306 1.66-15.44 1.992-12.95-1.992-12.95-1.992zm39.678 8.135c6.973 1.66 13.78 10.092 8.3 25.134 0 0 .12-7.37-1.472-14.84-1.192-5.592-6.828-10.294-6.828-10.294z"/><path fill="#6A3C0F" d="M147.843 42.336s11.62 21.25 11.123 31.876-4.482 21.084-4.482 21.084 2.158-9.63 1.328-21.417-5.977-26.73-7.97-31.55zm-44.99-7.304s11.55 8.226 11.12 17.598-11.12 19.424-11.12 19.424 5.99-11.456 5.567-18.51-3.568-15.062-5.566-18.512zM55.09 40.434s4.762-.09 4.596 1.902 0 42.003 0 42.003-.607 5.14-2.38 6.47-1.764-49.22-2.215-50.38zm66.853 62.666s5.48 12.616 3.653 18.428-13.512 19.425-13.512 19.425 7.037-11.122 9.195-18.926.16-13.15.66-18.927z"/><path fill="#FFD444" d="M71.81 78.586v3.956s12.288 1.71 16.643 0 10.647-6.93 10.11-16.905c0 0-4.513 12.05-10.734 13.01s-16.02-.06-16.02-.06zm27.576 5.2l3.47-2.28s23.27 7.93 25.122 29.45c0 0-3.97-20.637-28.592-27.17zm14.6-74.326S153.262 33.747 160 67.938c0 0-3.868-34.867-33.066-52.963L113.986 9.46zm41.392 78.637s-1.568 22.646-15.08 36.485l2.51 1.88c.002 0 12.966-17.38 12.57-38.365zM6.762 92.337s3.6 33.46 28.432 50.125c7.067 4.743 12 3.333 12 3.333s-30.53-10.75-40.432-53.46z"/><path fill="#FFF" d="M115.303 147.196s9.83-1.57 20.752-11.06 12.95-21.526 12.95-21.526-6.895 10.52-14.61 17.875c-10.625 10.127-19.092 14.71-19.092 14.71z"/><path fill="#FFD444" d="M96.964 118.236s0-3.862 1.26-5.535c1.152-1.52 8.367-3.52 9.307-3.73s6.29-1.38 6.29-1.38 3.45.94 3.376 4.96c0 0-4.182-2.76-7.345-1.3s-8.814 1.43-12.88 6.995z"/><path fill="#FFF" d="M111.152 111.068c-2.77-.557-8.52.294-10.792 3.542-4.295 6.138 5.86 18.87 5.86 18.87s-4.207-10.455-1.71-16.103c1.225-2.767 5.818-6.422 6.642-6.31z"/><path d="M262.042 63.222c-1.185-1.917-1.938-4.764-1.938-7.95 0-.69.038-1.365.105-2.018-.26-1.238-.39-2.657-.37-4.27.02-1.603.21-3.003.59-4.202.32-1.04.74-1.925 1.25-2.668-3.8 2.154-6.4 6.46-6.4 11.43 0 1.534.26 3 .713 4.366a11.38 11.38 0 0 0 1.446 2.198c1 1.178 2.243 2.1 3.73 2.782.277.127.57.23.864.332zm9.223-18.406h3.09l.05-1.514a11.486 11.486 0 0 0-4.152-2.21l1.012 3.724zm160.912 55.872c-.893-.365-1.896-.595-3.012-.688a9.72 9.72 0 0 0 2.106-1.078 7.543 7.543 0 0 0 1.61-1.45 6.52 6.52 0 0 0 .698-1.068 12.897 12.897 0 0 0-4.74-3.55c.11.362.18.735.18 1.125 0 .68-.087 1.34-.254 1.96a3.98 3.98 0 0 1-.905 1.66c-.434.48-1.028.86-1.77 1.143l-.046.014c.526.86.974 1.87 1.3 3.013 1.075-1.074 3.68-1.1 6.294.04.43.187.83.4 1.208.626-.124-.128-.23-.264-.367-.385a8.418 8.418 0 0 0-2.293-1.37zm-1.035 6.846c-.097-.042-.184-.093-.278-.137-.044.57-.14 1.105-.335 1.58a3.634 3.634 0 0 1-1.23 1.544c-.538.4-1.24.71-2.094.93-.38 1.2-.89 2.26-1.496 3.11 1.455-.08 2.758-.26 3.898-.55 1.562-.39 2.85-.96 3.854-1.7a7.087 7.087 0 0 0 1.685-1.74 12.85 12.85 0 0 0 .93-2.31c-1.3.3-3.116.08-4.94-.716zm-13.945 6.702l.884.057c-1.26-1.916-2.06-4.735-2.06-7.888 0-3.95 1.26-7.387 3.1-9.163V92.63a12.92 12.92 0 0 0-4.92 3.342v15.063l-1.53.29a12.958 12.958 0 0 0 2.327 2.843h.494c.41 0 .98.024 1.717.068zm-202.7-58.96c0 2.514-.346 4.883-.944 6.992.383-.084.77-.148 1.17-.17l1.123-6.75-1.354-.21c0 .046.004.09.004.137zm-18.017 0c0-.134.01-.26.01-.395a18.924 18.924 0 0 1-1.16-3.76 30.093 30.093 0 0 1-.57-5.86c0-2.32.243-4.37.72-6.145.168-.62.368-1.192.582-1.743a19.42 19.42 0 0 0-7.2 12.275c.178 1.266.448 2.47.817 3.605.71 2.21 1.76 4.11 3.13 5.69 1.27 1.46 2.822 2.602 4.64 3.456-.62-2.14-.98-4.55-.98-7.113zm15.358-17.578h3.32l.157-3.093a19.31 19.31 0 0 0-4.556-1.2l1.07 4.293zm99.272 23.476a10.137 10.137 0 0 0 2.606 1.726c.66.304 1.376.53 2.135.696-1.72-1.765-2.89-5.223-2.89-9.203 0-.21.01-.414.02-.62a16.78 16.78 0 0 1-.384-3.14v-.138h.768c.213-1 .5-1.93.858-2.748H312.6c.074-1.62.267-2.96.583-4.028.267-.92.608-1.67 1.01-2.28-3.604 2.214-6.04 6.403-6.04 11.22 0 3.26 1.13 6.24 2.975 8.51zm13.16 1.692c.83-.31 1.588-.676 2.267-1.085.68-.41 1.24-.84 1.68-1.28l-.96-2.24a7.86 7.86 0 0 1-1.272.78c-.508.26-1.075.488-1.69.687-.39.126-.794.23-1.204.326-.53 1.568-1.28 2.844-2.16 3.686.238-.035.47-.06.7-.106a17.71 17.71 0 0 0 2.648-.757zm4.405-16.926a15.25 15.25 0 0 0-.313-2.49c-2.092-2.22-4.936-3.603-8.078-3.67.102.044.206.084.3.137a4.42 4.42 0 0 1 1.547 1.42 6.21 6.21 0 0 1 .87 2.06c.19.778.28 1.597.28 2.452 0 .29 0 .6-.01.93a12.5 12.5 0 0 1-.06.96h-.49c.356.82.645 1.746.857 2.747h4.855c.12-.567.2-1.22.23-1.958a40.1 40.1 0 0 0 .02-2.6zM391.9 63.105a8.286 8.286 0 0 0 2.317-1.255 6.71 6.71 0 0 0 1.99-2.578c.458-1.028.68-2.225.68-3.582 0-.13-.01-.253-.015-.38-2.013-2.347-4.816-3.874-7.956-4.087.383.167.737.36 1.037.613.502.418.893.973 1.16 1.67.266.694.395 1.553.395 2.575 0 1.28-.236 2.29-.688 3.06.502 1.14.87 2.49 1.08 3.97zm89.93 47.06c-.39-.366-.694-.837-.917-1.42-.217-.58-.33-1.29-.33-2.13 0-.674.134-1.318.39-1.94-2.32.85-4.313 2.455-5.742 4.544.11.51.27.99.47 1.43.44.94 1.02 1.702 1.74 2.3a7.112 7.112 0 0 0 2.52 1.314c.435.13.88.22 1.337.29.328-1.475.83-2.77 1.458-3.81a3.254 3.254 0 0 1-.915-.59zm-269.39 1.533l.028-.02c1.09-.946 1.94-2.127 2.553-3.527.61-1.4.92-3.03.92-4.9a12.04 12.04 0 0 0-.32-2.81c-1.98-1.59-4.422-2.54-7.077-2.54-.07 0-.133.012-.2.013l.004.003c.685.616 1.218 1.403 1.59 2.358.375.955.564 2.08.564 3.378 0 .286-.01.558-.024.827 1.115 1.753 1.856 4.327 1.975 7.232zm105.27.208c.778.72 1.66 1.32 2.666 1.78.776.36 1.625.615 2.536.783-1.526-1.75-2.564-4.68-2.694-8.05-.074-.18-.15-.358-.22-.54-.44-1.24-.694-2.72-.756-4.46v-.14h1.524a12.697 12.697 0 0 1 1.07-2.75h-2.595c.08-1.62.28-2.96.59-4.03.08-.277.17-.538.266-.785-3.1 2.356-5.11 6.07-5.11 10.264a12.85 12.85 0 0 0 2.734 7.92zm10.075-20.814c.385.294.734.623 1.007 1.032.396.598.688 1.283.868 2.063.186.774.272 1.593.272 2.448 0 .288 0 .6-.01.938l-.002.037c.692.988 1.258 2.24 1.642 3.672h3.523c.12-.566.195-1.218.23-1.958.027-.74.04-1.605.02-2.597-.06-1.37-.273-2.58-.624-3.65a12.762 12.762 0 0 0-6.83-1.99c-.03 0-.06.005-.09.005zm20.243 23.254c-1.572-1.882-2.604-5.044-2.604-8.63 0-.057.004-.113.005-.17-.06-.17-.12-.332-.17-.51-.42-1.45-.63-3.203-.61-5.264.012-1.603.21-3.003.582-4.198.32-1.03.734-1.904 1.236-2.638-3.753 2.255-6.27 6.354-6.27 11.05 0 2.443.69 4.718 1.87 6.666.063.08.12.167.19.245 1 1.178 2.24 2.102 3.73 2.783.63.286 1.315.5 2.032.666zm11.24-21.68a12.796 12.796 0 0 0-4.853-1.506c.23.19.443.404.63.648l1.034 3.796h3.08l.1-2.938zm131.53 21.352s2.496-19-2.097-22.63c0 0 8.34-5.926 5.36 22.258m-217.78-7.286a9.762 9.762 0 0 1-3.182-.8c-1.34-.584-2.455-1.376-3.216-2.214.016.284.02.573.024.863.146.26.266.53.347.83a7.69 7.69 0 0 1 .264 2.025c0 .685-.12 1.32-.37 1.9a3.818 3.818 0 0 1-1.14 1.496c-.08.065-.186.113-.273.174-.793 1.867-1.93 3.252-3.25 3.87 1.617-.04 3.067-.22 4.33-.56 1.44-.39 2.644-.94 3.608-1.66.96-.72 1.68-1.59 2.163-2.61.46-.99.694-2.1.69-3.32zm-17.17-14.487c.123-.167.32-.338.606-.515a5.61 5.61 0 0 1 1.075-.492 9.88 9.88 0 0 1 1.54-.38 11.96 11.96 0 0 1 1.98-.147c1 0 1.817.1 2.46.28.65.19 1.16.454 1.55.8.38.342.65.75.8 1.225.155.475.23 1 .23 1.58 0 1.155-.404 2.11-1.17 2.883.444.79.825 1.686 1.11 2.69.426-.427 1.1-.68 1.913-.77.056-.03.12-.056.17-.09a8.455 8.455 0 0 0 1.82-1.44 5.956 5.956 0 0 0 1.157-1.738 4.95 4.95 0 0 0 .402-1.948c0-.087-.01-.167-.014-.25a12.82 12.82 0 0 0-9.084-3.768c-4.36 0-8.21 2.17-10.544 5.485v.41h3.115l.893-3.828zm.564 22.254c.554.09 1.13.17 1.746.24.25.027.518.04.777.06-1.912-1.02-3.415-3.673-3.98-7.032h-3.046l-.24 2.482a12.935 12.935 0 0 0 4.75 4.25zM223.32 39.222h4.703v21.69h-4.704zm4.703 52.216h-4.67v19.798l-.034.005v1.89h4.7zm49.993-52.216l-.07 3.002v4.746h3.16l1.33-6.526 5.767-.595v17.04h.82v4h3.333v-4h.863V39.85l5.67.594 1.37 6.526h3.274l-.187-7.748zm123.366 0h4.642v24h-4.642zm-63.207 21.252l1.81-13.232.354-4.71h-1.24l-3.76 20.02h4.04l.35-1.93zm26.345-17.94h-4.643l.514 4.625 1.53-3.79 2.58 19.18h5.3l-.346-1.88-2.01-.23zm-12.193 20.02l5.01-15.31.8-2.623-6.197 14.58-5.5-16.66h-5.072l1.113 2.99.3-1.656 6.45 18.69z" fill="#DD9110"/></svg>