<?xml version="1.0" encoding="utf-8"?>
<!-- Generator: Adobe Illustrator 16.0.3, SVG Export Plug-In . SVG Version: 6.00 Build 0)  -->
<!DOCTYPE svg PUBLIC "-//W3C//DTD SVG 1.1//EN" "http://www.w3.org/Graphics/SVG/1.1/DTD/svg11.dtd">
<svg version="1.1" xmlns="http://www.w3.org/2000/svg" xmlns:xlink="http://www.w3.org/1999/xlink" x="0px" y="0px"
	 width="599.184px" height="161.872px" viewBox="0 0 599.184 161.872" enable-background="new 0 0 599.184 161.872"
	 xml:space="preserve">
<g id="основа">
	<g>
		<g>
			<g>
				<linearGradient id="SVGID_1_" gradientUnits="userSpaceOnUse" x1="204.043" y1="27.4795" x2="204.043" y2="64.5483">
					<stop  offset="0" style="stop-color:#FFD444"/>
					<stop  offset="0.1108" style="stop-color:#FED141"/>
					<stop  offset="0.2237" style="stop-color:#F8C739"/>
					<stop  offset="0.3377" style="stop-color:#F0B52B"/>
					<stop  offset="0.4516" style="stop-color:#E49D1A"/>
					<stop  offset="0.5108" style="stop-color:#DD8E0F"/>
					<stop  offset="0.5344" style="stop-color:#DF9112"/>
					<stop  offset="0.987" style="stop-color:#FFD444"/>
				</linearGradient>
				<path fill="url(#SVGID_1_)" d="M190.114,63.262v-2.516l3.847-0.62V31.54l-3.755-0.62v-2.521h6.367
					c0.719,0,1.382-0.016,1.982-0.056c0.601-0.04,1.184-0.078,1.741-0.115c0.559-0.037,1.11-0.078,1.649-0.112
					c0.545-0.037,1.112-0.059,1.707-0.059c2.123,0,3.932,0.171,5.429,0.518c1.5,0.34,2.717,0.849,3.667,1.521
					c0.946,0.672,1.636,1.496,2.073,2.475c0.434,0.973,0.651,2.101,0.651,3.365c0,1.097-0.146,2.135-0.447,3.092
					c-0.297,0.967-0.734,1.825-1.308,2.59c-0.569,0.766-1.282,1.419-2.128,1.958c-0.846,0.546-1.825,0.929-2.922,1.159
					c1.407-0.031,2.68,0.143,3.826,0.515c1.144,0.372,2.122,0.917,2.934,1.629c0.813,0.709,1.438,1.562,1.878,2.565
					c0.439,0.998,0.666,2.113,0.666,3.353c0,1.375-0.229,2.714-0.679,4.011c-0.449,1.298-1.22,2.442-2.312,3.436
					c-1.092,0.988-2.549,1.791-4.364,2.392c-1.82,0.604-4.094,0.905-6.826,0.905c-0.583,0-1.124-0.013-1.629-0.044
					c-0.503-0.031-1.036-0.065-1.589-0.093c-0.561-0.031-1.175-0.062-1.844-0.093c-0.675-0.031-1.469-0.049-2.385-0.049H190.114z
					 M199.188,31.032v12.625c0.285,0.031,0.631,0.056,1.028,0.068c0.397,0.013,0.799,0.022,1.214,0.022h1.215h1.028
					c2.293,0,3.96-0.551,5.006-1.661c1.047-1.105,1.568-2.794,1.568-5.072c0-1.053-0.118-1.97-0.354-2.748
					c-0.235-0.784-0.628-1.428-1.177-1.949c-0.551-0.52-1.289-0.904-2.2-1.167c-0.922-0.26-2.058-0.391-3.414-0.391
					c-1.116,0-1.97,0.041-2.565,0.115C199.944,30.955,199.492,31.003,199.188,31.032 M199.188,46.705v13.697
					c0.164,0.108,0.417,0.189,0.756,0.238c0.332,0.056,0.706,0.093,1.118,0.118c0.415,0.025,0.846,0.037,1.295,0.044
					c0.449,0.009,0.871,0.015,1.248,0.015c1.586,0,2.938-0.167,4.04-0.492c1.109-0.332,2.014-0.799,2.717-1.413
					c0.704-0.607,1.211-1.356,1.527-2.243c0.311-0.883,0.465-1.887,0.465-2.999c0-1.24-0.148-2.299-0.445-3.185
					s-0.774-1.611-1.431-2.178c-0.657-0.567-1.493-0.982-2.517-1.249c-1.028-0.266-2.274-0.402-3.736-0.402h-1.294h-1.389
					c-0.458,0-0.892,0.006-1.304,0.015C199.826,46.677,199.474,46.692,199.188,46.705"/>
			</g>
		</g>
		<g>
			<g>
				<linearGradient id="SVGID_2_" gradientUnits="userSpaceOnUse" x1="227.6812" y1="24.7798" x2="227.6812" y2="64.343">
					<stop  offset="0" style="stop-color:#FFD444"/>
					<stop  offset="0.1108" style="stop-color:#FED141"/>
					<stop  offset="0.2237" style="stop-color:#F8C739"/>
					<stop  offset="0.3377" style="stop-color:#F0B52B"/>
					<stop  offset="0.4516" style="stop-color:#E49D1A"/>
					<stop  offset="0.5108" style="stop-color:#DD8E0F"/>
					<stop  offset="0.5344" style="stop-color:#DF9112"/>
					<stop  offset="0.987" style="stop-color:#FFD444"/>
				</linearGradient>
				<path fill="url(#SVGID_2_)" d="M221.383,63.268v-2.522l3.78-0.39v-19.06l-3.204-1.01v-2.746l6.982-0.935h0.115l1.212,0.914
					V60.38l3.711,0.365v2.522H221.383z M226.972,32.268c-0.445,0-0.849-0.075-1.214-0.236c-0.365-0.164-0.682-0.384-0.939-0.663
					c-0.26-0.285-0.458-0.62-0.597-1.01c-0.136-0.39-0.206-0.805-0.206-1.249c0-0.49,0.076-0.954,0.221-1.397
					c0.146-0.443,0.355-0.836,0.641-1.181c0.279-0.344,0.635-0.617,1.062-0.827c0.427-0.205,0.926-0.31,1.491-0.31h0.024
					c0.499,0,0.942,0.093,1.327,0.278c0.377,0.183,0.703,0.421,0.96,0.722c0.26,0.298,0.458,0.636,0.595,1.02
					c0.14,0.384,0.21,0.78,0.21,1.189c0,0.521-0.074,1-0.22,1.443c-0.146,0.446-0.365,0.831-0.663,1.159
					c-0.295,0.329-0.669,0.586-1.116,0.781c-0.437,0.186-0.957,0.279-1.555,0.279H226.972z"/>
			</g>
		</g>
		<linearGradient id="SVGID_3_" gradientUnits="userSpaceOnUse" x1="248.5522" y1="36.77" x2="248.5522" y2="64.0082">
			<stop  offset="0" style="stop-color:#FFD444"/>
			<stop  offset="0.1108" style="stop-color:#FED141"/>
			<stop  offset="0.2237" style="stop-color:#F8C739"/>
			<stop  offset="0.3377" style="stop-color:#F0B52B"/>
			<stop  offset="0.4516" style="stop-color:#E49D1A"/>
			<stop  offset="0.5108" style="stop-color:#DD8E0F"/>
			<stop  offset="0.5344" style="stop-color:#DF9112"/>
			<stop  offset="0.987" style="stop-color:#FFD444"/>
		</linearGradient>
		<polygon fill="url(#SVGID_3_)" points="237.211,61.111 250.661,42.922 253.498,40.013 243.374,40.36 242.525,44.642 
			239.247,44.642 239.247,37.194 258.631,37.194 259.595,39.307 246.329,57.629 243.441,60.47 255.128,59.921 256.823,55.157 
			259.893,55.522 259.202,63.268 238.243,63.268 		"/>
		<g>
			<g>
				<linearGradient id="SVGID_4_" gradientUnits="userSpaceOnUse" x1="275.1001" y1="36.2319" x2="275.1001" y2="64.5612">
					<stop  offset="0" style="stop-color:#FFD444"/>
					<stop  offset="0.1108" style="stop-color:#FED141"/>
					<stop  offset="0.2237" style="stop-color:#F8C739"/>
					<stop  offset="0.3377" style="stop-color:#F0B52B"/>
					<stop  offset="0.4516" style="stop-color:#E49D1A"/>
					<stop  offset="0.5108" style="stop-color:#DD8E0F"/>
					<stop  offset="0.5344" style="stop-color:#DF9112"/>
					<stop  offset="0.987" style="stop-color:#FFD444"/>
				</linearGradient>
				<path fill="url(#SVGID_4_)" d="M263.623,56.396c0-1.102,0.208-2.082,0.619-2.942c0.415-0.868,0.979-1.627,1.698-2.28
					c0.715-0.66,1.558-1.218,2.527-1.674c0.973-0.458,2.02-0.83,3.142-1.124c1.122-0.288,2.29-0.502,3.501-0.638
					c1.214-0.14,2.416-0.226,3.613-0.257v-1.211c0-1.069-0.078-1.974-0.229-2.711c-0.156-0.744-0.419-1.345-0.794-1.815
					c-0.372-0.465-0.873-0.799-1.5-1.004c-0.625-0.208-1.419-0.31-2.381-0.31c-0.822,0-1.649,0.075-2.477,0.229
					c-0.823,0.154-1.611,0.341-2.37,0.558c-0.756,0.223-1.453,0.458-2.084,0.712c-0.632,0.251-1.166,0.486-1.593,0.7h-0.025
					l-1.028-2.2c0.292-0.279,0.806-0.626,1.537-1.053c0.73-0.427,1.599-0.842,2.595-1.239c1.004-0.396,2.08-0.744,3.235-1.031
					c1.152-0.289,2.301-0.431,3.445-0.431c1.607,0,2.958,0.161,4.064,0.49c1.109,0.329,2.007,0.854,2.694,1.58
					c0.688,0.725,1.177,1.667,1.481,2.816c0.298,1.152,0.44,2.568,0.44,4.226v14.939h2.843v2.221
					c-0.29,0.074-0.637,0.161-1.046,0.264c-0.403,0.102-0.824,0.188-1.271,0.275c-0.439,0.084-0.892,0.155-1.35,0.217
					c-0.458,0.062-0.892,0.09-1.301,0.09c-0.427,0-0.806-0.015-1.116-0.052c-0.311-0.043-0.565-0.143-0.767-0.304
					c-0.198-0.158-0.346-0.396-0.443-0.719c-0.102-0.322-0.148-0.758-0.148-1.307v-0.846c-0.201,0.183-0.527,0.456-0.976,0.812
					c-0.452,0.362-1.004,0.722-1.661,1.078s-1.406,0.672-2.246,0.939s-1.738,0.399-2.699,0.399c-1.056,0-2.063-0.139-3.018-0.421
					c-0.954-0.281-1.797-0.722-2.519-1.316c-0.727-0.595-1.304-1.363-1.737-2.305C263.839,58.813,263.623,57.691,263.623,56.396
					 M273.518,60.29c0.322,0,0.703-0.043,1.146-0.127c0.443-0.087,0.898-0.205,1.375-0.359c0.477-0.148,0.942-0.34,1.411-0.57
					c0.463-0.229,0.888-0.477,1.273-0.756v-8.427c-1.834,0-3.369,0.161-4.599,0.477c-1.226,0.323-2.208,0.744-2.942,1.277
					c-0.732,0.521-1.252,1.122-1.555,1.793c-0.307,0.676-0.459,1.376-0.459,2.107c0,0.84,0.112,1.552,0.335,2.131
					c0.216,0.579,0.523,1.054,0.913,1.419c0.387,0.368,0.852,0.635,1.385,0.79C272.338,60.207,272.911,60.29,273.518,60.29"/>
			</g>
		</g>
		<linearGradient id="SVGID_5_" gradientUnits="userSpaceOnUse" x1="301.3491" y1="36.7671" x2="301.3491" y2="64.3843">
			<stop  offset="0" style="stop-color:#FFD444"/>
			<stop  offset="0.1108" style="stop-color:#FED141"/>
			<stop  offset="0.2237" style="stop-color:#F8C739"/>
			<stop  offset="0.3377" style="stop-color:#F0B52B"/>
			<stop  offset="0.4516" style="stop-color:#E49D1A"/>
			<stop  offset="0.5108" style="stop-color:#DD8E0F"/>
			<stop  offset="0.5344" style="stop-color:#DF9112"/>
			<stop  offset="0.987" style="stop-color:#FFD444"/>
		</linearGradient>
		<polygon fill="url(#SVGID_5_)" points="299.36,63.633 290.104,40.31 287.879,39.669 287.879,37.197 299.472,37.197 
			299.472,39.669 295.829,40.31 300.16,52.982 302.316,59.417 304.076,53.254 308.383,40.31 305.179,39.669 305.179,37.197 
			314.82,37.197 314.82,39.669 312.534,40.31 303.594,63.633 		"/>
		<g>
			<g>
				<linearGradient id="SVGID_6_" gradientUnits="userSpaceOnUse" x1="202.2432" y1="78.25" x2="202.2432" y2="115.632">
					<stop  offset="0" style="stop-color:#FFD444"/>
					<stop  offset="0.1108" style="stop-color:#FED141"/>
					<stop  offset="0.2237" style="stop-color:#F8C739"/>
					<stop  offset="0.3377" style="stop-color:#F0B52B"/>
					<stop  offset="0.4516" style="stop-color:#E49D1A"/>
					<stop  offset="0.5108" style="stop-color:#DD8E0F"/>
					<stop  offset="0.5344" style="stop-color:#DF9112"/>
					<stop  offset="0.987" style="stop-color:#FFD444"/>
				</linearGradient>
				<path fill="url(#SVGID_6_)" d="M201.36,114.616c-1.354,0-2.605-0.105-3.746-0.31c-1.136-0.208-2.156-0.44-3.058-0.697
					c-0.898-0.257-1.675-0.505-2.323-0.734c-0.647-0.226-1.156-0.356-1.523-0.387l0.39-8.455h3.16l0.964,5.682
					c0.26,0.292,0.604,0.567,1.028,0.824c0.431,0.261,0.92,0.489,1.469,0.676c0.551,0.192,1.144,0.337,1.785,0.446
					c0.645,0.105,1.308,0.154,1.996,0.154c2.304,0,4.006-0.499,5.096-1.518c1.09-1.013,1.639-2.404,1.639-4.18
					c0-0.933-0.18-1.75-0.539-2.451c-0.359-0.703-0.876-1.344-1.559-1.927c-0.678-0.577-1.499-1.122-2.463-1.636
					c-0.96-0.511-2.038-1.041-3.228-1.593c-0.948-0.427-1.958-0.938-3.036-1.537c-1.078-0.595-2.073-1.326-2.986-2.184
					c-0.917-0.864-1.686-1.869-2.296-3.014c-0.609-1.144-0.913-2.479-0.913-4.009c0-1.308,0.27-2.516,0.811-3.606
					c0.546-1.091,1.307-2.036,2.293-2.832c0.984-0.793,2.168-1.406,3.551-1.84c1.381-0.437,2.918-0.657,4.616-0.657
					c1.053,0,2.054,0.081,3,0.235c0.944,0.149,1.815,0.322,2.602,0.508c0.788,0.196,1.475,0.388,2.073,0.577
					c0.591,0.192,1.068,0.316,1.419,0.378l-0.295,7.764h-3.048l-1.124-5.385c-0.133-0.151-0.363-0.303-0.676-0.464
					c-0.313-0.161-0.678-0.303-1.096-0.428c-0.425-0.118-0.896-0.223-1.409-0.307c-0.521-0.083-1.054-0.126-1.605-0.126
					c-2.091,0-3.625,0.405-4.592,1.214c-0.972,0.812-1.456,2.038-1.456,3.687c0,0.886,0.174,1.661,0.514,2.327
					c0.347,0.663,0.844,1.273,1.5,1.832c0.657,0.557,1.475,1.103,2.453,1.639c0.973,0.536,2.092,1.112,3.346,1.744
					c1.128,0.564,2.271,1.171,3.421,1.819c1.156,0.647,2.194,1.384,3.116,2.211c0.924,0.825,1.683,1.77,2.271,2.829
					c0.585,1.06,0.88,2.292,0.88,3.7c0,1.208-0.27,2.407-0.802,3.609c-0.533,1.199-1.321,2.271-2.357,3.226
					c-1.038,0.954-2.333,1.729-3.886,2.317C205.187,114.321,203.392,114.616,201.36,114.616"/>
			</g>
		</g>
		<g>
			<g>
				<linearGradient id="SVGID_7_" gradientUnits="userSpaceOnUse" x1="229.0229" y1="87.4067" x2="229.0229" y2="126.847">
					<stop  offset="0" style="stop-color:#FFD444"/>
					<stop  offset="0.1108" style="stop-color:#FED141"/>
					<stop  offset="0.2237" style="stop-color:#F8C739"/>
					<stop  offset="0.3377" style="stop-color:#F0B52B"/>
					<stop  offset="0.4516" style="stop-color:#E49D1A"/>
					<stop  offset="0.5108" style="stop-color:#DD8E0F"/>
					<stop  offset="0.5344" style="stop-color:#DF9112"/>
					<stop  offset="0.987" style="stop-color:#FFD444"/>
				</linearGradient>
				<path fill="url(#SVGID_7_)" d="M221.706,125.775c-0.233,0-0.478-0.012-0.734-0.024c-0.257-0.016-0.511-0.038-0.76-0.068
					c-0.242-0.031-0.464-0.068-0.663-0.105c-0.195-0.034-0.341-0.078-0.433-0.124v-4.238c0.092,0.047,0.238,0.093,0.433,0.136
					c0.199,0.046,0.428,0.086,0.679,0.127c0.251,0.04,0.515,0.065,0.787,0.081c0.277,0.012,0.539,0.021,0.778,0.021
					c0.489,0,1.028-0.062,1.617-0.192c0.593-0.13,1.202-0.446,1.847-0.942c0.639-0.496,1.295-1.246,1.97-2.246
					c0.67-1.001,1.333-2.37,1.99-4.112h-2.884l-8.567-22.951l-2.2-0.644v-2.473h11.543v2.473l-3.662,0.644l4.671,14.059l2.064,6.761
					l1.831-6.761l3.984-14.059l-3.088-0.644v-2.473h9.573v2.473l-2.361,0.644c-1.19,3.768-2.218,7.045-3.08,9.827
					c-0.86,2.776-1.595,5.13-2.199,7.058c-0.601,1.921-1.09,3.445-1.456,4.567c-0.366,1.122-0.645,1.914-0.846,2.373
					c-0.734,1.828-1.453,3.42-2.166,4.771c-0.708,1.357-1.487,2.479-2.323,3.371c-0.842,0.892-1.765,1.561-2.785,2.001
					C224.251,125.552,223.062,125.775,221.706,125.775"/>
			</g>
		</g>
		<g>
			<g>
				<linearGradient id="SVGID_8_" gradientUnits="userSpaceOnUse" x1="255.2271" y1="87.0283" x2="255.2271" y2="115.3867">
					<stop  offset="0" style="stop-color:#FFD444"/>
					<stop  offset="0.1108" style="stop-color:#FED141"/>
					<stop  offset="0.2237" style="stop-color:#F8C739"/>
					<stop  offset="0.3377" style="stop-color:#F0B52B"/>
					<stop  offset="0.4516" style="stop-color:#E49D1A"/>
					<stop  offset="0.5108" style="stop-color:#DD8E0F"/>
					<stop  offset="0.5344" style="stop-color:#DF9112"/>
					<stop  offset="0.987" style="stop-color:#FFD444"/>
				</linearGradient>
				<path fill="url(#SVGID_8_)" d="M245.803,112.626v-6.004h3.253l0.935,3.389c0.143,0.248,0.378,0.487,0.712,0.723
					c0.335,0.238,0.732,0.449,1.193,0.641c0.459,0.192,0.97,0.344,1.533,0.456c0.564,0.115,1.152,0.176,1.76,0.176
					c0.954,0,1.729-0.105,2.342-0.31c0.607-0.208,1.09-0.477,1.443-0.812c0.347-0.341,0.589-0.731,0.72-1.184
					c0.13-0.453,0.198-0.914,0.198-1.388c0-0.588-0.136-1.134-0.407-1.611c-0.266-0.483-0.671-0.939-1.224-1.375
					c-0.547-0.434-1.254-0.861-2.118-1.282c-0.862-0.422-1.89-0.862-3.08-1.32c-1.24-0.471-2.306-0.979-3.21-1.509
					c-0.898-0.536-1.648-1.137-2.243-1.8c-0.595-0.663-1.034-1.403-1.313-2.218c-0.285-0.824-0.427-1.748-0.427-2.789
					c0-1.05,0.241-2.001,0.722-2.85c0.479-0.849,1.146-1.575,1.992-2.188c0.849-0.611,1.849-1.078,2.999-1.41
					c1.152-0.325,2.403-0.493,3.749-0.493c0.944,0,1.816,0.056,2.609,0.17c0.796,0.121,1.515,0.254,2.156,0.416
					c0.639,0.158,1.203,0.324,1.686,0.492c0.477,0.167,0.867,0.297,1.156,0.39v5.726l-3.046-0.022l-1.01-2.958
					c-0.198-0.394-0.633-0.765-1.295-1.109c-0.667-0.34-1.518-0.514-2.553-0.514c-0.796-0.015-1.478,0.062-2.042,0.229
					c-0.563,0.17-1.022,0.396-1.372,0.688c-0.354,0.288-0.611,0.626-0.781,1.022c-0.167,0.384-0.251,0.799-0.251,1.246
					c0,0.824,0.176,1.5,0.529,2.014c0.347,0.52,0.813,0.96,1.383,1.329c0.575,0.369,1.226,0.685,1.96,0.963
					c0.729,0.272,1.483,0.583,2.246,0.914c1.054,0.461,2.058,0.938,3.012,1.446c0.954,0.502,1.796,1.079,2.527,1.729
					c0.734,0.65,1.321,1.4,1.754,2.268c0.437,0.861,0.651,1.883,0.651,3.058c0,1.162-0.22,2.215-0.672,3.157
					c-0.449,0.951-1.104,1.757-1.955,2.422c-0.858,0.664-1.902,1.171-3.133,1.534c-1.229,0.356-2.615,0.536-4.154,0.536
					c-0.824,0-1.679-0.068-2.569-0.205c-0.883-0.136-1.735-0.303-2.552-0.505c-0.822-0.195-1.559-0.418-2.225-0.654
					C246.729,113.017,246.198,112.806,245.803,112.626"/>
			</g>
		</g>
		<g>
			<g>
				<linearGradient id="SVGID_9_" gradientUnits="userSpaceOnUse" x1="276.9907" y1="81.166" x2="276.9907" y2="115.5507">
					<stop  offset="0" style="stop-color:#FFD444"/>
					<stop  offset="0.1108" style="stop-color:#FED141"/>
					<stop  offset="0.2237" style="stop-color:#F8C739"/>
					<stop  offset="0.3377" style="stop-color:#F0B52B"/>
					<stop  offset="0.4516" style="stop-color:#E49D1A"/>
					<stop  offset="0.5108" style="stop-color:#DD8E0F"/>
					<stop  offset="0.5344" style="stop-color:#DF9112"/>
					<stop  offset="0.987" style="stop-color:#FFD444"/>
				</linearGradient>
				<path fill="url(#SVGID_9_)" d="M271.895,109.209V91.343h-3.321v-2.15c0.471-0.155,0.942-0.316,1.406-0.487
					c0.465-0.164,0.806-0.319,1.02-0.456c0.505-0.353,0.933-0.923,1.283-1.716c0.12-0.279,0.275-0.638,0.461-1.09
					c0.18-0.453,0.359-0.914,0.539-1.388c0.173-0.471,0.335-0.92,0.477-1.351c0.146-0.428,0.248-0.763,0.31-1.004h2.934v6.32h7.672
					v3.321h-7.672v13.7c0,1.36,0.016,2.417,0.056,3.182c0.04,0.766,0.146,1.33,0.323,1.695c0.172,0.372,0.436,0.595,0.789,0.676
					c0.354,0.086,0.831,0.126,1.441,0.126h0.022c0.446,0,0.909-0.028,1.386-0.09c0.483-0.062,0.955-0.133,1.407-0.216
					c0.463-0.087,0.878-0.177,1.263-0.276c0.378-0.1,0.688-0.195,0.917-0.285h0.02l0.78,2.246c-0.365,0.273-0.874,0.558-1.513,0.855
					c-0.637,0.297-1.337,0.57-2.094,0.812c-0.756,0.245-1.543,0.45-2.347,0.611c-0.812,0.158-1.574,0.238-2.293,0.238h-0.046
					c-0.808,0-1.533-0.09-2.175-0.272c-0.641-0.183-1.186-0.483-1.639-0.904c-0.449-0.422-0.796-0.98-1.041-1.673
					C272.019,111.072,271.895,110.219,271.895,109.209"/>
			</g>
		</g>
		<g>
			<g>
				<linearGradient id="SVGID_10_" gradientUnits="userSpaceOnUse" x1="298.8481" y1="86.8892" x2="298.8481" y2="115.3904">
					<stop  offset="0" style="stop-color:#FFD444"/>
					<stop  offset="0.1108" style="stop-color:#FED141"/>
					<stop  offset="0.2237" style="stop-color:#F8C739"/>
					<stop  offset="0.3377" style="stop-color:#F0B52B"/>
					<stop  offset="0.4516" style="stop-color:#E49D1A"/>
					<stop  offset="0.5108" style="stop-color:#DD8E0F"/>
					<stop  offset="0.5344" style="stop-color:#DF9112"/>
					<stop  offset="0.987" style="stop-color:#FFD444"/>
				</linearGradient>
				<path fill="url(#SVGID_10_)" d="M299.751,114.616c-1.945,0-3.643-0.334-5.1-1.007c-1.461-0.672-2.677-1.611-3.655-2.816
					c-0.979-1.208-1.71-2.645-2.199-4.319c-0.489-1.672-0.732-3.51-0.732-5.508c0-2.032,0.305-3.885,0.918-5.558
					s1.462-3.108,2.553-4.304c1.091-1.199,2.386-2.128,3.885-2.785c1.493-0.657,3.13-0.985,4.902-0.985
					c2.887,0,5.124,0.784,6.709,2.349c1.593,1.568,2.455,3.882,2.591,6.952c0.018,0.992,0.012,1.862-0.024,2.603
					c-0.025,0.737-0.105,1.395-0.229,1.958h-15.851v0.136c0.063,1.741,0.31,3.229,0.757,4.467c0.445,1.233,1.021,2.25,1.729,3.037
					c0.712,0.787,1.524,1.36,2.441,1.716c0.916,0.359,1.871,0.539,2.862,0.539c0.656,0,1.319-0.062,1.995-0.183
					c0.669-0.124,1.313-0.282,1.933-0.483c0.621-0.195,1.184-0.427,1.698-0.688c0.508-0.257,0.937-0.517,1.271-0.777l0.96,2.243
					c-0.445,0.446-1.004,0.874-1.685,1.286c-0.676,0.412-1.438,0.771-2.269,1.087c-0.83,0.31-1.71,0.567-2.646,0.756
					C301.636,114.523,300.693,114.616,299.751,114.616 M299.175,90.085c-0.763,0-1.474,0.13-2.132,0.399
					c-0.656,0.264-1.232,0.722-1.729,1.366c-0.495,0.639-0.898,1.494-1.214,2.559c-0.315,1.072-0.509,2.417-0.583,4.034h10.627
					c0.03-0.304,0.056-0.626,0.062-0.96c0.007-0.334,0.013-0.651,0.013-0.939c0-0.858-0.093-1.67-0.278-2.45
					c-0.187-0.784-0.471-1.469-0.868-2.064c-0.396-0.595-0.917-1.072-1.549-1.418C300.892,90.259,300.104,90.085,299.175,90.085"/>
			</g>
		</g>
		<g>
			<g>
				<linearGradient id="SVGID_11_" gradientUnits="userSpaceOnUse" x1="335.668" y1="86.9922" x2="335.668" y2="114.8461">
					<stop  offset="0" style="stop-color:#FFD444"/>
					<stop  offset="0.1108" style="stop-color:#FED141"/>
					<stop  offset="0.2237" style="stop-color:#F8C739"/>
					<stop  offset="0.3377" style="stop-color:#F0B52B"/>
					<stop  offset="0.4516" style="stop-color:#E49D1A"/>
					<stop  offset="0.5108" style="stop-color:#DD8E0F"/>
					<stop  offset="0.5344" style="stop-color:#DF9112"/>
					<stop  offset="0.987" style="stop-color:#FFD444"/>
				</linearGradient>
				<path fill="url(#SVGID_11_)" d="M314.251,114.089v-2.472l2.887-0.415V92.123l-3.209-1.01v-2.751l6.53-0.936h0.111l1.104,0.914
					v1.788l-0.025,0.985c0.503-0.458,1.128-0.904,1.866-1.338c0.736-0.434,1.536-0.824,2.385-1.168
					c0.843-0.347,1.711-0.625,2.59-0.836c0.874-0.213,1.71-0.325,2.503-0.325c1.698,0,3.056,0.279,4.071,0.824
					c1.017,0.551,1.785,1.416,2.324,2.59c0.446-0.365,1.021-0.75,1.754-1.156c0.719-0.406,1.511-0.771,2.366-1.112
					c0.855-0.335,1.729-0.61,2.608-0.821c0.893-0.213,1.704-0.325,2.453-0.325c1.501,0,2.734,0.205,3.7,0.611
					c0.973,0.405,1.734,1.044,2.293,1.917c0.558,0.868,0.946,1.989,1.17,3.365c0.219,1.372,0.33,3.018,0.33,4.945v12.919
					l3.346,0.415v2.472h-11.272v-2.472l2.82-0.415V98.419c0-1.249-0.062-2.342-0.187-3.275c-0.117-0.932-0.366-1.707-0.731-2.323
					c-0.365-0.623-0.88-1.081-1.523-1.397c-0.65-0.313-1.5-0.468-2.553-0.468c-0.471,0-0.979,0.053-1.513,0.17
					c-0.539,0.115-1.071,0.26-1.604,0.446c-0.533,0.18-1.047,0.396-1.537,0.641c-0.489,0.246-0.916,0.499-1.282,0.753
					c0.292,1.438,0.439,3.228,0.439,5.366v12.87l3.315,0.415v2.472h-11.519v-2.472l3.092-0.415V98.307
					c0-1.227-0.056-2.292-0.168-3.21c-0.117-0.917-0.34-1.673-0.669-2.286c-0.327-0.614-0.799-1.072-1.405-1.376
					c-0.614-0.304-1.426-0.458-2.43-0.458c-1.104,0-2.23,0.198-3.389,0.604c-1.166,0.406-2.176,0.933-3.05,1.571v18.05l3.142,0.415
					v2.472H314.251z"/>
			</g>
		</g>
		<g>
			<g>
				<linearGradient id="SVGID_12_" gradientUnits="userSpaceOnUse" x1="371.0957" y1="87.0283" x2="371.0957" y2="115.3867">
					<stop  offset="0" style="stop-color:#FFD444"/>
					<stop  offset="0.1108" style="stop-color:#FED141"/>
					<stop  offset="0.2237" style="stop-color:#F8C739"/>
					<stop  offset="0.3377" style="stop-color:#F0B52B"/>
					<stop  offset="0.4516" style="stop-color:#E49D1A"/>
					<stop  offset="0.5108" style="stop-color:#DD8E0F"/>
					<stop  offset="0.5344" style="stop-color:#DF9112"/>
					<stop  offset="0.987" style="stop-color:#FFD444"/>
				</linearGradient>
				<path fill="url(#SVGID_12_)" d="M361.672,112.626v-6.004h3.251l0.937,3.389c0.137,0.248,0.377,0.487,0.712,0.723
					c0.335,0.238,0.73,0.449,1.189,0.641s0.966,0.344,1.537,0.456c0.563,0.115,1.153,0.176,1.76,0.176
					c0.947,0,1.729-0.105,2.343-0.31c0.607-0.208,1.091-0.477,1.442-0.812c0.348-0.341,0.59-0.731,0.719-1.184
					c0.131-0.453,0.191-0.914,0.191-1.388c0-0.588-0.128-1.134-0.396-1.611c-0.271-0.483-0.682-0.939-1.226-1.375
					c-0.552-0.434-1.258-0.861-2.12-1.282c-0.866-0.422-1.889-0.862-3.086-1.32c-1.233-0.471-2.304-0.979-3.202-1.509
					c-0.905-0.536-1.648-1.137-2.243-1.8c-0.595-0.663-1.034-1.403-1.321-2.218c-0.283-0.824-0.42-1.748-0.42-2.789
					c0-1.05,0.235-2.001,0.719-2.85c0.483-0.849,1.146-1.575,1.993-2.188c0.851-0.611,1.848-1.078,3.001-1.41
					c1.151-0.325,2.396-0.493,3.741-0.493c0.954,0,1.821,0.056,2.615,0.17c0.794,0.121,1.513,0.257,2.151,0.416
					c0.644,0.158,1.201,0.324,1.685,0.492c0.483,0.167,0.867,0.297,1.158,0.39v5.726l-3.05-0.022l-1.01-2.958
					c-0.191-0.394-0.624-0.765-1.287-1.109c-0.662-0.34-1.52-0.514-2.554-0.514c-0.799-0.015-1.474,0.062-2.037,0.229
					c-0.57,0.17-1.029,0.396-1.376,0.688c-0.354,0.288-0.614,0.626-0.782,1.022c-0.168,0.384-0.253,0.799-0.253,1.246
					c0,0.824,0.173,1.5,0.527,2.014c0.352,0.52,0.818,0.96,1.387,1.329c0.57,0.369,1.229,0.685,1.959,0.963
					c0.73,0.272,1.48,0.583,2.243,0.914c1.054,0.461,2.063,0.938,3.018,1.446c0.947,0.502,1.797,1.079,2.527,1.729
					c0.731,0.65,1.318,1.4,1.753,2.268c0.435,0.861,0.651,1.883,0.651,3.058c0,1.162-0.224,2.215-0.675,3.157
					c-0.452,0.951-1.103,1.757-1.96,2.422c-0.854,0.664-1.896,1.175-3.122,1.534c-1.233,0.356-2.615,0.536-4.164,0.536
					c-0.823,0-1.68-0.068-2.563-0.205c-0.887-0.136-1.736-0.303-2.555-0.505c-0.817-0.195-1.556-0.418-2.224-0.654
					C362.594,113.017,362.067,112.806,361.672,112.626"/>
			</g>
		</g>
		<g>
			<g>
				<path fill="#FFD444" d="M199.981,155.009c-0.409-1.057-0.846-2.259-1.308-3.609c-0.458-1.354-0.88-2.764-1.264-4.226
					c-0.378,1.462-0.792,2.872-1.245,4.226c-0.453,1.351-0.886,2.553-1.298,3.609h-1.776c-0.675-1.509-1.332-3.226-1.977-5.162
					c-0.645-1.927-1.248-4.009-1.818-6.246h2.19c0.149,0.685,0.323,1.431,0.53,2.237c0.204,0.806,0.418,1.605,0.647,2.41
					c0.226,0.806,0.461,1.581,0.713,2.327c0.248,0.747,0.483,1.397,0.703,1.955c0.248-0.688,0.493-1.416,0.734-2.187
					c0.242-0.769,0.471-1.54,0.691-2.323c0.221-0.781,0.431-1.552,0.629-2.306c0.193-0.752,0.367-1.456,0.512-2.113h1.688
					c0.133,0.657,0.295,1.36,0.484,2.113c0.192,0.753,0.396,1.524,0.615,2.306c0.221,0.783,0.449,1.555,0.692,2.323
					c0.242,0.771,0.486,1.5,0.733,2.187c0.221-0.557,0.449-1.208,0.692-1.955c0.242-0.747,0.479-1.521,0.711-2.327
					c0.235-0.805,0.459-1.604,0.66-2.41c0.204-0.806,0.381-1.552,0.527-2.237h2.104c-0.57,2.237-1.178,4.319-1.818,6.249
					c-0.648,1.933-1.299,3.649-1.974,5.159H199.981z"/>
			</g>
		</g>
		<g>
			<g>
				<path fill="#FFD444" d="M218.502,155.009c-0.409-1.057-0.846-2.259-1.307-3.609c-0.459-1.354-0.88-2.764-1.258-4.226
					c-0.385,1.462-0.804,2.872-1.259,4.226c-0.452,1.351-0.882,2.553-1.288,3.609h-1.778c-0.676-1.509-1.333-3.226-1.978-5.159
					c-0.644-1.93-1.251-4.012-1.821-6.249h2.196c0.146,0.685,0.319,1.431,0.524,2.237c0.204,0.806,0.417,1.605,0.651,2.41
					c0.222,0.806,0.461,1.581,0.712,2.327c0.248,0.747,0.483,1.397,0.699,1.955c0.248-0.688,0.493-1.416,0.738-2.187
					c0.238-0.769,0.467-1.54,0.687-2.323c0.223-0.781,0.427-1.552,0.626-2.306c0.198-0.752,0.369-1.456,0.513-2.113h1.692
					c0.13,0.657,0.292,1.36,0.483,2.113c0.191,0.753,0.391,1.524,0.613,2.306c0.224,0.783,0.453,1.555,0.694,2.323
					c0.239,0.771,0.483,1.5,0.731,2.187c0.223-0.557,0.453-1.208,0.694-1.955s0.477-1.521,0.712-2.327
					c0.229-0.805,0.453-1.604,0.661-2.41c0.2-0.806,0.377-1.552,0.523-2.237h2.106c-0.569,2.237-1.176,4.319-1.821,6.249
					c-0.645,1.933-1.302,3.649-1.974,5.159H218.502z"/>
			</g>
		</g>
		<g>
			<g>
				<path fill="#FFD444" d="M237.02,155.009c-0.409-1.057-0.846-2.259-1.305-3.609c-0.465-1.354-0.883-2.764-1.264-4.226
					c-0.377,1.462-0.796,2.872-1.251,4.226c-0.453,1.351-0.886,2.553-1.295,3.609h-1.775c-0.673-1.509-1.33-3.226-1.978-5.159
					c-0.641-1.93-1.248-4.012-1.818-6.249h2.193c0.149,0.685,0.323,1.431,0.527,2.237c0.202,0.806,0.421,1.605,0.647,2.41
					c0.227,0.806,0.462,1.581,0.71,2.327c0.251,0.747,0.483,1.397,0.706,1.955c0.248-0.688,0.493-1.416,0.735-2.187
					c0.244-0.769,0.473-1.54,0.69-2.323c0.216-0.781,0.427-1.552,0.625-2.306c0.199-0.752,0.373-1.456,0.515-2.113h1.691
					c0.131,0.657,0.292,1.36,0.484,2.113c0.188,0.753,0.396,1.524,0.613,2.306c0.217,0.783,0.446,1.555,0.691,2.323
					c0.238,0.771,0.487,1.5,0.734,2.187c0.224-0.557,0.452-1.208,0.691-1.955c0.242-0.747,0.48-1.521,0.716-2.327
					c0.231-0.805,0.451-1.604,0.657-2.41c0.204-0.806,0.38-1.552,0.525-2.237h2.107c-0.57,2.237-1.178,4.319-1.822,6.249
					c-0.645,1.933-1.301,3.649-1.976,5.159H237.02z"/>
			</g>
		</g>
		<g>
			<g>
				<path fill="#FFD444" d="M247.549,153.826c0,0.39-0.13,0.737-0.39,1.029c-0.267,0.297-0.626,0.44-1.078,0.44
					c-0.453,0-0.812-0.143-1.073-0.44c-0.266-0.292-0.396-0.639-0.396-1.029c0-0.396,0.13-0.738,0.396-1.035
					c0.261-0.291,0.62-0.44,1.073-0.44c0.452,0,0.811,0.149,1.078,0.44C247.419,153.088,247.549,153.429,247.549,153.826"/>
			</g>
		</g>
		<g>
			<g>
				<path fill="#FFD444" d="M253.675,144.104c0.248-0.161,0.623-0.328,1.13-0.502c0.502-0.176,1.085-0.266,1.744-0.266
					c0.815,0,1.543,0.148,2.184,0.44c0.632,0.292,1.168,0.7,1.611,1.229c0.435,0.524,0.772,1.153,0.998,1.881
					c0.223,0.733,0.341,1.539,0.341,2.416c0,0.923-0.14,1.754-0.405,2.491c-0.277,0.737-0.654,1.363-1.156,1.874
					c-0.497,0.514-1.094,0.908-1.796,1.187c-0.704,0.278-1.495,0.418-2.371,0.418c-0.95,0-1.794-0.065-2.525-0.198
					c-0.731-0.133-1.332-0.264-1.794-0.394v-16.349l2.04-0.35V144.104z M253.675,153.23c0.202,0.062,0.489,0.112,0.864,0.168
					c0.372,0.049,0.839,0.074,1.394,0.074c1.098,0,1.974-0.359,2.634-1.084c0.657-0.725,0.985-1.753,0.985-3.086
					c0-0.583-0.056-1.131-0.174-1.642c-0.118-0.515-0.306-0.961-0.569-1.326c-0.261-0.378-0.604-0.669-1.023-0.883
					c-0.415-0.214-0.917-0.315-1.499-0.315c-0.557,0-1.072,0.096-1.537,0.281c-0.471,0.192-0.827,0.391-1.074,0.595V153.23z"/>
			</g>
		</g>
		<g>
			<g>
				<path fill="#FFD444" d="M304.863,143.602c-0.57,2.132-1.239,4.183-2.008,6.141c-0.769,1.964-1.512,3.714-2.23,5.267h-1.84
					c-0.719-1.552-1.457-3.303-2.226-5.267c-0.774-1.958-1.437-4.009-2.013-6.141h2.2c0.172,0.713,0.384,1.478,0.619,2.292
					c0.247,0.813,0.501,1.612,0.774,2.411c0.266,0.799,0.539,1.568,0.818,2.314c0.277,0.747,0.545,1.41,0.792,1.999
					c0.248-0.588,0.509-1.251,0.787-1.999c0.279-0.746,0.553-1.515,0.824-2.314c0.273-0.799,0.526-1.598,0.769-2.411
					c0.241-0.814,0.452-1.58,0.626-2.292H304.863z"/>
			</g>
		</g>
		<g>
			<g>
				<path fill="#FFD444" d="M317.608,157.137c0.168,0.078,0.373,0.14,0.627,0.208c0.26,0.069,0.507,0.1,0.762,0.1
					c0.799,0,1.432-0.18,1.883-0.539c0.453-0.359,0.868-0.936,1.228-1.741c-0.917-1.76-1.778-3.619-2.577-5.589
					c-0.794-1.964-1.457-3.959-1.983-5.973h2.193c0.161,0.657,0.354,1.363,0.583,2.125c0.223,0.762,0.477,1.543,0.756,2.349
					c0.278,0.806,0.575,1.608,0.898,2.413c0.321,0.803,0.663,1.58,1.01,2.327c0.558-1.537,1.04-3.058,1.449-4.567
					c0.409-1.505,0.801-3.054,1.166-4.647h2.105c-0.526,2.15-1.115,4.214-1.759,6.197c-0.645,1.982-1.339,3.835-2.082,5.561
					c-0.297,0.657-0.601,1.224-0.911,1.701c-0.315,0.474-0.663,0.867-1.041,1.174c-0.385,0.307-0.812,0.536-1.289,0.679
					c-0.471,0.148-1.01,0.223-1.61,0.223c-0.162,0-0.328-0.016-0.502-0.037c-0.18-0.019-0.353-0.05-0.521-0.084
					c-0.167-0.041-0.315-0.078-0.459-0.124c-0.136-0.041-0.235-0.081-0.291-0.108L317.608,157.137z"/>
			</g>
		</g>
		<g>
			<g>
				<path fill="#FFD444" d="M350.895,149.327c0-1.01,0.149-1.893,0.44-2.646c0.298-0.753,0.681-1.379,1.164-1.875
					c0.483-0.499,1.042-0.871,1.668-1.119c0.626-0.254,1.277-0.375,1.933-0.375c1.537,0,2.714,0.48,3.532,1.438
					c0.818,0.957,1.227,2.416,1.227,4.377v0.341c0,0.136-0.005,0.266-0.018,0.381h-7.814c0.087,1.187,0.434,2.085,1.036,2.699
					c0.595,0.613,1.529,0.923,2.807,0.923c0.712,0,1.318-0.062,1.809-0.186c0.488-0.124,0.854-0.248,1.109-0.365l0.284,1.716
					c-0.255,0.13-0.687,0.266-1.306,0.415c-0.622,0.143-1.328,0.22-2.12,0.22c-0.992,0-1.853-0.148-2.578-0.453
					c-0.726-0.294-1.32-0.709-1.784-1.239c-0.472-0.524-0.817-1.15-1.047-1.875C351.013,150.981,350.895,150.188,350.895,149.327
					 M358.733,148.206c0.013-0.923-0.218-1.68-0.694-2.268c-0.478-0.595-1.129-0.892-1.964-0.892c-0.464,0-0.879,0.093-1.238,0.278
					c-0.359,0.18-0.665,0.421-0.913,0.709c-0.247,0.294-0.439,0.629-0.582,1.01c-0.137,0.378-0.229,0.768-0.272,1.162H358.733z"/>
			</g>
		</g>
		<g>
			<g>
				<path fill="#FFD444" d="M364.898,143.924c0.466-0.115,1.085-0.241,1.853-0.372c0.77-0.126,1.655-0.198,2.666-0.198
					c0.73,0,1.342,0.102,1.84,0.3c0.5,0.195,0.923,0.483,1.258,0.865c0.1-0.075,0.26-0.174,0.483-0.307
					c0.216-0.134,0.487-0.26,0.806-0.381c0.32-0.124,0.68-0.235,1.078-0.334c0.396-0.093,0.815-0.143,1.274-0.143
					c0.874,0,1.593,0.13,2.151,0.39c0.551,0.254,0.99,0.614,1.301,1.081c0.316,0.468,0.527,1.026,0.639,1.67
					c0.112,0.644,0.16,1.345,0.16,2.106v6.407h-2.039v-5.973c0-0.666-0.029-1.246-0.097-1.729c-0.063-0.483-0.188-0.886-0.374-1.208
					c-0.185-0.322-0.433-0.558-0.743-0.712c-0.315-0.155-0.724-0.229-1.222-0.229c-0.687,0-1.257,0.09-1.696,0.273
					c-0.447,0.186-0.751,0.347-0.918,0.496c0.119,0.384,0.211,0.793,0.267,1.249c0.063,0.456,0.088,0.93,0.088,1.428v6.407h-2.04
					v-5.973c0-0.666-0.036-1.246-0.111-1.729c-0.068-0.483-0.196-0.886-0.384-1.208c-0.185-0.322-0.435-0.558-0.743-0.712
					c-0.315-0.155-0.713-0.229-1.196-0.229c-0.204,0-0.42,0.007-0.656,0.022c-0.235,0.016-0.458,0.034-0.67,0.053
					c-0.211,0.022-0.402,0.05-0.582,0.078c-0.18,0.027-0.292,0.052-0.353,0.065v9.635h-2.039V143.924z"/>
			</g>
		</g>
		<g>
			<g>
				<path fill="#FFD444" d="M398.185,153.826c0,0.39-0.136,0.737-0.396,1.029c-0.26,0.297-0.619,0.44-1.073,0.44
					c-0.459,0-0.818-0.143-1.078-0.44c-0.267-0.292-0.396-0.639-0.396-1.029c0-0.396,0.129-0.738,0.396-1.035
					c0.26-0.291,0.619-0.44,1.078-0.44c0.454,0,0.813,0.149,1.073,0.44C398.049,153.088,398.185,153.429,398.185,153.826"/>
			</g>
		</g>
		<g>
			<g>
				<path fill="#FFD444" d="M266.662,141.536c-0.365,0-0.679-0.118-0.932-0.363c-0.254-0.241-0.384-0.567-0.384-0.978
					c0-0.406,0.13-0.735,0.384-0.973c0.253-0.242,0.567-0.366,0.932-0.366c0.363,0,0.679,0.125,0.932,0.366
					c0.261,0.238,0.385,0.567,0.385,0.973c0,0.411-0.124,0.737-0.385,0.978C267.34,141.418,267.024,141.536,266.662,141.536
					 M267.693,155.009h-2.038v-11.408h2.038V155.009z"/>
			</g>
		</g>
		<g>
			<g>
				<path fill="#FFD444" d="M279.869,145.136c-0.303,0.337-0.712,0.811-1.215,1.428c-0.507,0.61-1.046,1.289-1.625,2.038
					c-0.577,0.743-1.156,1.528-1.732,2.348c-0.577,0.818-1.084,1.599-1.525,2.349h6.277v1.71h-8.712v-1.363
					c0.351-0.641,0.782-1.351,1.293-2.129c0.517-0.771,1.05-1.546,1.613-2.313c0.564-0.769,1.112-1.494,1.648-2.172
					c0.533-0.678,0.998-1.255,1.391-1.722h-5.642v-1.708h8.229V145.136z"/>
			</g>
		</g>
		<g>
			<g>
				<path fill="#FFD444" d="M287.421,143.314c0.817,0,1.512,0.108,2.076,0.319c0.558,0.21,1.01,0.508,1.356,0.898
					c0.341,0.391,0.589,0.85,0.737,1.385c0.143,0.533,0.217,1.122,0.217,1.763v7.132c-0.174,0.031-0.422,0.069-0.737,0.121
					c-0.315,0.053-0.669,0.103-1.06,0.143c-0.397,0.046-0.824,0.086-1.288,0.121c-0.459,0.037-0.918,0.053-1.363,0.053
					c-0.65,0-1.239-0.065-1.784-0.195c-0.54-0.13-1.011-0.34-1.401-0.626c-0.396-0.285-0.706-0.663-0.924-1.127
					c-0.216-0.471-0.328-1.031-0.328-1.691c0-0.629,0.124-1.171,0.383-1.624c0.255-0.452,0.603-0.818,1.042-1.1
					c0.439-0.276,0.954-0.48,1.537-0.617c0.582-0.127,1.201-0.192,1.84-0.192c0.204,0,0.422,0.012,0.638,0.031
					c0.217,0.019,0.429,0.049,0.626,0.09c0.198,0.034,0.372,0.065,0.515,0.096c0.148,0.031,0.248,0.056,0.31,0.068v-0.57
					c0-0.341-0.037-0.673-0.111-0.998c-0.074-0.329-0.204-0.626-0.397-0.877c-0.191-0.257-0.445-0.465-0.774-0.617
					c-0.333-0.155-0.762-0.229-1.288-0.229c-0.67,0-1.259,0.049-1.76,0.142c-0.509,0.094-0.886,0.192-1.134,0.292l-0.241-1.686
					c0.26-0.117,0.706-0.235,1.313-0.337C286.039,143.366,286.703,143.314,287.421,143.314 M287.595,153.537
					c0.483,0,0.91-0.009,1.282-0.028c0.371-0.024,0.683-0.068,0.936-0.127v-3.398c-0.149-0.071-0.385-0.136-0.712-0.186
					c-0.329-0.053-0.731-0.078-1.196-0.078c-0.31,0-0.639,0.022-0.979,0.065c-0.348,0.043-0.656,0.136-0.942,0.272
					c-0.284,0.143-0.52,0.335-0.712,0.574c-0.192,0.238-0.284,0.561-0.284,0.954c0,0.73,0.228,1.236,0.699,1.527
					C286.15,153.398,286.789,153.537,287.595,153.537"/>
			</g>
		</g>
		<g>
			<g>
				<path fill="#FFD444" d="M310.72,153.537c0.836,0,1.455-0.108,1.858-0.328c0.396-0.22,0.601-0.57,0.601-1.053
					c0-0.499-0.198-0.889-0.595-1.187c-0.391-0.292-1.042-0.62-1.952-0.985c-0.434-0.173-0.854-0.353-1.264-0.539
					c-0.396-0.183-0.744-0.397-1.035-0.645c-0.298-0.25-0.527-0.552-0.707-0.901c-0.172-0.35-0.26-0.784-0.26-1.295
					c0-1.013,0.372-1.813,1.116-2.401c0.749-0.595,1.766-0.889,3.054-0.889c0.317,0,0.639,0.015,0.96,0.052
					c0.323,0.038,0.627,0.083,0.898,0.13c0.285,0.052,0.527,0.111,0.738,0.167c0.21,0.056,0.378,0.112,0.495,0.155l-0.371,1.753
					c-0.224-0.114-0.563-0.235-1.034-0.359c-0.465-0.124-1.029-0.188-1.687-0.188c-0.569,0-1.071,0.115-1.493,0.337
					c-0.427,0.229-0.639,0.585-0.639,1.066c0,0.248,0.05,0.471,0.144,0.663c0.099,0.186,0.241,0.359,0.439,0.514
					s0.44,0.294,0.732,0.427c0.296,0.131,0.643,0.267,1.059,0.416c0.538,0.205,1.021,0.406,1.444,0.604
					c0.427,0.198,0.786,0.428,1.084,0.691c0.304,0.263,0.533,0.582,0.693,0.954c0.161,0.371,0.242,0.83,0.242,1.372
					c0,1.053-0.396,1.85-1.171,2.392c-0.787,0.542-1.902,0.812-3.352,0.812c-1.004,0-1.798-0.083-2.367-0.254
					c-0.571-0.167-0.962-0.294-1.166-0.381l0.378-1.76c0.229,0.087,0.608,0.223,1.115,0.397
					C309.194,153.454,309.876,153.537,310.72,153.537"/>
			</g>
		</g>
		<g>
			<g>
				<path fill="#FFD444" d="M333.607,153.537c0.837,0,1.45-0.108,1.854-0.328c0.401-0.22,0.606-0.57,0.606-1.053
					c0-0.499-0.197-0.889-0.595-1.187c-0.396-0.292-1.048-0.62-1.952-0.985c-0.439-0.173-0.86-0.353-1.264-0.539
					c-0.402-0.183-0.75-0.397-1.041-0.645c-0.292-0.25-0.527-0.552-0.699-0.901c-0.182-0.35-0.268-0.784-0.268-1.295
					c0-1.013,0.372-1.813,1.122-2.401c0.743-0.595,1.759-0.889,3.048-0.889c0.323,0,0.645,0.015,0.967,0.052
					c0.322,0.038,0.62,0.083,0.899,0.13c0.277,0.052,0.52,0.111,0.73,0.167c0.216,0.056,0.378,0.112,0.495,0.155l-0.371,1.753
					c-0.218-0.114-0.564-0.235-1.028-0.359c-0.471-0.124-1.035-0.188-1.692-0.188c-0.569,0-1.071,0.115-1.493,0.337
					c-0.421,0.229-0.639,0.585-0.639,1.066c0,0.248,0.05,0.471,0.149,0.663c0.093,0.186,0.242,0.359,0.434,0.514
					c0.198,0.155,0.447,0.294,0.737,0.427c0.291,0.131,0.645,0.267,1.054,0.416c0.545,0.205,1.021,0.406,1.45,0.604
					c0.421,0.198,0.787,0.428,1.084,0.691c0.298,0.263,0.527,0.582,0.694,0.954c0.154,0.371,0.234,0.83,0.234,1.372
					c0,1.053-0.39,1.85-1.17,2.392c-0.781,0.542-1.896,0.812-3.347,0.812c-1.011,0-1.797-0.083-2.372-0.254
					c-0.571-0.167-0.954-0.294-1.16-0.381l0.372-1.76c0.235,0.087,0.608,0.223,1.121,0.397
					C332.077,153.454,332.759,153.537,333.607,153.537"/>
			</g>
		</g>
		<g>
			<g>
				<path fill="#FFD444" d="M343.745,143.602h4.325v1.708h-4.325v5.267c0,0.57,0.043,1.044,0.136,1.416
					c0.087,0.372,0.217,0.669,0.391,0.88c0.174,0.21,0.397,0.359,0.657,0.446c0.266,0.087,0.57,0.137,0.922,0.137
					c0.614,0,1.109-0.075,1.481-0.211c0.372-0.142,0.632-0.238,0.781-0.297l0.39,1.692c-0.203,0.103-0.557,0.229-1.071,0.381
					c-0.515,0.159-1.097,0.232-1.761,0.232c-0.767,0-1.411-0.099-1.914-0.297c-0.508-0.198-0.91-0.493-1.22-0.892
					c-0.304-0.394-0.521-0.88-0.645-1.456c-0.124-0.576-0.187-1.246-0.187-2.004v-10.184l2.039-0.354V143.602z"/>
			</g>
		</g>
		<g>
			<g>
				<path fill="#FFD444" d="M387.541,153.537c0.835,0,1.454-0.108,1.853-0.328c0.407-0.22,0.606-0.57,0.606-1.053
					c0-0.499-0.199-0.889-0.595-1.187c-0.391-0.292-1.041-0.62-1.952-0.985c-0.439-0.173-0.861-0.353-1.265-0.539
					c-0.396-0.183-0.75-0.397-1.042-0.645c-0.289-0.25-0.524-0.552-0.699-0.901c-0.172-0.35-0.267-0.784-0.267-1.295
					c0-1.013,0.379-1.813,1.121-2.401c0.746-0.595,1.768-0.889,3.055-0.889c0.318,0,0.639,0.015,0.962,0.052
					c0.322,0.038,0.619,0.083,0.897,0.13c0.279,0.052,0.527,0.111,0.738,0.167c0.212,0.056,0.377,0.112,0.488,0.155l-0.371,1.753
					c-0.217-0.114-0.557-0.235-1.027-0.359c-0.471-0.124-1.029-0.188-1.688-0.188c-0.575,0-1.07,0.115-1.498,0.337
					c-0.422,0.229-0.631,0.585-0.631,1.066c0,0.248,0.041,0.471,0.141,0.663c0.095,0.186,0.242,0.359,0.435,0.514
					c0.199,0.155,0.446,0.294,0.738,0.427c0.296,0.131,0.644,0.267,1.051,0.416c0.547,0.205,1.024,0.406,1.452,0.604
					c0.42,0.198,0.786,0.428,1.09,0.691c0.297,0.263,0.527,0.582,0.688,0.954c0.16,0.371,0.242,0.83,0.242,1.372
					c0,1.053-0.391,1.85-1.177,2.392c-0.782,0.542-1.896,0.812-3.346,0.812c-1.006,0-1.8-0.083-2.367-0.254
					c-0.571-0.167-0.962-0.294-1.166-0.381l0.372-1.76c0.235,0.087,0.606,0.223,1.121,0.397
					C386.009,153.454,386.691,153.537,387.541,153.537"/>
			</g>
		</g>
		<g>
			<g>
				<path fill="#FFD444" d="M406.48,143.354c0.175,0,0.374,0.012,0.603,0.037c0.223,0.019,0.446,0.05,0.67,0.09
					c0.216,0.034,0.42,0.068,0.6,0.103c0.187,0.043,0.323,0.074,0.41,0.105l-0.354,1.775c-0.16-0.059-0.427-0.127-0.799-0.208
					c-0.379-0.081-0.854-0.121-1.438-0.121c-0.383,0-0.757,0.04-1.134,0.121c-0.371,0.08-0.614,0.13-0.73,0.161v9.592h-2.039
					v-10.931c0.482-0.173,1.078-0.334,1.796-0.495C404.783,143.434,405.582,143.354,406.48,143.354"/>
			</g>
		</g>
		<g>
			<g>
				<path fill="#FFD444" d="M420.919,154.681c-0.471,0.115-1.09,0.242-1.859,0.372c-0.768,0.13-1.653,0.198-2.663,0.198
					c-0.882,0-1.617-0.126-2.22-0.384c-0.6-0.254-1.085-0.62-1.444-1.087c-0.371-0.468-0.631-1.022-0.791-1.654
					c-0.163-0.642-0.243-1.345-0.243-2.119v-6.404h2.039v5.964c0,1.387,0.224,2.388,0.663,2.983
					c0.439,0.601,1.178,0.905,2.219,0.905c0.217,0,0.439-0.013,0.676-0.025c0.235-0.016,0.451-0.031,0.655-0.056
					c0.206-0.022,0.391-0.044,0.559-0.062c0.172-0.025,0.291-0.05,0.366-0.081v-9.629h2.044V154.681z"/>
			</g>
		</g>
		<linearGradient id="SVGID_13_" gradientUnits="userSpaceOnUse" x1="82.8311" y1="26.7817" x2="82.831" y2="151.269">
			<stop  offset="0" style="stop-color:#FFD444"/>
			<stop  offset="0.5108" style="stop-color:#DD8E0F"/>
			<stop  offset="0.6184" style="stop-color:#DF9112"/>
			<stop  offset="0.7218" style="stop-color:#E39B19"/>
			<stop  offset="0.8235" style="stop-color:#EBAC24"/>
			<stop  offset="0.9235" style="stop-color:#F6C235"/>
			<stop  offset="0.987" style="stop-color:#FFD444"/>
		</linearGradient>
		<path fill="url(#SVGID_13_)" d="M126.079,102.861c-1.822-3.743-4.146-7.06-6.978-9.95c-2.838-2.885-5.968-5.32-9.392-7.297
			c-3.424-1.98-6.792-3.561-10.108-4.735c2.247-1.71,4.36-3.532,6.337-5.46c1.98-1.924,3.718-4.01,5.218-6.259
			c1.493-2.247,2.671-4.704,3.526-7.378c0.858-2.675,1.286-5.671,1.286-8.989c0-2.139-0.428-4.599-1.286-7.382
			c-0.855-2.779-2.51-5.397-4.973-7.864c-2.463-2.46-5.909-4.542-10.347-6.253c-4.443-1.714-10.3-2.572-17.576-2.572
			c-2.783,0-5.751,0.081-8.906,0.242c-3.154,0.161-6.715,0.241-10.672,0.241c-0.855,0-2.061-0.024-3.606-0.08
			c-1.556-0.056-3.322-0.105-5.299-0.161c-1.98-0.056-4.09-0.105-6.34-0.161c-2.244-0.05-4.44-0.081-6.579-0.081
			c-2.352,0-3.529,0.483-3.529,1.444c0,0.967,0.908,1.447,2.727,1.447c1.178,0,2.355,0.027,3.533,0.08
			c1.174,0.053,2.082,0.187,2.727,0.4c2.671,0.536,4.438,1.499,5.296,2.888c0.858,1.392,1.388,3.477,1.605,6.26
			c0.105,1.282,0.186,2.646,0.239,4.09c0.053,1.443,0.083,3.399,0.083,5.859v9.306v14.762v28.248c0,7.381-0.031,14.067-0.083,20.055
			c-0.053,5.999-0.294,10.702-0.719,14.124c-0.266,1.952-0.625,3.641-1.078,5.075c1.221-1.509,2.386-3.606,3.923-8.937
			c0.273-0.298,1.738-5.206,2.212-7.229c1.06-4.521,2.25-8.995,4.258-13.25c-0.942,0.053-1.927,0.304-2.597-0.66
			c3.204-2.135,4.818-3.87,5.082-5.493c-0.75,0.012-1.497,0.08-2.231,0.019c-0.725-0.06-1.432-0.248-2.15-0.378
			c0.803-0.577,1.593-0.958,2.33-1.423c0.741-0.459,1.432-1.007,2.145-1.516c-3.043,0.071-4.475-0.492-5.02-1.313
			c3.353-0.967,4.89-1.847,7.338-4.199c0.688-0.662,1.4-1.295,2.058-1.988c3.272-3.452,7.204-5.813,11.855-6.771
			c5.602-1.149,11.22-1.063,16.779,0.438c2.153,0.582,3.923,1.704,5.035,3.678c0.322,0.573,0.747,0.815,1.32,0.995
			c3.142,0.985,6.281,1.989,9.414,3.005c2.458,0.794,4.5,2.083,5.553,4.593c0.688,1.627,0.927,3.291,0.713,5.038
			c-0.251,2.076-0.995,3.979-2.014,5.943c-0.062-0.371-0.118-0.595-0.136-0.817c-0.143-1.829-1.004-3.136-2.699-3.904
			c-4.267-1.934-2.352-0.971-0.539-0.239c-0.353,0.1-6.058,1.305-6.281,1.379c-2.56,0.893-5.132,1.754-7.669,2.702
			c-0.877,0.332-1.76,0.812-2.073,1.828c-0.254,0.843-0.551,1.686-0.675,2.554c-0.465,3.331,0.242,6.569,0.96,9.785
			c0.66,2.963,2.073,5.655,3.325,8.397c1.403,3.08,2.581,6.216,2.792,9.644c0.065,1.069,0.037,2.132-0.211,3.247
			c0.391-0.133,0.774-0.27,1.159-0.412c5.398-2.029,9.842-4.704,13.318-8.022c3.477-3.315,6.07-7.062,7.784-11.235
			c1.71-4.171,2.566-8.397,2.566-12.674C128.806,110.831,127.895,106.607,126.079,102.861 M92.539,77.186
			c-1.388,1.178-2.997,1.983-4.812,2.411c-1.819,0.424-4.069,0.638-6.74,0.638c-3.638,0-6.154-0.161-7.542-0.483
			c-0.322-0.103-0.592-0.264-0.806-0.477c-0.213-0.218-0.316-0.645-0.316-1.286V38.353c0-1.5,0.477-2.407,1.444-2.727
			c0.853-0.217,1.655-0.322,2.405-0.322h2.888c3.421,0,6.393,0.803,8.905,2.404c2.51,1.605,4.599,3.613,6.259,6.018
			c1.661,2.411,2.888,5.085,3.694,8.025c0.799,2.944,1.202,5.752,1.202,8.426C99.121,67.988,96.927,73.656,92.539,77.186"/>
		<linearGradient id="SVGID_14_" gradientUnits="userSpaceOnUse" x1="0" y1="81.7017" x2="161.8721" y2="81.7017">
			<stop  offset="0" style="stop-color:#DD8E0F"/>
			<stop  offset="0.5455" style="stop-color:#FFD444"/>
			<stop  offset="0.987" style="stop-color:#DD9110"/>
		</linearGradient>
		<path fill="url(#SVGID_14_)" d="M80.938,162.638c-21.619,0-41.944-8.419-57.229-23.701C8.422,123.647,0,103.319,0,81.703
			C0,60.084,8.422,39.76,23.708,24.471C38.994,9.185,59.318,0.766,80.938,0.766c21.62,0,41.944,8.419,57.23,23.705
			c15.289,15.289,23.705,35.613,23.705,57.232c0,21.616-8.416,41.944-23.705,57.233C122.881,154.219,102.557,162.638,80.938,162.638
			 M80.938,7.502c-19.819,0-38.455,7.716-52.467,21.734C14.456,43.249,6.736,61.884,6.736,81.703s7.719,38.452,21.734,52.467
			c14.012,14.013,32.648,21.734,52.467,21.734c19.819,0,38.455-7.722,52.467-21.734c14.015-14.015,21.734-32.647,21.734-52.467
			s-7.719-38.454-21.734-52.467C119.393,15.218,100.757,7.502,80.938,7.502"/>
	</g>
</g>
<g id="темные_кусочки_1_">
	<g>
		<g>
			<g>
				<linearGradient id="SVGID_15_" gradientUnits="userSpaceOnUse" x1="275.1001" y1="36.2319" x2="275.1001" y2="64.5612">
					<stop  offset="0" style="stop-color:#FFD444"/>
					<stop  offset="0.1108" style="stop-color:#FED141"/>
					<stop  offset="0.2237" style="stop-color:#F8C739"/>
					<stop  offset="0.3377" style="stop-color:#F0B52B"/>
					<stop  offset="0.4516" style="stop-color:#E49D1A"/>
					<stop  offset="0.5108" style="stop-color:#DD8E0F"/>
					<stop  offset="0.5344" style="stop-color:#DF9112"/>
					<stop  offset="0.987" style="stop-color:#FFD444"/>
				</linearGradient>
				<path fill="url(#SVGID_15_)" d="M263.623,56.396c0-1.102,0.208-2.082,0.619-2.942c0.415-0.868,0.979-1.627,1.698-2.28
					c0.715-0.66,1.558-1.218,2.527-1.674c0.973-0.458,2.02-0.83,3.142-1.124c1.122-0.288,2.29-0.502,3.501-0.638
					c1.214-0.14,2.416-0.226,3.613-0.257v-1.211c0-1.069-0.078-1.974-0.229-2.711c-0.156-0.744-0.419-1.345-0.794-1.815
					c-0.372-0.465-0.873-0.799-1.5-1.004c-0.625-0.208-1.419-0.31-2.381-0.31c-0.822,0-1.649,0.075-2.477,0.229
					c-0.823,0.154-1.611,0.341-2.37,0.558c-0.756,0.223-1.453,0.458-2.084,0.712c-0.632,0.251-1.166,0.486-1.593,0.7h-0.025
					l-1.028-2.2c0.292-0.279,0.806-0.626,1.537-1.053c0.73-0.427,1.599-0.842,2.595-1.239c1.004-0.396,2.08-0.744,3.235-1.031
					c1.152-0.289,2.301-0.431,3.445-0.431c1.607,0,2.958,0.161,4.064,0.49c1.109,0.329,2.007,0.854,2.694,1.58
					c0.688,0.725,1.177,1.667,1.481,2.816c0.298,1.152,0.44,2.568,0.44,4.226v14.939h2.843v2.221
					c-0.29,0.074-0.637,0.161-1.046,0.264c-0.403,0.102-0.824,0.188-1.271,0.275c-0.439,0.084-0.892,0.155-1.35,0.217
					c-0.458,0.062-0.892,0.09-1.301,0.09c-0.427,0-0.806-0.015-1.116-0.052c-0.311-0.043-0.565-0.143-0.767-0.304
					c-0.198-0.158-0.346-0.396-0.443-0.719c-0.102-0.322-0.148-0.758-0.148-1.307v-0.846c-0.201,0.183-0.527,0.456-0.976,0.812
					c-0.452,0.362-1.004,0.722-1.661,1.078s-1.406,0.672-2.246,0.939s-1.738,0.399-2.699,0.399c-1.056,0-2.063-0.139-3.018-0.421
					c-0.954-0.281-1.797-0.722-2.519-1.316c-0.727-0.595-1.304-1.363-1.737-2.305C263.839,58.813,263.623,57.691,263.623,56.396
					 M273.518,60.29c0.322,0,0.703-0.043,1.146-0.127c0.443-0.087,0.898-0.205,1.375-0.359c0.477-0.148,0.942-0.34,1.411-0.57
					c0.463-0.229,0.888-0.477,1.273-0.756v-8.427c-1.834,0-3.369,0.161-4.599,0.477c-1.226,0.323-2.208,0.744-2.942,1.277
					c-0.732,0.521-1.252,1.122-1.555,1.793c-0.307,0.676-0.459,1.376-0.459,2.107c0,0.84,0.112,1.552,0.335,2.131
					c0.216,0.579,0.523,1.054,0.913,1.419c0.387,0.368,0.852,0.635,1.385,0.79C272.338,60.207,272.911,60.29,273.518,60.29"/>
			</g>
		</g>
		<g>
			<g>
				<linearGradient id="SVGID_16_" gradientUnits="userSpaceOnUse" x1="298.8481" y1="86.8892" x2="298.8481" y2="115.3904">
					<stop  offset="0" style="stop-color:#FFD444"/>
					<stop  offset="0.1108" style="stop-color:#FED141"/>
					<stop  offset="0.2237" style="stop-color:#F8C739"/>
					<stop  offset="0.3377" style="stop-color:#F0B52B"/>
					<stop  offset="0.4516" style="stop-color:#E49D1A"/>
					<stop  offset="0.5108" style="stop-color:#DD8E0F"/>
					<stop  offset="0.5344" style="stop-color:#DF9112"/>
					<stop  offset="0.987" style="stop-color:#FFD444"/>
				</linearGradient>
				<path fill="url(#SVGID_16_)" d="M299.751,114.616c-1.945,0-3.643-0.334-5.1-1.007c-1.461-0.672-2.677-1.611-3.655-2.816
					c-0.979-1.208-1.71-2.645-2.199-4.319c-0.489-1.672-0.732-3.51-0.732-5.508c0-2.032,0.305-3.885,0.918-5.558
					s1.462-3.108,2.553-4.304c1.091-1.199,2.386-2.128,3.885-2.785c1.493-0.657,3.13-0.985,4.902-0.985
					c2.887,0,5.124,0.784,6.709,2.349c1.593,1.568,2.455,3.882,2.591,6.952c0.018,0.992,0.012,1.862-0.024,2.603
					c-0.025,0.737-0.105,1.395-0.229,1.958h-15.851v0.136c0.063,1.741,0.31,3.229,0.757,4.467c0.445,1.233,1.021,2.25,1.729,3.037
					c0.712,0.787,1.524,1.36,2.441,1.716c0.916,0.359,1.871,0.539,2.862,0.539c0.656,0,1.319-0.062,1.995-0.183
					c0.669-0.124,1.313-0.282,1.933-0.483c0.621-0.195,1.184-0.427,1.698-0.688c0.508-0.257,0.937-0.517,1.271-0.777l0.96,2.243
					c-0.445,0.446-1.004,0.874-1.685,1.286c-0.676,0.412-1.438,0.771-2.269,1.087c-0.83,0.31-1.71,0.567-2.646,0.756
					C301.636,114.523,300.693,114.616,299.751,114.616 M299.175,90.085c-0.763,0-1.474,0.13-2.132,0.399
					c-0.656,0.264-1.232,0.722-1.729,1.366c-0.495,0.639-0.898,1.494-1.214,2.559c-0.315,1.072-0.509,2.417-0.583,4.034h10.627
					c0.03-0.304,0.056-0.626,0.062-0.96c0.007-0.334,0.013-0.651,0.013-0.939c0-0.858-0.093-1.67-0.278-2.45
					c-0.187-0.784-0.471-1.469-0.868-2.064c-0.396-0.595-0.917-1.072-1.549-1.418C300.892,90.259,300.104,90.085,299.175,90.085"/>
			</g>
		</g>
		<path fill="#DD9110" d="M299.592,53.773c0-0.691,0.051-1.367,0.147-2.022l-1.414-4.138c-0.938,1.768-1.486,3.883-1.486,6.16
			c0,4.263,1.913,7.969,4.728,9.86h2.027l0.166-0.433C301.257,61.216,299.592,57.743,299.592,53.773z"/>
		<path fill="#FFD444" d="M47.874,10.227c0,0-39.276,24.285-46.013,58.476c0,0,3.867-34.867,33.065-52.963L47.874,10.227z"/>
		<path fill="#FFD444" d="M72.983,32.868c0,0,25.865-0.849,29.872,4.026s1.398,0,1.398,0s-1.392-4.325-25.142-5.413
			S72.983,32.868,72.983,32.868z"/>
		<path fill="#FFFFFF" d="M6.062,57.38c4.824-17.593,23.575-45.821,45.655-45.987c0,0-14.111,4.648-26.397,18.76
			C13.959,43.203,6.062,57.38,6.062,57.38z"/>
		<path fill="#FFFFFF" d="M54.374,99.051L51.717,37.79c0,0,4.981-2.656,5.147,19.59s1.826,34.864-2.574,42.335"/>
		<path fill="#FFFFFF" d="M52.879,31.481h28.39c0,0-7.305,1.66-15.44,1.992S52.879,31.481,52.879,31.481z"/>
		<path fill="#FFFFFF" d="M92.558,39.616c6.973,1.66,13.779,10.092,8.301,25.134c0,0,0.119-7.37-1.473-14.841
			C98.194,44.317,92.558,39.616,92.558,39.616z"/>
		<path fill="#6A3C0F" d="M147.843,43.102c0,0,11.621,21.25,11.123,31.876s-4.482,21.084-4.482,21.084s2.158-9.629,1.328-21.417
			S149.835,47.917,147.843,43.102z"/>
		<path fill="#6A3C0F" d="M102.854,35.797c0,0,11.548,8.226,11.12,17.598s-11.12,19.424-11.12,19.424s5.988-11.456,5.566-18.511
			S104.852,39.248,102.854,35.797z"/>
		<path fill="#6A3C0F" d="M55.091,41.2c0,0,4.761-0.09,4.595,1.902s0,42.003,0,42.003s-0.607,5.146-2.379,6.475
			S55.542,42.358,55.091,41.2z"/>
		<path fill="#6A3C0F" d="M121.943,103.865c0,0,5.479,12.616,3.653,18.428s-13.512,19.425-13.512,19.425s7.037-11.122,9.195-18.926
			S121.44,109.643,121.943,103.865z"/>
		<path fill="#FFD444" d="M71.811,79.352v3.956c0,0,12.287,1.711,16.642,0s10.647-6.93,10.111-16.905
			c0,0-4.514,12.051-10.735,13.009S71.811,79.352,71.811,79.352z"/>
		<path fill="#FFD444" d="M99.386,84.552l3.469-2.279c0,0,23.272,7.93,25.123,29.448C127.978,111.721,124.007,91.085,99.386,84.552z
			"/>
		<path fill="#FFD444" d="M113.986,10.227c0,0,39.276,24.285,46.013,58.476c0,0-3.867-34.867-33.065-52.963L113.986,10.227z"/>
		<path fill="#FFD444" d="M155.378,88.862c0,0-1.568,22.646-15.08,36.485l2.511,1.88C142.81,127.228,155.774,109.847,155.378,88.862
			z"/>
		<path fill="#FFD444" d="M6.762,93.102c0,0,3.599,33.459,28.432,50.126c7.067,4.743,12,3.333,12,3.333S16.664,135.81,6.762,93.102z
			"/>
		<path fill="#FFFFFF" d="M115.303,147.962c0,0,9.831-1.571,20.752-11.059s12.95-21.527,12.95-21.527s-6.895,10.521-14.61,17.875
			C123.77,143.378,115.303,147.962,115.303,147.962z"/>
		<path fill="#FFD444" d="M96.964,119.002c0,0,0-3.862,1.26-5.535c1.152-1.529,8.367-3.525,9.307-3.739s6.281-1.379,6.281-1.379
			s3.45,0.94,3.375,4.961c0,0-4.182-2.763-7.345-1.303S101.028,113.436,96.964,119.002z"/>
		<path fill="#FFFFFF" d="M111.152,111.834c-2.771-0.557-8.519,0.295-10.792,3.542c-4.295,6.138,5.86,18.871,5.86,18.871
			s-4.207-10.456-1.709-16.104C105.735,115.376,110.328,111.721,111.152,111.834z"/>
		<g>
			<path fill="#DD9110" d="M291.998,111.806c0.777,0.719,1.66,1.319,2.665,1.781c0.776,0.357,1.625,0.614,2.536,0.782
				c-1.526-1.743-2.564-4.675-2.694-8.046c-0.074-0.178-0.151-0.352-0.22-0.542c-0.439-1.233-0.694-2.721-0.756-4.462v-0.137h1.524
				c0.273-1.017,0.635-1.943,1.071-2.748h-2.596c0.077-1.617,0.272-2.959,0.582-4.028c0.082-0.276,0.17-0.536,0.264-0.784
				c-3.1,2.355-5.109,6.07-5.109,10.264C289.265,106.875,290.292,109.619,291.998,111.806z"/>
			<path fill="#DD9110" d="M302.072,90.992c0.384,0.295,0.733,0.623,1.007,1.032c0.396,0.598,0.688,1.283,0.867,2.063
				c0.186,0.774,0.273,1.593,0.273,2.448c0,0.288,0,0.601-0.01,0.938c0,0.013-0.002,0.023-0.002,0.037
				c0.691,0.988,1.258,2.238,1.641,3.672h3.523c0.121-0.566,0.195-1.218,0.229-1.958c0.029-0.74,0.041-1.605,0.023-2.597
				c-0.063-1.369-0.275-2.581-0.625-3.65c-1.982-1.25-4.318-1.99-6.835-1.99C302.133,90.988,302.104,90.992,302.072,90.992z"/>
		</g>
		<path fill="#DD9110" d="M270.407,59.261c-0.391-0.365-0.694-0.836-0.917-1.419c-0.217-0.582-0.329-1.289-0.329-2.132
			c0-0.672,0.133-1.316,0.389-1.938c-2.32,0.851-4.313,2.454-5.742,4.544c0.109,0.517,0.261,0.997,0.464,1.435
			c0.435,0.941,1.017,1.707,1.742,2.302c0.725,0.596,1.562,1.032,2.516,1.317c0.434,0.129,0.882,0.219,1.336,0.289
			c0.327-1.475,0.831-2.77,1.457-3.809C270.985,59.697,270.671,59.513,270.407,59.261z"/>
		<path fill="#DD9110" d="M282.63,62.743c2.983-28.185-5.352-22.259-5.352-22.259c4.593,3.629,2.133,22.339,2.133,22.339
			L282.63,62.743z"/>
		<g>
			<path fill="#DD9110" d="M213.169,101.47c-0.085-0.198-0.168-0.397-0.271-0.585c-0.589-1.059-1.348-2.004-2.271-2.829
				c-0.922-0.827-1.96-1.564-3.116-2.211c-0.064-0.036-0.127-0.069-0.191-0.105c0.069,0.103,0.144,0.198,0.21,0.303
				c3.714,5.84,2.848,13.039-1.933,16.08c-4.497,2.859-10.853,1.02-14.683-4.066l-0.204,4.431c0.368,0.031,0.876,0.161,1.523,0.387
				c0.648,0.229,1.425,0.477,2.323,0.734c0.902,0.257,1.922,0.49,3.058,0.697c1.141,0.205,2.393,0.31,3.746,0.31
				c2.032,0,3.827-0.294,5.372-0.879c1.552-0.589,2.848-1.363,3.886-2.317c0.766-0.706,1.393-1.476,1.885-2.312
				C213.284,106.766,213.509,104.148,213.169,101.47z"/>
			<path fill="#DD9110" d="M192.025,84.162c-0.542,1.09-0.811,2.298-0.811,3.606c0,1.275,0.224,2.407,0.646,3.414
				c0.098-0.068,0.187-0.145,0.288-0.209c1.564-0.995,3.354-1.411,5.184-1.33c-0.208-0.268-0.392-0.543-0.542-0.831
				c-0.34-0.666-0.514-1.441-0.514-2.327c0-1.13,0.245-2.047,0.701-2.783c-1.583-0.259-3.162-0.267-4.689-0.002
				C192.199,83.853,192.104,84.002,192.025,84.162z"/>
		</g>
		<g>
			<path fill="#DD9110" d="M252.168,114.411c0.774,0.119,1.517,0.176,2.242,0.191c-0.911-0.774-1.656-1.835-2.126-3.09
				c-0.129-0.045-0.265-0.086-0.387-0.137c-0.461-0.192-0.858-0.403-1.193-0.641c-0.334-0.236-0.569-0.475-0.712-0.723l-0.935-3.389
				h-0.46c-0.059,0.791-0.052,1.603,0.047,2.432c0.224,1.873,0.848,3.575,1.742,5.003
				C250.971,114.185,251.552,114.316,252.168,114.411z"/>
			<path fill="#DD9110" d="M263.979,110.124c0.453-0.942,0.672-1.995,0.672-3.157c0-1.175-0.214-2.197-0.651-3.058
				c-0.433-0.867-1.02-1.618-1.754-2.268c-0.731-0.65-1.573-1.227-2.527-1.729c-0.954-0.508-1.958-0.985-3.012-1.446
				c-0.508-0.221-1.009-0.427-1.505-0.624c-2.038,0.442-3.763,1.755-4.944,3.599c0.815,0.448,1.743,0.881,2.806,1.284
				c0.289,0.111,0.567,0.221,0.836,0.33c0.8-0.749,1.778-1.249,2.876-1.38c3.223-0.385,6.216,2.494,6.687,6.43
				c0.135,1.132,0.041,2.226-0.23,3.223C263.522,110.955,263.774,110.556,263.979,110.124z"/>
		</g>
		<g>
			<path fill="#DD9110" d="M368.348,111.583c-0.202-0.064-0.401-0.131-0.587-0.208c-0.459-0.192-0.854-0.403-1.189-0.641
				c-0.335-0.236-0.575-0.475-0.712-0.723l-0.937-3.389h-0.921c0.009,1.026,0.148,2.084,0.435,3.144
				c0.449,1.664,1.208,3.139,2.168,4.362c0.475,0.096,0.935,0.207,1.431,0.283c0.884,0.137,1.74,0.205,2.563,0.205
				c0.217,0,0.423-0.012,0.633-0.019C370.073,113.954,369.058,112.909,368.348,111.583z"/>
			<path fill="#DD9110" d="M379.845,110.124c0.451-0.942,0.675-1.995,0.675-3.157c0-1.175-0.217-2.197-0.651-3.058
				c-0.435-0.867-1.021-1.618-1.753-2.268c-0.73-0.65-1.58-1.227-2.527-1.729c-0.954-0.508-1.964-0.985-3.018-1.446
				c-0.763-0.331-1.513-0.642-2.243-0.914c-0.066-0.025-0.123-0.055-0.188-0.081c-0.065,0.016-0.132,0.023-0.197,0.041
				c-1.919,0.518-3.462,1.804-4.496,3.528c0.093,0.059,0.181,0.12,0.277,0.177c0.898,0.53,1.969,1.038,3.202,1.509
				c0.036,0.014,0.069,0.027,0.105,0.042c0.646-0.702,1.451-1.223,2.389-1.476c3.133-0.846,6.512,1.571,7.545,5.397
				c0.484,1.794,0.361,3.576-0.222,5.054C379.188,111.257,379.56,110.723,379.845,110.124z"/>
		</g>
		<path fill="#DD9110" d="M234.478,99.703c-0.164-0.465-0.347-0.895-0.539-1.307l-0.844,2.979c0.085,0.201,0.168,0.408,0.245,0.625
			c1.358,3.85,0.76,8.775-1.337,11.001c-2.097,2.225-4.898,0.908-6.256-2.942c-1.192-3.381-0.875-7.589,0.64-10.072l-1.356-4.082
			c-1.491,1.867-2.379,4.733-2.564,7.828l3.866,10.356h2.884c-0.417,1.105-0.836,2.043-1.258,2.85
			c1.377,0.512,2.826,0.258,4.127-0.874c0.151-0.359,0.303-0.722,0.455-1.102c0.201-0.459,0.48-1.251,0.846-2.373
			c0.365-1.122,0.854-2.646,1.456-4.567c0.21-0.668,0.441-1.407,0.682-2.179C235.495,103.762,235.161,101.639,234.478,99.703z"/>
		<g>
			<path fill="#DD9110" d="M197.309,58.476c-3.698-5.817-2.851-12.979,1.88-16.04v-7.283c-1.537,0.291-3.016,0.848-4.375,1.713
				c-0.299,0.19-0.574,0.406-0.852,0.619v22.641l-1.771,0.286c0.677,1.033,1.425,1.981,2.226,2.85h1.929
				c0.917,0,1.71,0.018,2.385,0.049c0.669,0.031,1.283,0.062,1.844,0.093c0.554,0.028,1.086,0.062,1.589,0.093
				c0.173,0.011,0.356,0.017,0.538,0.023C200.635,62.431,198.736,60.722,197.309,58.476z"/>
			<path fill="#DD9110" d="M216.054,59.062c-1.107-1.937-2.467-3.416-3.774-4.177c-0.073,0.637-0.198,1.237-0.391,1.784
				c-0.315,0.886-0.823,1.636-1.527,2.243c-0.611,0.533-1.382,0.949-2.299,1.269c0.159,0.925,0.428,1.906,0.81,2.903
				c0.617-0.125,1.207-0.269,1.744-0.448c1.815-0.601,3.271-1.403,4.364-2.392C215.389,59.873,215.736,59.474,216.054,59.062z"/>
			<path fill="#DD9110" d="M217.293,56.808c0.449-1.297,0.679-2.636,0.679-4.011c0-1.239-0.226-2.355-0.666-3.353
				c-0.44-1.004-1.065-1.856-1.878-2.565c-0.658-0.577-1.43-1.039-2.305-1.393c0.541,0.605,1.044,1.266,1.5,1.981
				c2.333,3.669,2.828,7.858,1.71,11.231C216.738,58.108,217.061,57.48,217.293,56.808z"/>
		</g>
		<polygon fill="#DD9110" points="230.269,41.296 225.163,41.296 225.163,60.355 225.163,63.268 230.269,63.268 230.269,60.38 		"/>
		<g>
			<polygon fill="#DD9110" points="325.385,111.617 322.243,111.202 322.243,95.958 317.138,96.011 317.138,102 317.24,111.826 
				325.385,111.741 			"/>
			<path fill="#DD9110" d="M346.808,111.518l9.044-0.095l-1.789-0.222V98.283c0-0.955-0.027-1.839-0.082-2.656l-5.15,0.054
				c0.083,0.81,0.126,1.72,0.126,2.739v12.783L346.808,111.518z"/>
			<path fill="#DD9110" d="M338.465,111.202v-12.87c0-0.916-0.033-1.755-0.087-2.543l-5.117,0.053
				c0.062,0.737,0.093,1.557,0.093,2.465v12.895l-3.092,0.415v0.074l11.176-0.117L338.465,111.202z"/>
		</g>
		<path fill="#DD9110" d="M256.823,55.157l-1.695,4.765l-11.687,0.549l2.888-2.841l12.218-16.875
			c-0.077-0.051-0.145-0.116-0.227-0.157c-3.105-1.542-9.231,4.468-13.684,13.424c-1.613,3.246-2.778,6.428-3.469,9.246h12.701
			c0.695-1.152,1.372-2.37,2.012-3.658c0.73-1.469,1.36-2.922,1.906-4.338L256.823,55.157z"/>
		<path fill="#DD9110" d="M282.713,112.251c-0.911,0.476-1.996,0.754-3.164,0.754c-3.208,0-5.808-2.085-5.808-4.658
			c0-0.207,0.037-0.406,0.07-0.606h3.228c-0.025-0.709-0.036-1.6-0.036-2.7v-13.7h-5.108v15.069v2.797
			c0,1.01,0.124,1.862,0.365,2.556c0.244,0.693,0.591,1.251,1.041,1.673c0.453,0.421,0.998,0.722,1.639,0.904
			c0.642,0.183,1.367,0.272,2.175,0.272h0.046c0.719,0,1.481-0.081,2.293-0.238c0.665-0.133,1.313-0.303,1.947-0.494
			C281.968,113.421,282.424,112.87,282.713,112.251z"/>
	</g>
</g>
</svg>
