<?xml version="1.0" encoding="utf-8"?>
<!-- Generator: Adobe Illustrator 16.0.3, SVG Export Plug-In . SVG Version: 6.00 Build 0)  -->
<!DOCTYPE svg PUBLIC "-//W3C//DTD SVG 1.1//EN" "http://www.w3.org/Graphics/SVG/1.1/DTD/svg11.dtd">
<svg version="1.1" xmlns="http://www.w3.org/2000/svg" xmlns:xlink="http://www.w3.org/1999/xlink" x="0px" y="0px"
	 width="599.184px" height="161.872px" viewBox="0 0 599.184 161.872" enable-background="new 0 0 599.184 161.872"
	 xml:space="preserve">
<g id="основа">
	<linearGradient id="SVGID_1_" gradientUnits="userSpaceOnUse" x1="202.2251" y1="27.5952" x2="202.2251" y2="64.922">
		<stop  offset="0" style="stop-color:#FFD444"/>
		<stop  offset="0.1108" style="stop-color:#FED141"/>
		<stop  offset="0.2237" style="stop-color:#F8C739"/>
		<stop  offset="0.3377" style="stop-color:#F0B52B"/>
		<stop  offset="0.4516" style="stop-color:#E49D1A"/>
		<stop  offset="0.5108" style="stop-color:#DD8E0F"/>
		<stop  offset="0.5344" style="stop-color:#DF9112"/>
		<stop  offset="0.987" style="stop-color:#FFD444"/>
	</linearGradient>
	<path fill="url(#SVGID_1_)" d="M204.764,63.907c-2.578,0-4.871-0.434-6.879-1.305c-2.008-0.87-3.694-2.092-5.069-3.672
		c-1.373-1.58-2.417-3.477-3.136-5.689c-0.719-2.212-1.075-4.669-1.075-7.371c0-2.594,0.443-4.971,1.326-7.131
		c0.886-2.162,2.098-4.024,3.641-5.596c1.54-1.574,3.347-2.795,5.414-3.666c2.066-0.87,4.285-1.301,6.649-1.301
		c1.007,0,2.011,0.056,3.009,0.17c1.001,0.115,1.94,0.254,2.817,0.412s1.676,0.325,2.392,0.493c0.716,0.167,1.289,0.288,1.717,0.365
		l-0.412,8.081h-3.319l-1.329-5.289c-0.397-0.443-1.072-0.803-2.033-1.075c-0.967-0.272-2.293-0.412-3.985-0.412
		c-1.419,0-2.727,0.313-3.917,0.938s-2.215,1.543-3.08,2.758c-0.861,1.215-1.531,2.709-2.014,4.487
		c-0.477,1.778-0.719,3.827-0.719,6.147c0,1.996,0.192,3.951,0.57,5.859c0.384,1.906,0.982,3.604,1.797,5.092
		c0.818,1.49,1.872,2.689,3.161,3.595c1.289,0.911,2.842,1.363,4.661,1.363c0.836,0,1.568-0.044,2.185-0.124
		c0.617-0.087,1.156-0.201,1.614-0.344c0.458-0.146,0.846-0.332,1.165-0.552c0.322-0.22,0.604-0.468,0.849-0.744l2.129-4.509
		l2.953,0.459l-1.122,6.749c-0.626,0.034-1.233,0.143-1.819,0.335c-0.588,0.191-1.251,0.396-1.992,0.619
		c-0.741,0.217-1.599,0.416-2.575,0.596C207.361,63.82,206.168,63.907,204.764,63.907"/>
	<linearGradient id="SVGID_2_" gradientUnits="userSpaceOnUse" x1="235.0044" y1="36.9092" x2="235.0044" y2="64.1208">
		<stop  offset="0" style="stop-color:#FFD444"/>
		<stop  offset="0.1108" style="stop-color:#FED141"/>
		<stop  offset="0.2237" style="stop-color:#F8C739"/>
		<stop  offset="0.3377" style="stop-color:#F0B52B"/>
		<stop  offset="0.4516" style="stop-color:#E49D1A"/>
		<stop  offset="0.5108" style="stop-color:#DD8E0F"/>
		<stop  offset="0.5344" style="stop-color:#DF9112"/>
		<stop  offset="0.987" style="stop-color:#FFD444"/>
	</linearGradient>
	<polygon fill="url(#SVGID_2_)" points="220.035,63.381 220.035,60.864 223.307,60.449 223.307,40.444 220.103,39.781 
		220.103,37.333 231.869,37.333 231.869,39.806 228.295,40.469 228.295,58.001 230.793,53.769 242.649,37.333 249.723,37.333 
		249.723,39.806 246.677,40.469 246.677,60.474 249.974,60.89 249.974,63.381 238.162,63.381 238.162,60.89 241.667,60.428 
		241.667,42.712 239.309,46.877 227.406,63.381 	"/>
	<g>
		<g>
			<linearGradient id="SVGID_3_" gradientUnits="userSpaceOnUse" x1="264.6479" y1="36.2017" x2="264.6479" y2="64.6814">
				<stop  offset="0" style="stop-color:#FFD444"/>
				<stop  offset="0.1108" style="stop-color:#FED141"/>
				<stop  offset="0.2237" style="stop-color:#F8C739"/>
				<stop  offset="0.3377" style="stop-color:#F0B52B"/>
				<stop  offset="0.4516" style="stop-color:#E49D1A"/>
				<stop  offset="0.5108" style="stop-color:#DD8E0F"/>
				<stop  offset="0.5344" style="stop-color:#DF9112"/>
				<stop  offset="0.987" style="stop-color:#FFD444"/>
			</linearGradient>
			<path fill="url(#SVGID_3_)" d="M254.393,50.744c0-1.905,0.298-3.709,0.893-5.41c0.595-1.704,1.462-3.198,2.597-4.49
				c1.14-1.286,2.532-2.309,4.18-3.064s3.511-1.134,5.587-1.134c0.762,0,1.494,0.049,2.194,0.148
				c0.707,0.099,1.357,0.22,1.958,0.365c0.604,0.146,1.14,0.304,1.614,0.472c0.474,0.167,0.861,0.315,1.168,0.455l-0.229,6.73
				h-3.089l-1.032-3.799c-0.397-0.518-0.896-0.921-1.5-1.202c-0.601-0.282-1.338-0.425-2.206-0.425
				c-0.871,0-1.705,0.198-2.498,0.595c-0.793,0.396-1.497,0.998-2.117,1.797c-0.616,0.803-1.112,1.804-1.484,3
				c-0.378,1.199-0.57,2.6-0.589,4.202c-0.016,2.061,0.186,3.814,0.607,5.265s0.979,2.631,1.686,3.535
				c0.7,0.908,1.515,1.568,2.448,1.98c0.93,0.412,1.896,0.616,2.907,0.616c0.719,0,1.395-0.056,2.026-0.18
				c0.632-0.124,1.215-0.282,1.751-0.483c0.533-0.198,1.02-0.421,1.466-0.672c0.44-0.252,0.83-0.499,1.165-0.747l1.007,2.2
				c-0.412,0.428-0.92,0.843-1.534,1.245c-0.607,0.406-1.292,0.769-2.045,1.088c-0.756,0.319-1.556,0.579-2.396,0.778
				c-0.84,0.197-1.695,0.297-2.563,0.297c-1.968,0-3.7-0.338-5.188-1.017c-1.487-0.682-2.73-1.604-3.73-2.782
				c-0.998-1.178-1.754-2.565-2.265-4.177S254.408,52.594,254.393,50.744"/>
		</g>
	</g>
	<linearGradient id="SVGID_4_" gradientUnits="userSpaceOnUse" x1="290.689" y1="36.9092" x2="290.689" y2="64.1208">
		<stop  offset="0" style="stop-color:#FFD444"/>
		<stop  offset="0.1108" style="stop-color:#FED141"/>
		<stop  offset="0.2237" style="stop-color:#F8C739"/>
		<stop  offset="0.3377" style="stop-color:#F0B52B"/>
		<stop  offset="0.4516" style="stop-color:#E49D1A"/>
		<stop  offset="0.5108" style="stop-color:#DD8E0F"/>
		<stop  offset="0.5344" style="stop-color:#DF9112"/>
		<stop  offset="0.987" style="stop-color:#FFD444"/>
	</linearGradient>
	<polygon fill="url(#SVGID_4_)" points="282.231,63.381 282.231,60.864 288.203,60.245 288.203,39.849 282.436,40.444 
		281.106,46.97 277.834,46.97 278.061,37.333 303.312,37.333 303.544,46.97 300.269,46.97 298.896,40.444 293.219,39.849 
		293.219,60.245 299.212,60.864 299.212,63.381 	"/>
	<g>
		<g>
			<linearGradient id="SVGID_5_" gradientUnits="userSpaceOnUse" x1="317.9102" y1="36.2017" x2="317.9102" y2="64.6814">
				<stop  offset="0" style="stop-color:#FFD444"/>
				<stop  offset="0.1108" style="stop-color:#FED141"/>
				<stop  offset="0.2237" style="stop-color:#F8C739"/>
				<stop  offset="0.3377" style="stop-color:#F0B52B"/>
				<stop  offset="0.4516" style="stop-color:#E49D1A"/>
				<stop  offset="0.5108" style="stop-color:#DD8E0F"/>
				<stop  offset="0.5344" style="stop-color:#DF9112"/>
				<stop  offset="0.987" style="stop-color:#FFD444"/>
			</linearGradient>
			<path fill="url(#SVGID_5_)" d="M318.809,63.907c-1.938,0-3.635-0.335-5.092-1.007c-1.459-0.669-2.674-1.608-3.653-2.813
				c-0.976-1.206-1.707-2.644-2.193-4.316c-0.49-1.674-0.734-3.505-0.734-5.507c0-2.029,0.307-3.876,0.917-5.55
				c0.607-1.67,1.459-3.104,2.55-4.301c1.091-1.202,2.387-2.129,3.88-2.782c1.497-0.657,3.13-0.985,4.896-0.985
				c2.889,0,5.126,0.78,6.709,2.346c1.59,1.564,2.451,3.882,2.588,6.95c0.019,0.991,0.012,1.855-0.022,2.597
				c-0.027,0.737-0.108,1.391-0.229,1.958h-15.838v0.137c0.059,1.738,0.31,3.226,0.753,4.462c0.443,1.239,1.02,2.25,1.727,3.033
				c0.712,0.787,1.524,1.357,2.441,1.72c0.911,0.356,1.865,0.533,2.86,0.533c0.656,0,1.319-0.056,1.989-0.18
				c0.672-0.124,1.316-0.282,1.937-0.483c0.616-0.198,1.184-0.425,1.691-0.685c0.515-0.261,0.937-0.518,1.271-0.778l0.961,2.244
				c-0.44,0.439-1.001,0.867-1.68,1.282c-0.679,0.409-1.438,0.775-2.268,1.085c-0.831,0.313-1.714,0.563-2.644,0.756
				C320.692,63.814,319.757,63.907,318.809,63.907 M318.238,39.391c-0.763,0-1.472,0.136-2.129,0.402s-1.233,0.72-1.732,1.36
				c-0.492,0.642-0.898,1.497-1.208,2.566c-0.316,1.068-0.509,2.407-0.583,4.028h10.616c0.034-0.308,0.05-0.626,0.062-0.964
				c0.007-0.335,0.01-0.645,0.01-0.936c0-0.855-0.09-1.674-0.275-2.451c-0.18-0.778-0.472-1.466-0.868-2.061
				c-0.396-0.596-0.914-1.066-1.546-1.42C319.951,39.567,319.168,39.391,318.238,39.391"/>
		</g>
	</g>
	<linearGradient id="SVGID_6_" gradientUnits="userSpaceOnUse" x1="351.0293" y1="36.9043" x2="351.0293" y2="64.4291">
		<stop  offset="0" style="stop-color:#FFD444"/>
		<stop  offset="0.1108" style="stop-color:#FED141"/>
		<stop  offset="0.2237" style="stop-color:#F8C739"/>
		<stop  offset="0.3377" style="stop-color:#F0B52B"/>
		<stop  offset="0.4516" style="stop-color:#E49D1A"/>
		<stop  offset="0.5108" style="stop-color:#DD8E0F"/>
		<stop  offset="0.5344" style="stop-color:#DF9112"/>
		<stop  offset="0.987" style="stop-color:#FFD444"/>
	</linearGradient>
	<polygon fill="url(#SVGID_6_)" points="330.942,63.381 330.942,60.864 334.605,60.449 337.648,40.444 333.348,39.806 
		333.348,37.333 344.815,37.333 350.012,52.783 351.363,57.27 352.484,52.783 357.313,37.333 368.803,37.333 368.803,39.806 
		364.179,40.444 367.433,60.449 371.117,60.864 371.117,63.381 358.596,63.381 358.596,60.864 362.258,60.449 360.405,47.289 
		359.581,39.874 357.337,47.242 351.958,63.681 349.002,63.681 343.12,47.242 340.512,40.239 339.984,47.242 338.175,60.474 
		342.253,60.864 342.253,63.381 	"/>
	<g>
		<g>
			<linearGradient id="SVGID_7_" gradientUnits="userSpaceOnUse" x1="391.5703" y1="36.9009" x2="391.5703" y2="64.6399">
				<stop  offset="0" style="stop-color:#FFD444"/>
				<stop  offset="0.1108" style="stop-color:#FED141"/>
				<stop  offset="0.2237" style="stop-color:#F8C739"/>
				<stop  offset="0.3377" style="stop-color:#F0B52B"/>
				<stop  offset="0.4516" style="stop-color:#E49D1A"/>
				<stop  offset="0.5108" style="stop-color:#DD8E0F"/>
				<stop  offset="0.5344" style="stop-color:#DF9112"/>
				<stop  offset="0.987" style="stop-color:#FFD444"/>
			</linearGradient>
			<path fill="url(#SVGID_7_)" d="M378.532,63.381h-5.357v-2.219l3.938-0.688V40.444l-3.731-0.549v-2.563h13.21v2.563l-4.486,0.549
				v7.783c0.214-0.062,0.505-0.117,0.87-0.173c0.366-0.05,0.774-0.1,1.221-0.149c0.453-0.043,0.918-0.083,1.401-0.111
				c0.477-0.031,0.948-0.05,1.406-0.05c3.415,0,5.919,0.688,7.505,2.064c1.587,1.372,2.38,3.334,2.38,5.881
				c0,1.357-0.223,2.554-0.682,3.582c-0.458,1.032-1.121,1.891-1.989,2.578c-0.874,0.685-1.939,1.196-3.198,1.531
				c-1.258,0.337-2.689,0.505-4.291,0.505c-0.425,0-1.014-0.028-1.764-0.081c-0.746-0.053-1.518-0.111-2.323-0.17
				c-0.8-0.063-1.574-0.118-2.324-0.174C379.57,63.408,378.979,63.381,378.532,63.381 M385.585,50.654
				c-0.688,0-1.348,0.043-1.983,0.127c-0.629,0.084-1.131,0.171-1.496,0.261v9.708c0.214,0.046,0.431,0.09,0.653,0.14
				c0.22,0.043,0.483,0.086,0.787,0.123s0.676,0.068,1.109,0.094c0.437,0.021,0.958,0.03,1.568,0.03c1.741,0,3.055-0.39,3.947-1.177
				s1.339-2.08,1.339-3.88c0-1.022-0.13-1.881-0.396-2.575c-0.267-0.697-0.657-1.252-1.159-1.67
				c-0.502-0.422-1.119-0.723-1.854-0.905C387.37,50.747,386.53,50.654,385.585,50.654 M398.469,63.381v-2.517l3.093-0.619V40.469
				l-3.321-0.573v-2.563h11.471v2.563l-3.11,0.527v19.822l3.365,0.619v2.517H398.469z"/>
		</g>
	</g>
	<g>
		<g>
			<linearGradient id="SVGID_8_" gradientUnits="userSpaceOnUse" x1="202.1548" y1="78.7559" x2="202.1548" y2="115.5328">
				<stop  offset="0" style="stop-color:#FFD444"/>
				<stop  offset="0.1108" style="stop-color:#FED141"/>
				<stop  offset="0.2237" style="stop-color:#F8C739"/>
				<stop  offset="0.3377" style="stop-color:#F0B52B"/>
				<stop  offset="0.4516" style="stop-color:#E49D1A"/>
				<stop  offset="0.5108" style="stop-color:#DD8E0F"/>
				<stop  offset="0.5344" style="stop-color:#DF9112"/>
				<stop  offset="0.987" style="stop-color:#FFD444"/>
			</linearGradient>
			<path fill="url(#SVGID_8_)" d="M195.977,114.168h-7.604v-2.517l4.856-0.569V82.466l-4.806-0.617v-2.52h25.521l0.483,8.652h-3.39
				l-1.648-5.678l-10.963-0.226v11.515c0.26-0.063,0.601-0.124,1.02-0.186c0.418-0.063,0.88-0.118,1.385-0.171
				c0.502-0.053,1.035-0.103,1.586-0.137c0.561-0.04,1.115-0.059,1.661-0.059c1.896,0,3.576,0.235,5.051,0.7
				c1.469,0.465,2.711,1.131,3.719,2.002c1.007,0.871,1.775,1.939,2.299,3.204c0.526,1.268,0.793,2.702,0.793,4.301
				c0,1.865-0.307,3.495-0.917,4.902c-0.614,1.4-1.463,2.581-2.553,3.526c-1.091,0.941-2.396,1.661-3.914,2.138
				c-1.515,0.483-3.185,0.719-5.001,0.719c-0.276,0-0.734-0.019-1.373-0.052c-0.641-0.041-1.341-0.081-2.095-0.128
				c-0.756-0.049-1.509-0.09-2.255-0.124C197.08,114.189,196.466,114.168,195.977,114.168 M202.657,96.065
				c-0.852,0-1.655,0.024-2.401,0.08c-0.747,0.05-1.36,0.131-1.832,0.239v15.017c0.229,0.059,0.471,0.12,0.722,0.17
				c0.251,0.056,0.536,0.1,0.858,0.137c0.319,0.037,0.7,0.071,1.143,0.093c0.443,0.024,0.976,0.037,1.602,0.037
				c2.504,0,4.419-0.694,5.745-2.082c1.329-1.395,1.996-3.428,1.996-6.114c0-1.298-0.189-2.423-0.564-3.377
				c-0.372-0.955-0.905-1.742-1.59-2.358c-0.688-0.62-1.509-1.078-2.47-1.389C204.9,96.214,203.834,96.065,202.657,96.065"/>
		</g>
	</g>
	<linearGradient id="SVGID_9_" gradientUnits="userSpaceOnUse" x1="235.0508" y1="87.6963" x2="235.0508" y2="114.9079">
		<stop  offset="0" style="stop-color:#FFD444"/>
		<stop  offset="0.1108" style="stop-color:#FED141"/>
		<stop  offset="0.2237" style="stop-color:#F8C739"/>
		<stop  offset="0.3377" style="stop-color:#F0B52B"/>
		<stop  offset="0.4516" style="stop-color:#E49D1A"/>
		<stop  offset="0.5108" style="stop-color:#DD8E0F"/>
		<stop  offset="0.5344" style="stop-color:#DF9112"/>
		<stop  offset="0.987" style="stop-color:#FFD444"/>
	</linearGradient>
	<polygon fill="url(#SVGID_9_)" points="220.078,114.168 220.078,111.651 223.353,111.236 223.353,91.231 220.146,90.568 
		220.146,88.12 231.915,88.12 231.915,90.593 228.342,91.256 228.342,108.789 230.836,104.556 242.695,88.12 249.77,88.12 
		249.77,90.593 246.727,91.256 246.727,111.265 250.023,111.677 250.023,114.168 238.208,114.168 238.208,111.677 241.713,111.218 
		241.713,93.5 239.355,97.664 227.453,114.168 	"/>
	<g>
		<g>
			<linearGradient id="SVGID_10_" gradientUnits="userSpaceOnUse" x1="265.4619" y1="87.1553" x2="265.4619" y2="115.2983">
				<stop  offset="0" style="stop-color:#FFD444"/>
				<stop  offset="0.1108" style="stop-color:#FED141"/>
				<stop  offset="0.2237" style="stop-color:#F8C739"/>
				<stop  offset="0.3377" style="stop-color:#F0B52B"/>
				<stop  offset="0.4516" style="stop-color:#E49D1A"/>
				<stop  offset="0.5108" style="stop-color:#DD8E0F"/>
				<stop  offset="0.5344" style="stop-color:#DF9112"/>
				<stop  offset="0.987" style="stop-color:#FFD444"/>
			</linearGradient>
			<path fill="url(#SVGID_10_)" d="M254.647,112.798l0.523-5.403h3.114l0.849,3.046c0.198,0.241,0.486,0.452,0.868,0.629
				c0.381,0.177,0.806,0.316,1.271,0.434c0.465,0.115,0.948,0.198,1.456,0.254c0.502,0.05,0.973,0.078,1.417,0.078
				c1.115,0,2.073-0.121,2.872-0.366c0.803-0.244,1.463-0.576,1.983-0.997c0.518-0.419,0.898-0.921,1.14-1.497
				c0.248-0.579,0.369-1.215,0.369-1.899c0-0.719-0.09-1.395-0.263-2.026c-0.173-0.636-0.49-1.184-0.951-1.651
				c-0.456-0.465-1.082-0.831-1.875-1.098c-0.793-0.267-1.81-0.399-3.042-0.399c-0.031,0-0.171,0.016-0.416,0.046
				c-0.242,0.031-0.511,0.063-0.799,0.103c-0.292,0.04-0.564,0.071-0.815,0.103s-0.4,0.056-0.446,0.068l0.046-3.087l1.444-0.143
				c2.045-0.241,3.544-0.771,4.505-1.586c0.963-0.818,1.444-1.875,1.444-3.173c0-0.577-0.074-1.104-0.229-1.578
				c-0.148-0.474-0.421-0.883-0.799-1.227c-0.384-0.344-0.898-0.607-1.546-0.8c-0.647-0.188-1.465-0.288-2.46-0.288
				c-0.734,0-1.395,0.05-1.98,0.148c-0.588,0.1-1.097,0.229-1.534,0.379c-0.437,0.154-0.793,0.318-1.075,0.492
				c-0.285,0.177-0.483,0.348-0.607,0.515l-0.893,3.827h-3.114v-6.849c0.793,0,1.527-0.065,2.197-0.192
				c0.672-0.13,1.382-0.278,2.132-0.434c0.744-0.164,1.568-0.31,2.47-0.439c0.902-0.131,1.977-0.192,3.226-0.192
				c3.118,0,5.497,0.536,7.146,1.614c1.649,1.075,2.473,2.612,2.473,4.611c0,0.672-0.137,1.319-0.403,1.948
				c-0.267,0.623-0.651,1.202-1.156,1.739c-0.502,0.535-1.109,1.013-1.819,1.44c-0.707,0.428-1.506,0.781-2.392,1.054
				c1.146,0.093,2.163,0.31,3.055,0.65c0.893,0.344,1.655,0.79,2.281,1.339c0.623,0.552,1.103,1.184,1.438,1.902
				c0.334,0.716,0.514,1.503,0.527,2.355c0.019,1.267-0.217,2.41-0.694,3.433c-0.483,1.023-1.202,1.894-2.163,2.612
				c-0.964,0.72-2.166,1.273-3.607,1.661c-1.444,0.388-3.118,0.579-5.026,0.579c-1.202,0-2.327-0.052-3.365-0.167
				c-1.038-0.114-1.989-0.26-2.851-0.434c-0.861-0.177-1.618-0.366-2.274-0.564S255.087,112.978,254.647,112.798"/>
		</g>
	</g>
	<linearGradient id="SVGID_11_" gradientUnits="userSpaceOnUse" x1="294.728" y1="87.6963" x2="294.728" y2="114.9079">
		<stop  offset="0" style="stop-color:#FFD444"/>
		<stop  offset="0.1108" style="stop-color:#FED141"/>
		<stop  offset="0.2237" style="stop-color:#F8C739"/>
		<stop  offset="0.3377" style="stop-color:#F0B52B"/>
		<stop  offset="0.4516" style="stop-color:#E49D1A"/>
		<stop  offset="0.5108" style="stop-color:#DD8E0F"/>
		<stop  offset="0.5344" style="stop-color:#DF9112"/>
		<stop  offset="0.987" style="stop-color:#FFD444"/>
	</linearGradient>
	<polygon fill="url(#SVGID_11_)" points="280.031,114.168 280.031,111.651 283.304,111.265 283.304,91.231 280.075,90.593 
		280.075,88.12 292.004,88.12 292.004,90.593 288.295,91.256 288.295,99.198 301.136,99.198 301.136,91.231 297.43,90.593 
		297.43,88.12 309.221,88.12 309.221,90.593 306.153,91.256 306.153,111.236 309.426,111.651 309.426,114.168 297.291,114.168 
		297.291,111.651 301.136,111.265 301.136,102.108 288.295,102.108 288.295,111.265 292.166,111.651 292.166,114.168 	"/>
	<g>
		<g>
			<linearGradient id="SVGID_12_" gradientUnits="userSpaceOnUse" x1="324.5723" y1="86.9888" x2="324.5723" y2="115.4725">
				<stop  offset="0" style="stop-color:#FFD444"/>
				<stop  offset="0.1108" style="stop-color:#FED141"/>
				<stop  offset="0.2237" style="stop-color:#F8C739"/>
				<stop  offset="0.3377" style="stop-color:#F0B52B"/>
				<stop  offset="0.4516" style="stop-color:#E49D1A"/>
				<stop  offset="0.5108" style="stop-color:#DD8E0F"/>
				<stop  offset="0.5344" style="stop-color:#DF9112"/>
				<stop  offset="0.987" style="stop-color:#FFD444"/>
			</linearGradient>
			<path fill="url(#SVGID_12_)" d="M325.471,114.698c-1.94,0-3.635-0.338-5.095-1.011c-1.456-0.669-2.671-1.608-3.65-2.816
				c-0.976-1.202-1.71-2.641-2.193-4.311c-0.49-1.673-0.734-3.505-0.734-5.506c0-2.03,0.301-3.88,0.917-5.554
				c0.607-1.67,1.46-3.104,2.55-4.304c1.091-1.199,2.384-2.122,3.88-2.779c1.497-0.657,3.13-0.985,4.896-0.985
				c2.888,0,5.125,0.781,6.711,2.349c1.587,1.562,2.448,3.88,2.585,6.947c0.019,0.991,0.006,1.856-0.022,2.597
				c-0.033,0.74-0.108,1.392-0.229,1.958h-15.844v0.137c0.062,1.741,0.316,3.229,0.756,4.462c0.446,1.24,1.022,2.247,1.729,3.034
				c0.712,0.784,1.524,1.36,2.438,1.72s1.868,0.536,2.86,0.536c0.659,0,1.319-0.063,1.992-0.183
				c0.672-0.125,1.316-0.285,1.937-0.478c0.616-0.202,1.181-0.431,1.691-0.688c0.509-0.26,0.937-0.521,1.271-0.78l0.961,2.243
				c-0.44,0.44-1.004,0.867-1.68,1.283c-0.679,0.408-1.438,0.774-2.268,1.084c-0.831,0.316-1.714,0.564-2.646,0.756
				C327.354,114.602,326.419,114.698,325.471,114.698 M324.9,90.181c-0.763,0-1.476,0.134-2.132,0.4
				c-0.654,0.267-1.23,0.719-1.729,1.36c-0.492,0.642-0.898,1.496-1.215,2.565c-0.31,1.069-0.505,2.411-0.582,4.028h10.622
				c0.034-0.304,0.05-0.623,0.059-0.961c0.01-0.338,0.01-0.65,0.01-0.938c0-0.855-0.087-1.674-0.272-2.448
				c-0.18-0.78-0.472-1.466-0.868-2.063c-0.396-0.595-0.914-1.066-1.546-1.419C326.61,90.357,325.83,90.181,324.9,90.181"/>
		</g>
	</g>
	<g>
		<g>
			<linearGradient id="SVGID_13_" gradientUnits="userSpaceOnUse" x1="349.4609" y1="86.9888" x2="349.4609" y2="115.4725">
				<stop  offset="0" style="stop-color:#FFD444"/>
				<stop  offset="0.1108" style="stop-color:#FED141"/>
				<stop  offset="0.2237" style="stop-color:#F8C739"/>
				<stop  offset="0.3377" style="stop-color:#F0B52B"/>
				<stop  offset="0.4516" style="stop-color:#E49D1A"/>
				<stop  offset="0.5108" style="stop-color:#DD8E0F"/>
				<stop  offset="0.5344" style="stop-color:#DF9112"/>
				<stop  offset="0.987" style="stop-color:#FFD444"/>
			</linearGradient>
			<path fill="url(#SVGID_13_)" d="M339.204,101.534c0-1.908,0.304-3.715,0.896-5.416c0.592-1.698,1.459-3.195,2.597-4.484
				c1.137-1.289,2.531-2.311,4.18-3.067c1.648-0.756,3.508-1.134,5.584-1.134c0.763,0,1.493,0.05,2.2,0.148
				c0.7,0.1,1.351,0.224,1.955,0.366c0.602,0.148,1.141,0.304,1.611,0.471c0.475,0.167,0.864,0.322,1.171,0.458l-0.232,6.728h-3.086
				l-1.035-3.796c-0.396-0.521-0.893-0.92-1.496-1.205c-0.604-0.282-1.339-0.422-2.21-0.422c-0.87,0-1.704,0.199-2.494,0.596
				c-0.796,0.394-1.5,0.994-2.116,1.797c-0.62,0.797-1.115,1.801-1.487,3c-0.378,1.195-0.57,2.596-0.586,4.198
				c-0.016,2.061,0.186,3.814,0.607,5.265c0.418,1.45,0.982,2.631,1.683,3.535c0.7,0.911,1.519,1.568,2.448,1.983
				c0.93,0.412,1.902,0.617,2.906,0.617c0.719,0,1.395-0.063,2.026-0.183c0.632-0.125,1.215-0.285,1.754-0.484
				c0.533-0.195,1.02-0.421,1.463-0.675c0.439-0.248,0.83-0.496,1.165-0.744l1.01,2.2c-0.415,0.428-0.923,0.846-1.533,1.246
				c-0.61,0.405-1.296,0.768-2.049,1.087c-0.756,0.319-1.556,0.583-2.392,0.781c-0.837,0.195-1.695,0.298-2.566,0.298
				c-1.968,0-3.693-0.342-5.184-1.02c-1.487-0.682-2.73-1.605-3.731-2.783c-1-1.174-1.757-2.565-2.265-4.177
				C339.482,105.11,339.223,103.378,339.204,101.534"/>
		</g>
	</g>
	<linearGradient id="SVGID_14_" gradientUnits="userSpaceOnUse" x1="392.2559" y1="78.4604" x2="392.2559" y2="115.166">
		<stop  offset="0" style="stop-color:#FFD444"/>
		<stop  offset="0.1108" style="stop-color:#FED141"/>
		<stop  offset="0.2237" style="stop-color:#F8C739"/>
		<stop  offset="0.3377" style="stop-color:#F0B52B"/>
		<stop  offset="0.4516" style="stop-color:#E49D1A"/>
		<stop  offset="0.5108" style="stop-color:#DD8E0F"/>
		<stop  offset="0.5344" style="stop-color:#DF9112"/>
		<stop  offset="0.987" style="stop-color:#FFD444"/>
	</linearGradient>
	<path fill="url(#SVGID_14_)" d="M375.285,114.168l-0.025-2.517l2.953-0.638l11.604-31.981h5.2l11.304,32.003l2.932,0.616v2.517
		h-12.407v-2.517l3.73-0.638l-2.15-6.662h-13.644l-2.153,6.662l3.87,0.638v2.517H375.285z M390.642,86.289l-4.898,15.152h11.722
		l-4.877-15.152l-0.961-3.709L390.642,86.289z"/>
	<g>
		<g>
			<linearGradient id="SVGID_15_" gradientUnits="userSpaceOnUse" x1="423.6738" y1="87.2671" x2="423.6738" y2="115.3652">
				<stop  offset="0" style="stop-color:#FFD444"/>
				<stop  offset="0.1108" style="stop-color:#FED141"/>
				<stop  offset="0.2237" style="stop-color:#F8C739"/>
				<stop  offset="0.3377" style="stop-color:#F0B52B"/>
				<stop  offset="0.4516" style="stop-color:#E49D1A"/>
				<stop  offset="0.5108" style="stop-color:#DD8E0F"/>
				<stop  offset="0.5344" style="stop-color:#DF9112"/>
				<stop  offset="0.987" style="stop-color:#FFD444"/>
			</linearGradient>
			<path fill="url(#SVGID_15_)" d="M410.926,114.168v-2.517l3.272-0.616V91.231l-3.229-0.639V88.12h5.106
				c0.471,0,1.017-0.024,1.636-0.068c0.62-0.049,1.265-0.093,1.946-0.139c0.676-0.047,1.369-0.09,2.069-0.134
				c0.701-0.05,1.376-0.074,2.015-0.074c2.058,0,3.768,0.143,5.119,0.425c1.345,0.285,2.423,0.685,3.229,1.205
				c0.8,0.515,1.363,1.152,1.692,1.896c0.328,0.75,0.489,1.58,0.489,2.498c0,0.685-0.124,1.345-0.365,1.977
				c-0.248,0.635-0.589,1.227-1.029,1.767c-0.439,0.539-0.979,1.022-1.605,1.45c-0.625,0.428-1.326,0.787-2.106,1.078
				c1.115,0.093,2.119,0.322,3.012,0.688c0.893,0.366,1.654,0.824,2.293,1.37c0.632,0.552,1.115,1.171,1.45,1.853
				c0.335,0.691,0.502,1.4,0.502,2.132c0,1.314-0.235,2.501-0.719,3.563c-0.478,1.057-1.228,1.959-2.231,2.696
				c-1.004,0.743-2.293,1.311-3.854,1.704c-1.568,0.399-3.434,0.595-5.596,0.595c-0.552,0-1.233-0.019-2.039-0.068
				c-0.813-0.043-1.624-0.093-2.454-0.148c-0.818-0.05-1.6-0.103-2.331-0.148c-0.737-0.044-1.308-0.068-1.716-0.068H410.926z
				 M419.119,99.177h4.096c1.159,0,2.114-0.14,2.863-0.425c0.744-0.282,1.339-0.663,1.772-1.144c0.435-0.48,0.738-1.035,0.905-1.66
				c0.167-0.627,0.254-1.283,0.254-1.969c0-0.486-0.087-0.954-0.254-1.396c-0.167-0.44-0.471-0.824-0.905-1.156
				c-0.434-0.325-1.016-0.586-1.747-0.777c-0.737-0.189-1.667-0.285-2.795-0.285c-0.781,0-1.519,0.021-2.219,0.067
				c-0.707,0.047-1.357,0.068-1.971,0.068V99.177z M419.119,111.149c0.154,0.06,0.434,0.131,0.836,0.217
				c0.403,0.081,0.844,0.155,1.314,0.218c0.477,0.059,0.941,0.114,1.4,0.161c0.452,0.043,0.806,0.068,1.054,0.068
				c1.326,0,2.448-0.112,3.365-0.332c0.911-0.223,1.654-0.542,2.219-0.961c0.563-0.421,0.973-0.936,1.221-1.543
				c0.254-0.616,0.378-1.308,0.378-2.085c0-1.772-0.521-3.074-1.568-3.904c-1.041-0.831-2.671-1.249-4.883-1.249h-5.336V111.149z"/>
		</g>
	</g>
	<linearGradient id="SVGID_16_" gradientUnits="userSpaceOnUse" x1="455.7422" y1="87.6963" x2="455.7422" y2="114.9079">
		<stop  offset="0" style="stop-color:#FFD444"/>
		<stop  offset="0.1108" style="stop-color:#FED141"/>
		<stop  offset="0.2237" style="stop-color:#F8C739"/>
		<stop  offset="0.3377" style="stop-color:#F0B52B"/>
		<stop  offset="0.4516" style="stop-color:#E49D1A"/>
		<stop  offset="0.5108" style="stop-color:#DD8E0F"/>
		<stop  offset="0.5344" style="stop-color:#DF9112"/>
		<stop  offset="0.987" style="stop-color:#FFD444"/>
	</linearGradient>
	<polygon fill="url(#SVGID_16_)" points="440.772,114.168 440.772,111.651 444.051,111.236 444.051,91.231 440.841,90.568 
		440.841,88.12 452.609,88.12 452.609,90.593 449.033,91.256 449.033,108.789 451.531,104.556 463.387,88.12 470.464,88.12 
		470.464,90.593 467.421,91.256 467.421,111.265 470.712,111.677 470.712,114.168 458.906,114.168 458.906,111.677 462.407,111.218 
		462.407,93.5 460.046,97.664 448.147,114.168 	"/>
	<g>
		<g>
			<linearGradient id="SVGID_17_" gradientUnits="userSpaceOnUse" x1="486.5098" y1="87.1523" x2="486.5098" y2="115.4678">
				<stop  offset="0" style="stop-color:#FFD444"/>
				<stop  offset="0.1108" style="stop-color:#FED141"/>
				<stop  offset="0.2237" style="stop-color:#F8C739"/>
				<stop  offset="0.3377" style="stop-color:#F0B52B"/>
				<stop  offset="0.4516" style="stop-color:#E49D1A"/>
				<stop  offset="0.5108" style="stop-color:#DD8E0F"/>
				<stop  offset="0.5344" style="stop-color:#DF9112"/>
				<stop  offset="0.987" style="stop-color:#FFD444"/>
			</linearGradient>
			<path fill="url(#SVGID_17_)" d="M475.038,107.305c0-1.101,0.21-2.079,0.619-2.944c0.415-0.861,0.979-1.62,1.698-2.277
				s1.562-1.212,2.528-1.67c0.967-0.456,2.015-0.834,3.136-1.125c1.122-0.285,2.293-0.502,3.502-0.639
				c1.215-0.136,2.417-0.22,3.606-0.254v-1.211c0-1.069-0.074-1.972-0.229-2.712c-0.155-0.743-0.416-1.345-0.794-1.81
				c-0.371-0.465-0.867-0.8-1.493-1.004c-0.632-0.211-1.419-0.313-2.386-0.313c-0.824,0-1.643,0.077-2.467,0.229
				c-0.83,0.152-1.617,0.341-2.374,0.562c-0.756,0.223-1.45,0.455-2.082,0.712c-0.632,0.251-1.165,0.483-1.593,0.697h-0.019
				l-1.035-2.199c0.292-0.276,0.806-0.623,1.537-1.051s1.599-0.84,2.597-1.236c0.998-0.4,2.076-0.741,3.229-1.029
				c1.153-0.291,2.3-0.437,3.446-0.437c1.599,0,2.956,0.164,4.06,0.489c1.109,0.332,2.008,0.855,2.695,1.58
				c0.682,0.726,1.178,1.668,1.475,2.82c0.298,1.152,0.446,2.56,0.446,4.221v14.926h2.839v2.222
				c-0.291,0.075-0.639,0.161-1.041,0.261c-0.409,0.099-0.831,0.192-1.271,0.272c-0.446,0.087-0.893,0.158-1.352,0.217
				c-0.458,0.063-0.892,0.097-1.308,0.097c-0.428,0-0.793-0.022-1.109-0.06c-0.31-0.037-0.569-0.136-0.762-0.297
				c-0.205-0.158-0.354-0.403-0.446-0.723c-0.105-0.319-0.155-0.753-0.155-1.304v-0.847c-0.198,0.183-0.521,0.456-0.973,0.813
				c-0.446,0.359-1.004,0.716-1.654,1.075c-0.657,0.359-1.407,0.672-2.25,0.941c-0.837,0.264-1.735,0.4-2.696,0.4
				c-1.054,0-2.058-0.143-3.012-0.425c-0.954-0.285-1.791-0.722-2.516-1.317c-0.726-0.595-1.308-1.36-1.742-2.302
				C475.261,109.718,475.038,108.603,475.038,107.305 M484.929,111.193c0.322,0,0.706-0.044,1.146-0.124
				c0.446-0.084,0.898-0.205,1.376-0.354c0.471-0.154,0.941-0.344,1.406-0.576c0.465-0.229,0.887-0.48,1.271-0.756v-8.422
				c-1.834,0-3.364,0.16-4.592,0.479s-2.206,0.744-2.938,1.271c-0.731,0.53-1.252,1.125-1.562,1.798
				c-0.304,0.672-0.453,1.372-0.453,2.104c0,0.843,0.112,1.55,0.329,2.132c0.223,0.583,0.526,1.054,0.917,1.419
				c0.384,0.366,0.849,0.626,1.382,0.79C483.751,111.116,484.321,111.193,484.929,111.193"/>
		</g>
	</g>
	<g>
		<g>
			<linearGradient id="SVGID_18_" gradientUnits="userSpaceOnUse" x1="516.6816" y1="87.5586" x2="516.6816" y2="123.5979">
				<stop  offset="0" style="stop-color:#FFD444"/>
				<stop  offset="0.1108" style="stop-color:#FED141"/>
				<stop  offset="0.2237" style="stop-color:#F8C739"/>
				<stop  offset="0.3377" style="stop-color:#F0B52B"/>
				<stop  offset="0.4516" style="stop-color:#E49D1A"/>
				<stop  offset="0.5108" style="stop-color:#DD8E0F"/>
				<stop  offset="0.5344" style="stop-color:#DF9112"/>
				<stop  offset="0.987" style="stop-color:#FFD444"/>
			</linearGradient>
			<path fill="url(#SVGID_18_)" d="M526.916,122.618c-0.019-0.201-0.043-0.542-0.081-1.032c-0.037-0.489-0.08-1.038-0.13-1.648
				c-0.043-0.61-0.099-1.245-0.154-1.908c-0.063-0.663-0.118-1.277-0.174-1.835c-0.05-0.555-0.105-1.022-0.148-1.395
				c-0.044-0.375-0.075-0.582-0.094-0.632h-24.38v-2.47l3.278-0.642V91.231l-3.21-0.639V88.12h11.743v2.473l-3.545,0.639v19.918
				h11.057V91.231l-3.526-0.639V88.12h11.607v2.473l-3.067,0.663v19.894h3.111l0.024-0.024h2.38c0,0.047-0.037,0.356-0.105,0.93
				c-0.068,0.57-0.148,1.276-0.248,2.113c-0.099,0.84-0.211,1.748-0.334,2.727c-0.118,0.977-0.236,1.884-0.329,2.724
				c-0.099,0.84-0.192,1.54-0.267,2.107c-0.074,0.561-0.111,0.858-0.111,0.893H526.916z"/>
		</g>
	</g>
	<linearGradient id="SVGID_19_" gradientUnits="userSpaceOnUse" x1="549.415" y1="87.6963" x2="549.415" y2="114.9079">
		<stop  offset="0" style="stop-color:#FFD444"/>
		<stop  offset="0.1108" style="stop-color:#FED141"/>
		<stop  offset="0.2237" style="stop-color:#F8C739"/>
		<stop  offset="0.3377" style="stop-color:#F0B52B"/>
		<stop  offset="0.4516" style="stop-color:#E49D1A"/>
		<stop  offset="0.5108" style="stop-color:#DD8E0F"/>
		<stop  offset="0.5344" style="stop-color:#DF9112"/>
		<stop  offset="0.987" style="stop-color:#FFD444"/>
	</linearGradient>
	<polygon fill="url(#SVGID_19_)" points="534.445,114.168 534.445,111.651 537.718,111.236 537.718,91.231 534.514,90.568 
		534.514,88.12 546.283,88.12 546.283,90.593 542.707,91.256 542.707,108.789 545.204,104.556 557.06,88.12 564.138,88.12 
		564.138,90.593 561.088,91.256 561.088,111.265 564.385,111.677 564.385,114.168 552.573,114.168 552.573,111.677 556.081,111.218 
		556.081,93.5 553.72,97.664 541.814,114.168 	"/>
	<linearGradient id="SVGID_20_" gradientUnits="userSpaceOnUse" x1="584.2139" y1="87.6963" x2="584.2139" y2="114.9079">
		<stop  offset="0" style="stop-color:#FFD444"/>
		<stop  offset="0.1108" style="stop-color:#FED141"/>
		<stop  offset="0.2237" style="stop-color:#F8C739"/>
		<stop  offset="0.3377" style="stop-color:#F0B52B"/>
		<stop  offset="0.4516" style="stop-color:#E49D1A"/>
		<stop  offset="0.5108" style="stop-color:#DD8E0F"/>
		<stop  offset="0.5344" style="stop-color:#DF9112"/>
		<stop  offset="0.987" style="stop-color:#FFD444"/>
	</linearGradient>
	<polygon fill="url(#SVGID_20_)" points="569.244,114.168 569.244,111.651 572.517,111.236 572.517,91.231 569.313,90.568 
		569.313,88.12 581.075,88.12 581.075,90.593 577.505,91.256 577.505,108.789 580.003,104.556 591.858,88.12 598.93,88.12 
		598.93,90.593 595.887,91.256 595.887,111.265 599.184,111.677 599.184,114.168 587.371,114.168 587.371,111.677 590.873,111.218 
		590.873,93.5 588.518,97.664 576.612,114.168 	"/>
	<g>
		<path fill="#FFD444" d="M199.242,155.059c-0.409-1.054-0.843-2.256-1.308-3.604c-0.458-1.354-0.88-2.761-1.258-4.223
			c-0.378,1.462-0.8,2.869-1.252,4.223c-0.453,1.349-0.883,2.551-1.292,3.604h-1.776c-0.672-1.507-1.333-3.223-1.974-5.15
			c-0.642-1.934-1.249-4.013-1.819-6.253h2.19c0.146,0.688,0.322,1.435,0.527,2.24c0.205,0.803,0.421,1.608,0.648,2.41
			c0.229,0.807,0.464,1.578,0.712,2.321c0.248,0.75,0.483,1.4,0.7,1.955c0.248-0.688,0.496-1.416,0.738-2.185
			c0.242-0.765,0.471-1.537,0.688-2.324c0.22-0.777,0.427-1.549,0.625-2.299c0.199-0.753,0.369-1.456,0.515-2.119h1.689
			c0.13,0.663,0.294,1.366,0.48,2.119c0.192,0.75,0.397,1.521,0.617,2.299c0.22,0.787,0.449,1.56,0.691,2.324
			c0.242,0.769,0.483,1.497,0.734,2.185c0.22-0.555,0.449-1.205,0.691-1.955c0.241-0.743,0.477-1.515,0.712-2.321
			c0.235-0.802,0.453-1.607,0.657-2.41c0.205-0.806,0.378-1.553,0.527-2.24h2.104c-0.567,2.24-1.174,4.319-1.819,6.253
			c-0.645,1.928-1.301,3.644-1.974,5.15H199.242z"/>
	</g>
	<g>
		<path fill="#FFD444" d="M217.748,155.059c-0.409-1.054-0.843-2.256-1.308-3.604c-0.458-1.354-0.877-2.761-1.258-4.223
			c-0.378,1.462-0.796,2.869-1.252,4.223c-0.453,1.349-0.88,2.551-1.289,3.604h-1.779c-0.672-1.507-1.329-3.223-1.971-5.15
			c-0.645-1.934-1.252-4.013-1.822-6.253h2.19c0.146,0.688,0.326,1.435,0.527,2.24c0.208,0.803,0.421,1.608,0.647,2.41
			c0.229,0.807,0.465,1.578,0.713,2.321c0.248,0.75,0.483,1.4,0.7,1.955c0.248-0.688,0.496-1.416,0.738-2.185
			c0.242-0.765,0.471-1.537,0.688-2.324c0.22-0.777,0.427-1.549,0.625-2.299c0.199-0.753,0.372-1.456,0.515-2.119h1.689
			c0.133,0.663,0.294,1.366,0.48,2.119c0.192,0.75,0.396,1.521,0.617,2.299c0.22,0.787,0.449,1.56,0.691,2.324
			c0.242,0.769,0.483,1.497,0.738,2.185c0.217-0.555,0.446-1.205,0.688-1.955c0.242-0.743,0.478-1.515,0.713-2.321
			c0.235-0.802,0.453-1.607,0.657-2.41c0.205-0.806,0.381-1.553,0.527-2.24h2.107c-0.57,2.24-1.178,4.319-1.822,6.253
			c-0.645,1.928-1.301,3.644-1.974,5.15H217.748z"/>
	</g>
	<g>
		<path fill="#FFD444" d="M236.253,155.059c-0.409-1.054-0.843-2.256-1.304-3.604c-0.459-1.354-0.877-2.761-1.261-4.223
			c-0.378,1.462-0.793,2.869-1.246,4.223c-0.459,1.349-0.886,2.551-1.295,3.604h-1.779c-0.669-1.507-1.326-3.223-1.971-5.15
			c-0.645-1.934-1.252-4.013-1.822-6.253h2.194c0.146,0.688,0.319,1.435,0.526,2.24c0.205,0.803,0.422,1.608,0.645,2.41
			c0.229,0.807,0.465,1.578,0.713,2.321c0.248,0.75,0.483,1.4,0.7,1.955c0.251-0.688,0.496-1.416,0.738-2.185
			c0.242-0.765,0.471-1.537,0.691-2.324c0.22-0.777,0.428-1.549,0.623-2.299c0.199-0.753,0.369-1.456,0.515-2.119h1.692
			c0.13,0.663,0.291,1.366,0.48,2.119c0.189,0.75,0.397,1.521,0.617,2.299c0.217,0.787,0.446,1.56,0.688,2.324
			c0.242,0.769,0.487,1.497,0.734,2.185c0.22-0.555,0.449-1.205,0.691-1.955c0.242-0.743,0.478-1.515,0.713-2.321
			c0.235-0.802,0.453-1.607,0.657-2.41c0.205-0.806,0.384-1.553,0.527-2.24h2.107c-0.57,2.24-1.178,4.319-1.822,6.253
			c-0.642,1.928-1.301,3.644-1.971,5.15H236.253z"/>
	</g>
	<g>
		<path fill="#FFD444" d="M246.779,153.874c0,0.395-0.133,0.741-0.394,1.032c-0.267,0.291-0.623,0.437-1.078,0.437
			c-0.453,0-0.806-0.146-1.072-0.437c-0.26-0.291-0.396-0.638-0.396-1.032c0-0.396,0.136-0.737,0.396-1.028
			c0.267-0.291,0.62-0.44,1.072-0.44c0.455,0,0.812,0.149,1.078,0.44C246.646,153.137,246.779,153.478,246.779,153.874"/>
	</g>
	<g>
		<path fill="#FFD444" d="M252.896,144.16c0.248-0.158,0.623-0.325,1.131-0.505c0.502-0.174,1.084-0.261,1.741-0.261
			c0.818,0,1.546,0.143,2.182,0.44c0.638,0.291,1.171,0.7,1.611,1.227c0.44,0.521,0.774,1.153,0.998,1.885
			c0.229,0.73,0.341,1.533,0.341,2.41c0,0.927-0.136,1.754-0.406,2.491s-0.654,1.364-1.15,1.875
			c-0.499,0.512-1.097,0.905-1.797,1.181c-0.707,0.282-1.494,0.422-2.371,0.422c-0.951,0-1.791-0.068-2.522-0.199
			c-0.728-0.133-1.329-0.266-1.797-0.396v-16.336l2.039-0.348V144.16z M252.896,153.282c0.205,0.06,0.493,0.115,0.865,0.165
			c0.375,0.049,0.836,0.077,1.395,0.077c1.097,0,1.971-0.362,2.63-1.088c0.66-0.719,0.989-1.747,0.989-3.08
			c0-0.582-0.059-1.134-0.177-1.643c-0.118-0.511-0.307-0.954-0.57-1.326c-0.263-0.371-0.604-0.663-1.02-0.88
			c-0.415-0.207-0.917-0.315-1.5-0.315c-0.558,0-1.069,0.093-1.537,0.285c-0.468,0.191-0.827,0.39-1.075,0.592V153.282z"/>
	</g>
	<g>
		<path fill="#FFD444" d="M304.053,143.655c-0.57,2.138-1.239,4.183-2.008,6.142c-0.769,1.958-1.513,3.715-2.226,5.262h-1.84
			c-0.719-1.547-1.459-3.304-2.225-5.262c-0.769-1.959-1.438-4.004-2.008-6.142h2.194c0.173,0.719,0.381,1.48,0.62,2.293
			c0.245,0.812,0.499,1.617,0.769,2.41c0.272,0.8,0.545,1.571,0.824,2.315c0.279,0.747,0.542,1.409,0.79,1.992
			c0.245-0.583,0.512-1.245,0.791-1.992c0.279-0.744,0.551-1.516,0.824-2.315c0.266-0.793,0.521-1.599,0.765-2.41
			c0.239-0.813,0.449-1.574,0.623-2.293H304.053z"/>
	</g>
	<g>
		<path fill="#FFD444" d="M316.788,157.187c0.161,0.072,0.372,0.143,0.626,0.208c0.257,0.065,0.508,0.1,0.756,0.1
			c0.806,0,1.432-0.18,1.891-0.536c0.452-0.359,0.861-0.942,1.227-1.745c-0.924-1.754-1.778-3.612-2.578-5.58
			s-1.456-3.957-1.983-5.978h2.191c0.161,0.656,0.356,1.369,0.579,2.132c0.227,0.759,0.48,1.537,0.759,2.343
			c0.276,0.806,0.58,1.611,0.896,2.41c0.322,0.806,0.657,1.58,1.011,2.327c0.558-1.537,1.038-3.058,1.45-4.562
			c0.406-1.509,0.796-3.055,1.159-4.65h2.106c-0.526,2.15-1.109,4.217-1.754,6.197s-1.338,3.833-2.082,5.559
			c-0.294,0.657-0.595,1.221-0.911,1.698c-0.315,0.478-0.663,0.868-1.041,1.175c-0.384,0.304-0.809,0.529-1.283,0.679
			c-0.477,0.146-1.013,0.217-1.611,0.217c-0.161,0-0.328-0.01-0.505-0.031s-0.35-0.053-0.518-0.087
			c-0.167-0.037-0.319-0.077-0.458-0.121c-0.137-0.046-0.235-0.08-0.298-0.111L316.788,157.187z"/>
	</g>
	<g>
		<path fill="#FFD444" d="M350.056,149.382c0-1.011,0.143-1.891,0.439-2.641c0.292-0.756,0.676-1.382,1.159-1.878
			c0.483-0.495,1.041-0.87,1.667-1.121c0.626-0.245,1.271-0.372,1.928-0.372c1.537,0,2.714,0.48,3.532,1.438
			c0.818,0.958,1.228,2.417,1.228,4.375v0.342c0,0.136-0.007,0.266-0.022,0.384h-7.806c0.087,1.184,0.431,2.082,1.029,2.696
			c0.601,0.613,1.537,0.92,2.808,0.92c0.716,0,1.319-0.063,1.81-0.189c0.489-0.12,0.854-0.241,1.103-0.359l0.292,1.711
			c-0.251,0.133-0.688,0.272-1.308,0.415c-0.62,0.148-1.326,0.224-2.113,0.224c-0.998,0-1.854-0.155-2.578-0.453
			c-0.726-0.297-1.32-0.713-1.785-1.239c-0.471-0.526-0.818-1.149-1.044-1.875C350.167,151.036,350.056,150.243,350.056,149.382
			 M357.883,148.263c0.013-0.92-0.217-1.676-0.691-2.271c-0.474-0.592-1.131-0.886-1.961-0.886c-0.472,0-0.884,0.093-1.24,0.272
			c-0.359,0.186-0.663,0.422-0.91,0.713c-0.248,0.291-0.446,0.629-0.583,1.01c-0.137,0.378-0.229,0.769-0.272,1.162H357.883z"/>
	</g>
	<g>
		<path fill="#FFD444" d="M364.043,143.986c0.468-0.117,1.084-0.238,1.853-0.372c0.769-0.133,1.655-0.197,2.665-0.197
			c0.731,0,1.345,0.096,1.841,0.294c0.499,0.198,0.911,0.489,1.252,0.867c0.099-0.074,0.26-0.173,0.48-0.31
			c0.22-0.13,0.492-0.257,0.812-0.378c0.319-0.127,0.679-0.238,1.075-0.332c0.394-0.096,0.818-0.142,1.271-0.142
			c0.877,0,1.593,0.127,2.15,0.381c0.552,0.26,0.988,0.619,1.302,1.088c0.315,0.468,0.526,1.022,0.638,1.667
			c0.112,0.641,0.165,1.345,0.165,2.104v6.402h-2.042v-5.962c0-0.676-0.031-1.252-0.097-1.732c-0.068-0.48-0.188-0.887-0.375-1.205
			c-0.18-0.322-0.428-0.562-0.743-0.713c-0.316-0.155-0.719-0.229-1.215-0.229c-0.688,0-1.255,0.09-1.701,0.272
			c-0.449,0.183-0.747,0.348-0.908,0.493c0.115,0.378,0.201,0.796,0.261,1.249c0.056,0.452,0.087,0.929,0.087,1.425v6.402h-2.039
			v-5.962c0-0.676-0.037-1.252-0.108-1.732s-0.202-0.887-0.382-1.205c-0.186-0.322-0.434-0.562-0.749-0.713
			c-0.313-0.155-0.713-0.229-1.193-0.229c-0.201,0-0.425,0.006-0.66,0.019c-0.232,0.016-0.455,0.031-0.669,0.056
			c-0.211,0.021-0.403,0.05-0.58,0.074c-0.177,0.031-0.291,0.056-0.35,0.068v9.625h-2.039V143.986z"/>
	</g>
	<g>
		<path fill="#FFD444" d="M397.304,153.874c0,0.395-0.13,0.741-0.396,1.032c-0.26,0.291-0.619,0.437-1.072,0.437
			c-0.452,0-0.812-0.146-1.071-0.437c-0.261-0.291-0.397-0.638-0.397-1.032c0-0.396,0.137-0.737,0.397-1.028
			c0.26-0.291,0.619-0.44,1.071-0.44c0.453,0,0.813,0.149,1.072,0.44C397.174,153.137,397.304,153.478,397.304,153.874"/>
	</g>
	<linearGradient id="SVGID_21_" gradientUnits="userSpaceOnUse" x1="82.8311" y1="26.0161" x2="82.831" y2="150.5031">
		<stop  offset="0" style="stop-color:#FFD444"/>
		<stop  offset="0.5108" style="stop-color:#DD8E0F"/>
		<stop  offset="0.6184" style="stop-color:#DF9112"/>
		<stop  offset="0.7218" style="stop-color:#E39B19"/>
		<stop  offset="0.8235" style="stop-color:#EBAC24"/>
		<stop  offset="0.9235" style="stop-color:#F6C235"/>
		<stop  offset="0.987" style="stop-color:#FFD444"/>
	</linearGradient>
	<path fill="url(#SVGID_21_)" d="M126.079,102.096c-1.822-3.743-4.146-7.06-6.978-9.95c-2.838-2.885-5.968-5.32-9.392-7.297
		c-3.424-1.98-6.792-3.561-10.108-4.735c2.247-1.71,4.36-3.532,6.337-5.46c1.98-1.924,3.718-4.01,5.218-6.259
		c1.493-2.247,2.671-4.704,3.526-7.378c0.858-2.675,1.286-5.671,1.286-8.989c0-2.139-0.428-4.599-1.286-7.382
		c-0.855-2.779-2.51-5.397-4.973-7.864c-2.463-2.46-5.909-4.542-10.347-6.253c-4.443-1.714-10.3-2.572-17.576-2.572
		c-2.783,0-5.751,0.081-8.906,0.242c-3.154,0.161-6.715,0.241-10.672,0.241c-0.855,0-2.061-0.024-3.606-0.08
		c-1.556-0.056-3.322-0.105-5.299-0.161c-1.98-0.056-4.09-0.105-6.34-0.161c-2.244-0.05-4.44-0.081-6.579-0.081
		c-2.352,0-3.529,0.483-3.529,1.444c0,0.967,0.908,1.447,2.727,1.447c1.178,0,2.355,0.027,3.533,0.08
		c1.174,0.053,2.082,0.187,2.727,0.4c2.671,0.536,4.438,1.499,5.296,2.888c0.858,1.392,1.388,3.477,1.605,6.26
		c0.105,1.282,0.186,2.646,0.239,4.09c0.053,1.443,0.083,3.399,0.083,5.859v9.306v14.762v28.248c0,7.381-0.031,14.067-0.083,20.055
		c-0.053,5.999-0.294,10.702-0.719,14.124c-0.266,1.952-0.625,3.641-1.078,5.075c1.221-1.509,2.386-3.606,3.923-8.937
		c0.273-0.298,1.738-5.206,2.212-7.229c1.06-4.521,2.25-8.995,4.258-13.25c-0.942,0.053-1.927,0.304-2.597-0.66
		c3.204-2.135,4.818-3.87,5.082-5.493c-0.75,0.012-1.497,0.08-2.231,0.019c-0.725-0.06-1.432-0.248-2.15-0.378
		c0.803-0.577,1.593-0.958,2.33-1.423c0.741-0.459,1.432-1.007,2.145-1.516c-3.043,0.071-4.475-0.492-5.02-1.313
		c3.353-0.967,4.89-1.847,7.338-4.199c0.688-0.662,1.4-1.295,2.058-1.988c3.272-3.452,7.204-5.813,11.855-6.771
		c5.602-1.149,11.22-1.063,16.779,0.438c2.153,0.582,3.923,1.704,5.035,3.678c0.322,0.573,0.747,0.815,1.32,0.995
		c3.142,0.985,6.281,1.989,9.414,3.005c2.458,0.794,4.5,2.083,5.553,4.593c0.688,1.627,0.927,3.291,0.713,5.038
		c-0.251,2.076-0.995,3.979-2.014,5.943c-0.062-0.371-0.118-0.595-0.136-0.817c-0.143-1.829-1.004-3.136-2.699-3.904
		c-4.267-1.934-2.352-0.971-0.539-0.239c-0.353,0.1-6.058,1.305-6.281,1.379c-2.56,0.893-5.132,1.754-7.669,2.702
		c-0.877,0.332-1.76,0.812-2.073,1.828c-0.254,0.843-0.551,1.686-0.675,2.554c-0.465,3.331,0.242,6.569,0.96,9.785
		c0.66,2.963,2.073,5.655,3.325,8.397c1.403,3.08,2.581,6.216,2.792,9.644c0.065,1.069,0.037,2.132-0.211,3.247
		c0.391-0.133,0.774-0.27,1.159-0.412c5.398-2.029,9.842-4.704,13.318-8.022c3.477-3.315,6.07-7.062,7.784-11.235
		c1.71-4.171,2.566-8.397,2.566-12.674C128.806,110.065,127.895,105.842,126.079,102.096 M92.539,76.42
		c-1.388,1.178-2.997,1.983-4.812,2.411c-1.819,0.424-4.069,0.638-6.74,0.638c-3.638,0-6.154-0.161-7.542-0.483
		c-0.322-0.103-0.592-0.264-0.806-0.477c-0.213-0.218-0.316-0.645-0.316-1.286V37.587c0-1.5,0.477-2.407,1.444-2.727
		c0.853-0.217,1.655-0.322,2.405-0.322h2.888c3.421,0,6.393,0.803,8.905,2.404c2.51,1.605,4.599,3.613,6.259,6.018
		c1.661,2.411,2.888,5.085,3.694,8.025c0.799,2.944,1.202,5.752,1.202,8.426C99.121,67.223,96.927,72.891,92.539,76.42"/>
	<linearGradient id="SVGID_22_" gradientUnits="userSpaceOnUse" x1="0" y1="80.936" x2="161.8721" y2="80.936">
		<stop  offset="0" style="stop-color:#DD8E0F"/>
		<stop  offset="0.5455" style="stop-color:#FFD444"/>
		<stop  offset="0.987" style="stop-color:#DD9110"/>
	</linearGradient>
	<path fill="url(#SVGID_22_)" d="M80.938,161.872c-21.619,0-41.944-8.419-57.229-23.701C8.422,122.882,0,102.554,0,80.938
		c0-21.619,8.422-41.943,23.708-57.232C38.994,8.419,59.318,0,80.938,0c21.62,0,41.944,8.419,57.23,23.705
		c15.289,15.289,23.705,35.613,23.705,57.232c0,21.616-8.416,41.944-23.705,57.233C122.881,153.453,102.557,161.872,80.938,161.872
		 M80.938,6.736c-19.819,0-38.455,7.716-52.467,21.734C14.456,42.483,6.736,61.118,6.736,80.938s7.719,38.452,21.734,52.467
		c14.012,14.013,32.648,21.734,52.467,21.734c19.819,0,38.455-7.722,52.467-21.734c14.015-14.015,21.734-32.647,21.734-52.467
		s-7.719-38.454-21.734-52.467C119.393,14.452,100.757,6.736,80.938,6.736"/>
	<g>
		<path fill="#FFD444" d="M265.876,141.595c-0.366,0-0.675-0.121-0.933-0.359c-0.257-0.242-0.381-0.567-0.381-0.977
			s0.124-0.734,0.381-0.979c0.257-0.235,0.567-0.359,0.933-0.359s0.675,0.124,0.93,0.359c0.26,0.245,0.384,0.57,0.384,0.979
			s-0.124,0.734-0.384,0.977C266.552,141.474,266.242,141.595,265.876,141.595 M266.905,155.059h-2.036v-11.403h2.036V155.059z"/>
	</g>
	<g>
		<path fill="#FFD444" d="M279.077,145.192c-0.307,0.338-0.713,0.812-1.218,1.425c-0.505,0.614-1.044,1.296-1.621,2.039
			c-0.579,0.747-1.156,1.531-1.735,2.349c-0.577,0.818-1.084,1.6-1.521,2.343h6.269v1.711h-8.701v-1.357
			c0.347-0.645,0.781-1.354,1.289-2.126c0.514-0.777,1.05-1.549,1.614-2.314c0.561-0.766,1.109-1.49,1.646-2.172
			c0.533-0.679,0.998-1.252,1.391-1.724h-5.636v-1.71h8.224V145.192z"/>
	</g>
	<g>
		<path fill="#FFD444" d="M286.619,143.37c0.818,0,1.512,0.108,2.07,0.322c0.564,0.211,1.017,0.511,1.363,0.896
			c0.341,0.388,0.589,0.846,0.731,1.382c0.149,0.533,0.223,1.122,0.223,1.767v7.124c-0.177,0.03-0.421,0.074-0.737,0.123
			c-0.316,0.05-0.669,0.1-1.063,0.143c-0.394,0.044-0.821,0.084-1.28,0.118c-0.465,0.037-0.92,0.056-1.376,0.056
			c-0.641,0-1.233-0.062-1.772-0.198c-0.542-0.13-1.01-0.338-1.403-0.623s-0.704-0.663-0.92-1.131
			c-0.22-0.468-0.329-1.028-0.329-1.686c0-0.629,0.124-1.171,0.384-1.624c0.254-0.455,0.601-0.821,1.041-1.097
			c0.437-0.279,0.948-0.48,1.531-0.613c0.586-0.13,1.202-0.198,1.847-0.198c0.202,0,0.416,0.012,0.632,0.033
			c0.223,0.022,0.428,0.053,0.626,0.087s0.369,0.071,0.514,0.103c0.149,0.025,0.248,0.05,0.31,0.063v-0.57
			c0-0.335-0.037-0.67-0.111-0.998c-0.075-0.328-0.205-0.62-0.394-0.877s-0.45-0.462-0.781-0.61
			c-0.325-0.155-0.753-0.235-1.28-0.235c-0.675,0-1.264,0.05-1.766,0.143c-0.505,0.099-0.88,0.195-1.128,0.297l-0.242-1.686
			c0.264-0.117,0.7-0.232,1.314-0.341C285.237,143.426,285.903,143.37,286.619,143.37 M286.792,153.59
			c0.483,0,0.911-0.01,1.283-0.031c0.375-0.024,0.685-0.063,0.936-0.121v-3.399c-0.149-0.074-0.384-0.136-0.712-0.186
			c-0.332-0.053-0.731-0.078-1.196-0.078c-0.31,0-0.632,0.022-0.976,0.065c-0.344,0.044-0.66,0.137-0.945,0.272
			c-0.285,0.143-0.521,0.332-0.712,0.57c-0.189,0.242-0.285,0.562-0.285,0.955c0,0.73,0.235,1.239,0.707,1.524
			C285.355,153.447,285.993,153.59,286.792,153.59"/>
	</g>
	<g>
		<path fill="#FFD444" d="M309.905,153.59c0.834,0,1.45-0.112,1.856-0.329c0.396-0.217,0.598-0.57,0.598-1.054
			c0-0.495-0.194-0.889-0.592-1.184c-0.39-0.291-1.041-0.619-1.952-0.985c-0.437-0.177-0.854-0.354-1.258-0.539
			c-0.402-0.18-0.75-0.396-1.041-0.647c-0.298-0.245-0.526-0.546-0.703-0.896c-0.177-0.354-0.264-0.781-0.264-1.295
			c0-1.011,0.372-1.81,1.118-2.398c0.747-0.596,1.764-0.893,3.053-0.893c0.316,0,0.639,0.019,0.961,0.056s0.619,0.081,0.898,0.133
			c0.278,0.053,0.523,0.108,0.734,0.165c0.214,0.059,0.378,0.111,0.492,0.154l-0.371,1.751c-0.218-0.114-0.564-0.235-1.029-0.362
			c-0.471-0.124-1.028-0.184-1.686-0.184c-0.573,0-1.072,0.115-1.497,0.338c-0.424,0.229-0.635,0.583-0.635,1.066
			c0,0.248,0.05,0.465,0.143,0.657c0.096,0.191,0.241,0.362,0.439,0.514c0.198,0.155,0.443,0.298,0.734,0.428
			c0.292,0.13,0.642,0.272,1.051,0.415c0.542,0.205,1.022,0.406,1.45,0.602c0.422,0.198,0.784,0.434,1.085,0.694
			c0.297,0.263,0.529,0.579,0.688,0.954c0.161,0.372,0.245,0.83,0.245,1.369c0,1.054-0.394,1.848-1.175,2.393
			c-0.784,0.539-1.896,0.813-3.344,0.813c-1.007,0-1.8-0.087-2.367-0.255c-0.573-0.167-0.957-0.297-1.162-0.384l0.372-1.754
			c0.235,0.087,0.607,0.22,1.119,0.396C308.378,153.503,309.057,153.59,309.905,153.59"/>
	</g>
	<g>
		<path fill="#FFD444" d="M332.777,153.59c0.83,0,1.45-0.112,1.853-0.329c0.403-0.217,0.602-0.57,0.602-1.054
			c0-0.495-0.198-0.889-0.592-1.184c-0.394-0.291-1.045-0.619-1.949-0.985c-0.44-0.177-0.861-0.354-1.265-0.539
			c-0.402-0.18-0.75-0.396-1.041-0.647c-0.291-0.245-0.526-0.546-0.7-0.896c-0.177-0.354-0.267-0.781-0.267-1.295
			c0-1.011,0.378-1.81,1.119-2.398c0.746-0.596,1.763-0.893,3.046-0.893c0.325,0,0.647,0.019,0.967,0.056
			c0.322,0.037,0.623,0.081,0.898,0.133c0.278,0.053,0.523,0.108,0.737,0.165c0.211,0.059,0.375,0.111,0.489,0.154l-0.371,1.751
			c-0.217-0.114-0.562-0.235-1.029-0.362c-0.468-0.124-1.028-0.184-1.691-0.184c-0.564,0-1.066,0.115-1.487,0.338
			c-0.425,0.229-0.636,0.583-0.636,1.066c0,0.248,0.047,0.465,0.143,0.657c0.097,0.191,0.239,0.362,0.438,0.514
			c0.198,0.155,0.439,0.298,0.737,0.428c0.291,0.13,0.638,0.272,1.05,0.415c0.54,0.205,1.026,0.406,1.447,0.602
			c0.428,0.198,0.787,0.434,1.085,0.694c0.301,0.263,0.526,0.579,0.694,0.954c0.157,0.372,0.238,0.83,0.238,1.369
			c0,1.054-0.391,1.848-1.172,2.393c-0.783,0.539-1.899,0.813-3.343,0.813c-1.011,0-1.798-0.087-2.371-0.255
			c-0.566-0.167-0.957-0.297-1.162-0.384l0.372-1.754c0.235,0.087,0.607,0.22,1.122,0.396
			C331.246,153.503,331.928,153.59,332.777,153.59"/>
	</g>
	<g>
		<path fill="#FFD444" d="M342.906,143.655h4.32v1.71h-4.32v5.262c0,0.576,0.041,1.044,0.131,1.416
			c0.09,0.375,0.22,0.666,0.394,0.88c0.177,0.208,0.396,0.359,0.656,0.449c0.267,0.087,0.57,0.131,0.924,0.131
			c0.613,0,1.104-0.068,1.481-0.208c0.371-0.14,0.632-0.238,0.777-0.298l0.394,1.689c-0.204,0.105-0.563,0.229-1.072,0.384
			c-0.515,0.152-1.097,0.229-1.754,0.229c-0.774,0-1.416-0.099-1.921-0.297c-0.502-0.199-0.911-0.49-1.215-0.89
			c-0.31-0.391-0.526-0.877-0.65-1.456c-0.121-0.574-0.183-1.246-0.183-2.006v-10.173l2.038-0.353V143.655z"/>
	</g>
	<g>
		<path fill="#FFD444" d="M386.67,153.59c0.836,0,1.449-0.112,1.853-0.329s0.604-0.57,0.604-1.054c0-0.495-0.198-0.889-0.592-1.184
			c-0.396-0.291-1.048-0.619-1.952-0.985c-0.438-0.177-0.858-0.354-1.259-0.539c-0.402-0.18-0.749-0.396-1.041-0.647
			c-0.297-0.245-0.526-0.546-0.706-0.896c-0.174-0.354-0.261-0.781-0.261-1.295c0-1.011,0.372-1.81,1.119-2.398
			c0.746-0.596,1.76-0.893,3.046-0.893c0.322,0,0.645,0.019,0.967,0.056s0.619,0.081,0.898,0.133
			c0.272,0.053,0.521,0.108,0.731,0.165c0.217,0.059,0.378,0.111,0.496,0.154l-0.372,1.751c-0.224-0.114-0.564-0.235-1.035-0.362
			c-0.465-0.124-1.028-0.184-1.686-0.184c-0.57,0-1.066,0.115-1.49,0.338c-0.425,0.229-0.636,0.583-0.636,1.066
			c0,0.248,0.047,0.465,0.143,0.657c0.093,0.191,0.242,0.362,0.44,0.514c0.195,0.155,0.439,0.298,0.731,0.428
			c0.294,0.13,0.645,0.272,1.053,0.415c0.539,0.205,1.022,0.406,1.444,0.602c0.428,0.198,0.787,0.434,1.091,0.694
			c0.298,0.263,0.526,0.579,0.688,0.954c0.161,0.372,0.242,0.83,0.242,1.369c0,1.054-0.391,1.848-1.172,2.393
			c-0.78,0.539-1.896,0.813-3.346,0.813c-1.005,0-1.798-0.087-2.368-0.255c-0.57-0.167-0.954-0.297-1.162-0.384l0.375-1.754
			c0.229,0.087,0.604,0.22,1.116,0.396C385.145,153.503,385.823,153.59,386.67,153.59"/>
	</g>
	<g>
		<path fill="#FFD444" d="M405.597,143.417c0.167,0,0.371,0.009,0.601,0.033c0.224,0.021,0.446,0.05,0.669,0.087
			c0.218,0.034,0.416,0.074,0.602,0.108s0.316,0.068,0.403,0.097l-0.348,1.778c-0.161-0.059-0.428-0.127-0.799-0.208
			c-0.372-0.08-0.855-0.12-1.438-0.12c-0.378,0-0.756,0.04-1.128,0.12c-0.372,0.081-0.619,0.137-0.737,0.165v9.581h-2.039v-10.92
			c0.483-0.174,1.078-0.341,1.798-0.493C403.898,143.494,404.697,143.417,405.597,143.417"/>
	</g>
	<g>
		<path fill="#FFD444" d="M420.023,154.729c-0.471,0.118-1.091,0.242-1.853,0.372c-0.769,0.137-1.661,0.198-2.671,0.198
			c-0.874,0-1.611-0.13-2.213-0.384c-0.595-0.255-1.078-0.62-1.444-1.085c-0.365-0.468-0.626-1.017-0.793-1.654
			c-0.161-0.636-0.241-1.339-0.241-2.117v-6.404h2.045v5.968c0,1.389,0.217,2.38,0.656,2.981c0.44,0.601,1.172,0.898,2.213,0.898
			c0.217,0,0.446-0.007,0.682-0.025c0.229-0.012,0.452-0.03,0.657-0.056c0.204-0.019,0.391-0.04,0.558-0.062
			c0.167-0.025,0.291-0.047,0.359-0.078v-9.627h2.045V154.729z"/>
	</g>
</g>
<g id="темные_кусочки_1_">
	<polygon fill="#DD9110" points="288.356,102.108 288.356,99.198 288.295,99.198 288.295,91.256 288.356,91.245 288.356,91.231 
		283.304,91.231 283.304,111.265 283.304,114.168 288.356,114.168 288.356,111.271 288.295,111.265 288.295,102.108 	"/>
	<polygon fill="#DD9110" points="306.01,111.265 306.01,102.108 306.07,102.108 306.07,99.198 306.01,99.198 306.01,91.256 
		306.07,91.245 306.07,91.231 301.136,91.231 301.136,99.198 301.018,99.198 301.018,102.108 301.136,102.108 301.136,111.265 
		301.018,111.276 301.018,114.168 306.07,114.168 306.07,111.271 	"/>
	<polygon fill="#DD9110" points="510.289,111.265 510.289,111.149 510.021,111.149 510.021,91.231 505.298,91.231 505.298,111.265 
		505.298,114.168 510.35,114.168 510.35,111.271 	"/>
	<polygon fill="#DD9110" points="525.984,111.265 525.984,102.108 526.045,102.108 526.045,99.198 525.984,99.198 525.984,91.256 
		526.045,91.245 526.045,91.231 521.111,91.231 521.111,99.198 521.078,99.198 521.078,102.108 521.111,102.108 521.111,111.265 
		520.992,111.276 520.992,114.168 526.045,114.168 526.045,111.271 	"/>
	<polygon fill="#DD9110" points="394.366,81.514 389.917,81.514 379.603,114.168 383.279,114.168 384.052,111.248 382.629,111.014 
		384.782,104.352 385.874,104.352 386.643,101.441 385.743,101.441 390.642,86.289 391.627,82.58 396.466,98.337 397.465,101.441 
		397.419,101.441 398.313,104.352 398.426,104.352 400.576,111.014 400.369,111.049 401.327,114.168 405.96,114.168 	"/>
	<polygon fill="#DD9110" points="448.761,91.231 444.11,91.231 444.11,111.265 444.11,114.168 448.761,114.168 	"/>
	<rect x="462.528" y="91.234" fill="#DD9110" width="4.471" height="22.937"/>
	<polygon fill="#DD9110" points="542.621,91.231 537.971,91.231 537.971,111.265 537.971,114.168 542.621,114.168 	"/>
	<rect x="556.389" y="91.234" fill="#DD9110" width="4.471" height="22.937"/>
	<polygon fill="#DD9110" points="577.42,91.231 572.77,91.231 572.77,111.265 572.77,114.168 577.42,114.168 	"/>
	<rect x="591.188" y="91.234" fill="#DD9110" width="4.471" height="22.937"/>
	<path fill="#FFD444" d="M47.874,9.461c0,0-39.276,24.285-46.013,58.476c0,0,3.867-34.867,33.065-52.963L47.874,9.461z"/>
	<path fill="#FFD444" d="M72.983,32.102c0,0,25.865-0.849,29.872,4.026s1.398,0,1.398,0s-1.392-4.325-25.142-5.413
		S72.983,32.102,72.983,32.102z"/>
	<path fill="#FFFFFF" d="M6.062,56.614c4.824-17.593,23.575-45.821,45.655-45.987c0,0-14.111,4.648-26.397,18.76
		C13.959,42.438,6.062,56.614,6.062,56.614z"/>
	<path fill="#FFFFFF" d="M54.374,98.285l-2.656-61.261c0,0,4.981-2.656,5.147,19.59s1.826,34.864-2.574,42.335"/>
	<path fill="#FFFFFF" d="M52.879,30.715h28.39c0,0-7.305,1.66-15.44,1.992S52.879,30.715,52.879,30.715z"/>
	<path fill="#FFFFFF" d="M92.558,38.85c6.973,1.66,13.779,10.092,8.301,25.134c0,0,0.119-7.37-1.473-14.841
		C98.194,43.552,92.558,38.85,92.558,38.85z"/>
	<path fill="#6A3C0F" d="M147.843,42.336c0,0,11.621,21.25,11.123,31.876s-4.482,21.084-4.482,21.084s2.158-9.629,1.328-21.417
		S149.835,47.151,147.843,42.336z"/>
	<path fill="#6A3C0F" d="M102.854,35.032c0,0,11.548,8.226,11.12,17.598s-11.12,19.424-11.12,19.424s5.988-11.456,5.566-18.511
		S104.852,38.482,102.854,35.032z"/>
	<path fill="#6A3C0F" d="M55.091,40.434c0,0,4.761-0.09,4.595,1.902s0,42.003,0,42.003s-0.607,5.146-2.379,6.475
		S55.542,41.593,55.091,40.434z"/>
	<path fill="#6A3C0F" d="M121.943,103.1c0,0,5.479,12.616,3.653,18.428s-13.512,19.425-13.512,19.425s7.037-11.122,9.195-18.926
		S121.44,108.877,121.943,103.1z"/>
	<path fill="#FFD444" d="M71.811,78.586v3.956c0,0,12.287,1.711,16.642,0s10.647-6.93,10.111-16.905c0,0-4.514,12.051-10.735,13.009
		S71.811,78.586,71.811,78.586z"/>
	<path fill="#FFD444" d="M99.386,83.786l3.469-2.279c0,0,23.272,7.93,25.123,29.448C127.978,110.955,124.007,90.319,99.386,83.786z"
		/>
	<path fill="#FFD444" d="M113.986,9.461c0,0,39.276,24.285,46.013,58.476c0,0-3.867-34.867-33.065-52.963L113.986,9.461z"/>
	<path fill="#FFD444" d="M155.378,88.097c0,0-1.568,22.646-15.08,36.485l2.511,1.88C142.81,126.462,155.774,109.081,155.378,88.097z
		"/>
	<path fill="#FFD444" d="M6.762,92.336c0,0,3.599,33.459,28.432,50.126c7.067,4.743,12,3.333,12,3.333S16.664,135.044,6.762,92.336z
		"/>
	<path fill="#FFFFFF" d="M115.303,147.196c0,0,9.831-1.571,20.752-11.059s12.95-21.527,12.95-21.527s-6.895,10.521-14.61,17.875
		C123.77,142.612,115.303,147.196,115.303,147.196z"/>
	<path fill="#FFD444" d="M96.964,118.236c0,0,0-3.862,1.26-5.535c1.152-1.529,8.367-3.525,9.307-3.739s6.281-1.379,6.281-1.379
		s3.45,0.941,3.375,4.961c0,0-4.182-2.763-7.345-1.303S101.028,112.67,96.964,118.236z"/>
	<path fill="#FFFFFF" d="M111.152,111.068c-2.771-0.557-8.519,0.294-10.792,3.542c-4.295,6.138,5.86,18.871,5.86,18.871
		s-4.207-10.456-1.709-16.104C105.735,114.61,110.328,110.955,111.152,111.068z"/>
	<g>
		<path fill="#DD9110" d="M262.042,63.222c-1.185-1.917-1.938-4.764-1.938-7.95c0-0.691,0.038-1.365,0.105-2.018
			c-0.255-1.238-0.381-2.657-0.369-4.27c0.019-1.603,0.21-3.003,0.589-4.202c0.323-1.041,0.747-1.925,1.255-2.668
			c-3.8,2.154-6.397,6.459-6.397,11.429c0,1.535,0.26,3.001,0.715,4.367c0.408,0.798,0.884,1.536,1.446,2.198
			c1,1.178,2.243,2.101,3.73,2.782C261.455,63.017,261.749,63.119,262.042,63.222z"/>
		<path fill="#DD9110" d="M271.265,44.816h3.089l0.052-1.514c-1.221-1.012-2.625-1.77-4.153-2.21L271.265,44.816z"/>
	</g>
	<g>
		<path fill="#DD9110" d="M432.177,100.688c-0.893-0.365-1.896-0.595-3.012-0.688c0.78-0.291,1.481-0.65,2.106-1.078
			c0.626-0.428,1.166-0.911,1.605-1.45c0.273-0.335,0.495-0.696,0.693-1.068c-1.275-1.524-2.893-2.747-4.739-3.551
			c0.108,0.363,0.179,0.736,0.179,1.126c0,0.686-0.087,1.342-0.254,1.969c-0.167,0.625-0.471,1.18-0.905,1.66
			c-0.434,0.48-1.028,0.861-1.772,1.144c-0.014,0.005-0.03,0.008-0.044,0.014c0.528,0.86,0.976,1.87,1.299,3.013
			c1.078-1.074,3.684-1.1,6.297,0.039c0.431,0.187,0.828,0.401,1.207,0.626c-0.124-0.128-0.229-0.264-0.367-0.385
			C433.831,101.513,433.069,101.055,432.177,100.688z"/>
		<path fill="#DD9110" d="M431.142,107.534c-0.097-0.042-0.184-0.093-0.278-0.137c-0.044,0.57-0.139,1.105-0.335,1.581
			c-0.248,0.607-0.657,1.122-1.221,1.543c-0.537,0.399-1.241,0.704-2.093,0.925c-0.379,1.201-0.889,2.256-1.496,3.109
			c1.455-0.078,2.758-0.257,3.898-0.548c1.562-0.394,2.851-0.961,3.854-1.704c0.685-0.503,1.242-1.089,1.685-1.742
			c0.377-0.734,0.695-1.504,0.928-2.312C434.784,108.55,432.968,108.33,431.142,107.534z"/>
		<path fill="#DD9110" d="M417.197,114.236c0.285,0.018,0.584,0.038,0.884,0.057c-1.261-1.916-2.062-4.735-2.062-7.888
			c0-3.951,1.253-7.387,3.1-9.163v-4.613c-1.896,0.722-3.574,1.875-4.921,3.343v15.063l-1.537,0.29
			c0.639,1.057,1.422,2.013,2.326,2.843h0.494C415.89,114.168,416.46,114.192,417.197,114.236z"/>
	</g>
	<g>
		<path fill="#DD9110" d="M214.496,55.275c0,2.515-0.345,4.884-0.943,6.993c0.383-0.084,0.771-0.148,1.171-0.17l1.122-6.749
			l-1.354-0.21C214.492,55.184,214.496,55.229,214.496,55.275z"/>
		<path fill="#DD9110" d="M196.48,55.275c0-0.133,0.009-0.261,0.011-0.394c-0.496-1.15-0.885-2.404-1.16-3.769
			c-0.378-1.908-0.57-3.863-0.57-5.859c0-2.32,0.242-4.369,0.719-6.147c0.168-0.62,0.368-1.192,0.582-1.743
			c-3.783,2.972-6.424,7.31-7.201,12.275c0.179,1.265,0.449,2.468,0.818,3.604c0.719,2.213,1.763,4.109,3.136,5.689
			c1.273,1.463,2.826,2.605,4.641,3.459C196.837,60.25,196.48,57.838,196.48,55.275z"/>
		<path fill="#DD9110" d="M211.838,37.698h3.319l0.158-3.093c-1.441-0.579-2.968-0.981-4.556-1.201L211.838,37.698z"/>
	</g>
	<g>
		<path fill="#DD9110" d="M311.111,61.174c0.763,0.693,1.624,1.276,2.605,1.726c0.66,0.304,1.376,0.53,2.135,0.696
			c-1.726-1.765-2.898-5.223-2.898-9.203c0-0.209,0.01-0.414,0.017-0.62c-0.212-0.938-0.345-1.979-0.384-3.141v-0.137h0.768
			c0.212-1.001,0.501-1.929,0.857-2.748h-1.625c0.074-1.621,0.267-2.96,0.583-4.028c0.266-0.919,0.607-1.67,1.01-2.273
			c-3.605,2.217-6.042,6.406-6.042,11.218C308.137,55.929,309.266,58.902,311.111,61.174z"/>
		<path fill="#DD9110" d="M324.269,62.866c0.83-0.31,1.589-0.676,2.268-1.085c0.679-0.415,1.239-0.843,1.68-1.282l-0.961-2.244
			c-0.334,0.261-0.756,0.518-1.271,0.778c-0.508,0.26-1.075,0.486-1.691,0.685c-0.39,0.126-0.793,0.231-1.203,0.326
			c-0.533,1.568-1.281,2.844-2.165,3.686c0.233-0.036,0.468-0.059,0.7-0.107C322.555,63.43,323.438,63.179,324.269,62.866z"/>
		<path fill="#DD9110" d="M328.675,45.941c-0.04-0.897-0.149-1.722-0.313-2.491c-2.092-2.219-4.936-3.603-8.078-3.671
			c0.102,0.045,0.206,0.085,0.301,0.138c0.632,0.354,1.149,0.824,1.546,1.42c0.396,0.595,0.688,1.282,0.868,2.061
			c0.186,0.777,0.275,1.596,0.275,2.451c0,0.291-0.003,0.601-0.01,0.936c-0.012,0.338-0.027,0.656-0.062,0.964h-0.491
			c0.356,0.819,0.645,1.747,0.857,2.748h4.855c0.12-0.567,0.201-1.221,0.229-1.958C328.687,47.797,328.693,46.933,328.675,45.941z"
			/>
	</g>
	<g>
		<path fill="#DD9110" d="M391.899,63.105c0.883-0.318,1.656-0.737,2.318-1.255c0.868-0.688,1.531-1.546,1.989-2.578
			c0.459-1.028,0.682-2.225,0.682-3.582c0-0.131-0.011-0.253-0.016-0.381c-2.013-2.346-4.816-3.873-7.956-4.086
			c0.383,0.167,0.737,0.361,1.037,0.613c0.502,0.418,0.893,0.973,1.159,1.67c0.267,0.694,0.396,1.553,0.396,2.575
			c0,1.279-0.236,2.289-0.688,3.057C391.322,60.278,391.691,61.629,391.899,63.105z"/>
	</g>
	<path fill="#DD9110" d="M481.83,110.164c-0.391-0.365-0.694-0.836-0.917-1.419c-0.217-0.582-0.329-1.289-0.329-2.132
		c0-0.672,0.133-1.316,0.389-1.938c-2.32,0.851-4.313,2.455-5.742,4.544c0.109,0.516,0.261,0.997,0.464,1.435
		c0.435,0.941,1.017,1.707,1.742,2.302c0.725,0.596,1.562,1.032,2.516,1.317c0.434,0.128,0.882,0.219,1.336,0.29
		c0.327-1.475,0.831-2.77,1.457-3.809C482.408,110.6,482.094,110.416,481.83,110.164z"/>
	<path fill="#DD9110" d="M212.44,111.698c0.009-0.008,0.019-0.014,0.028-0.021c1.09-0.945,1.939-2.126,2.553-3.526
		c0.61-1.407,0.917-3.037,0.917-4.902c0-1.005-0.118-1.938-0.327-2.813c-1.98-1.592-4.423-2.546-7.078-2.546
		c-0.068,0-0.133,0.012-0.2,0.013c0.001,0.001,0.002,0.002,0.004,0.003c0.685,0.616,1.218,1.403,1.59,2.358
		c0.375,0.954,0.564,2.079,0.564,3.377c0,0.284-0.012,0.556-0.026,0.825C211.58,106.219,212.321,108.793,212.44,111.698z"/>
	<g>
		<path fill="#DD9110" d="M317.711,111.906c0.777,0.719,1.66,1.319,2.665,1.781c0.776,0.358,1.625,0.614,2.536,0.782
			c-1.526-1.743-2.564-4.674-2.694-8.045c-0.074-0.179-0.151-0.353-0.22-0.542c-0.439-1.233-0.694-2.721-0.756-4.462v-0.137h1.524
			c0.273-1.017,0.635-1.943,1.071-2.748h-2.596c0.077-1.617,0.272-2.959,0.582-4.028c0.082-0.276,0.17-0.537,0.264-0.784
			c-3.1,2.356-5.109,6.071-5.109,10.264C314.979,106.975,316.005,109.719,317.711,111.906z"/>
		<path fill="#DD9110" d="M327.785,91.092c0.385,0.294,0.734,0.623,1.007,1.032c0.396,0.598,0.688,1.283,0.868,2.063
			c0.186,0.774,0.272,1.593,0.272,2.448c0,0.288,0,0.601-0.01,0.938c0,0.013-0.002,0.024-0.002,0.037
			c0.692,0.988,1.258,2.239,1.642,3.672h3.523c0.12-0.566,0.195-1.218,0.229-1.958c0.028-0.74,0.041-1.605,0.022-2.597
			c-0.062-1.37-0.274-2.581-0.625-3.651c-1.982-1.25-4.317-1.99-6.835-1.99C327.846,91.088,327.816,91.092,327.785,91.092z"/>
	</g>
	<g>
		<path fill="#DD9110" d="M348.028,114.346c-1.572-1.882-2.604-5.044-2.604-8.629c0-0.058,0.004-0.114,0.005-0.172
			c-0.056-0.169-0.116-0.331-0.167-0.508c-0.422-1.45-0.623-3.204-0.607-5.265c0.016-1.603,0.208-3.003,0.586-4.198
			c0.319-1.029,0.734-1.904,1.236-2.638c-3.753,2.255-6.272,6.354-6.272,11.051c0,2.442,0.691,4.717,1.87,6.665
			c0.064,0.08,0.121,0.167,0.188,0.245c1.001,1.178,2.244,2.102,3.731,2.783C346.626,113.966,347.311,114.18,348.028,114.346z"/>
		<path fill="#DD9110" d="M359.267,92.666c-1.469-0.802-3.106-1.329-4.852-1.506c0.23,0.191,0.443,0.404,0.629,0.648l1.035,3.796
			h3.086L359.267,92.666z"/>
	</g>
	<path fill="#DD9110" d="M490.798,114.018c0,0,2.496-19.001-2.097-22.63c0,0,8.335-5.926,5.352,22.258"/>
	<g>
		<path fill="#DD9110" d="M276.272,106.36c-0.987-0.072-2.075-0.317-3.182-0.8c-1.342-0.584-2.456-1.376-3.217-2.214
			c0.017,0.284,0.022,0.573,0.025,0.863c0.146,0.262,0.266,0.539,0.347,0.839c0.173,0.632,0.263,1.308,0.263,2.026
			c0,0.685-0.121,1.32-0.369,1.899c-0.242,0.576-0.623,1.078-1.14,1.497c-0.08,0.065-0.186,0.113-0.273,0.174
			c-0.792,1.867-1.928,3.252-3.247,3.87c1.618-0.042,3.068-0.222,4.332-0.561c1.441-0.388,2.643-0.941,3.607-1.661
			c0.96-0.719,1.679-1.589,2.163-2.612C276.044,108.689,276.275,107.582,276.272,106.36z"/>
		<path fill="#DD9110" d="M259.109,91.873c0.124-0.167,0.322-0.338,0.607-0.515c0.282-0.174,0.638-0.338,1.075-0.492
			c0.437-0.149,0.945-0.279,1.534-0.379c0.586-0.099,1.246-0.148,1.98-0.148c0.995,0,1.813,0.1,2.46,0.288
			c0.648,0.192,1.162,0.456,1.546,0.8c0.378,0.344,0.651,0.753,0.799,1.227c0.155,0.475,0.229,1.001,0.229,1.578
			c0,1.156-0.403,2.109-1.167,2.884c0.443,0.789,0.824,1.686,1.108,2.689c0.427-0.426,1.101-0.68,1.914-0.769
			c0.055-0.032,0.118-0.056,0.171-0.089c0.71-0.428,1.317-0.905,1.819-1.44c0.505-0.537,0.889-1.116,1.156-1.739
			c0.266-0.629,0.403-1.276,0.403-1.948c0-0.085-0.01-0.165-0.013-0.248c-2.329-2.323-5.533-3.768-9.084-3.768
			c-4.362,0-8.211,2.171-10.545,5.486V95.7h3.114L259.109,91.873z"/>
		<path fill="#DD9110" d="M259.674,114.127c0.554,0.089,1.13,0.171,1.746,0.239c0.249,0.028,0.518,0.04,0.777,0.061
			c-1.912-1.019-3.415-3.673-3.981-7.032h-3.045l-0.24,2.482C256.127,111.661,257.76,113.125,259.674,114.127z"/>
	</g>
	<rect x="223.319" y="39.222" fill="#DD9110" width="4.704" height="21.69"/>
	<polygon fill="#DD9110" points="228.023,91.438 223.353,91.438 223.353,111.236 223.319,111.241 223.319,113.128 228.023,113.128 	
		"/>
	<polygon fill="#DD9110" points="278.016,39.222 277.946,42.224 277.946,46.97 281.106,46.97 282.436,40.444 288.203,39.849 
		288.203,56.889 289.022,56.889 289.022,60.89 292.356,60.89 292.356,56.889 293.219,56.889 293.219,39.849 298.896,40.444 
		300.269,46.97 303.544,46.97 303.357,39.222 	"/>
	<rect x="401.382" y="39.222" fill="#DD9110" width="4.642" height="24"/>
	<g>
		<polygon fill="#DD9110" points="338.175,60.474 339.984,47.242 340.339,42.533 339.102,42.533 335.346,62.553 339.385,62.553 
			339.735,60.623 		"/>
		<polygon fill="#DD9110" points="364.519,42.533 359.877,42.533 360.391,47.159 361.92,43.369 364.497,62.553 369.791,62.553 
			369.443,60.676 367.433,60.449 		"/>
		<polygon fill="#DD9110" points="352.327,62.553 357.337,47.242 358.136,44.621 351.941,59.196 346.438,42.533 341.366,42.533 
			342.479,45.52 342.779,43.863 349.229,62.553 		"/>
	</g>
</g>
</svg>
